<ttFont>
    <TTGlyph name=".notdef" xMin="120" yMin="0" xMax="958" yMax="1410">
      <contour>
        <pt x="120" y="1410" on="1"/>
        <pt x="958" y="1410" on="1"/>
        <pt x="958" y="0" on="1"/>
        <pt x="120" y="0" on="1"/>
      </contour>
      <contour>
        <pt x="911" y="47" on="1"/>
        <pt x="911" y="1363" on="1"/>
        <pt x="167" y="1363" on="1"/>
        <pt x="167" y="47" on="1"/>
      </contour>
      <contour>
        <pt x="389" y="674" on="1"/>
        <pt x="389" y="736" on="0"/>
        <pt x="477" y="824" on="0"/>
        <pt x="539" y="824" on="1"/>
        <pt x="601" y="824" on="0"/>
        <pt x="689" y="736" on="0"/>
        <pt x="689" y="674" on="1"/>
        <pt x="689" y="612" on="0"/>
        <pt x="601" y="524" on="0"/>
        <pt x="539" y="524" on="1"/>
        <pt x="477" y="524" on="0"/>
        <pt x="389" y="612" on="0"/>
      </contour>
    </TTGlyph>
    <TTGlyph name="10192.04" xMin="10" yMin="0" xMax="1028" yMax="1410">
      <contour>
        <pt x="131" y="0" on="1"/>
        <pt x="35" y="0" on="0"/>
        <pt x="35" y="64" on="1"/>
        <pt x="35" y="72" on="0"/>
        <pt x="74" y="105" on="0"/>
        <pt x="104" y="130" on="1"/>
        <pt x="300" y="297" on="0"/>
        <pt x="300" y="461" on="1"/>
        <pt x="300" y="552" on="0"/>
        <pt x="247" y="685" on="0"/>
        <pt x="238" y="714" on="1"/>
        <pt x="31" y="714" on="1"/>
        <pt x="10" y="714" on="0"/>
        <pt x="10" y="739" on="1"/>
        <pt x="10" y="815" on="1"/>
        <pt x="10" y="840" on="0"/>
        <pt x="31" y="840" on="1"/>
        <pt x="217" y="840" on="1"/>
        <pt x="220" y="1007" on="0"/>
        <pt x="330" y="1198" on="1"/>
        <pt x="402" y="1326" on="0"/>
        <pt x="493" y="1382" on="1"/>
        <pt x="540" y="1411" on="0"/>
        <pt x="595" y="1409" on="0"/>
        <pt x="627" y="1409" on="0"/>
        <pt x="657" y="1408" on="0"/>
        <pt x="676" y="1394" on="1"/>
        <pt x="708" y="1371" on="0"/>
        <pt x="854" y="1227" on="0"/>
        <pt x="899" y="1227" on="1"/>
        <pt x="909" y="1227" on="0"/>
        <pt x="956" y="1258" on="0"/>
        <pt x="993" y="1258" on="0"/>
        <pt x="1028" y="1218" on="0"/>
        <pt x="1028" y="1194" on="1"/>
        <pt x="1028" y="1155" on="0"/>
        <pt x="946" y="1064" on="0"/>
        <pt x="840" y="992" on="0"/>
        <pt x="784" y="992" on="0"/>
        <pt x="726" y="1022" on="0"/>
        <pt x="669" y="1066" on="0"/>
        <pt x="642" y="1092" on="1"/>
        <pt x="538" y="1192" on="0"/>
        <pt x="516" y="1192" on="1"/>
        <pt x="472" y="1192" on="0"/>
        <pt x="450" y="1167" on="1"/>
        <pt x="412" y="1123" on="0"/>
        <pt x="402" y="1001" on="1"/>
        <pt x="402" y="924" on="0"/>
        <pt x="430" y="840" on="1"/>
        <pt x="792" y="840" on="1"/>
        <pt x="813" y="840" on="0"/>
        <pt x="813" y="815" on="1"/>
        <pt x="813" y="739" on="1"/>
        <pt x="813" y="714" on="0"/>
        <pt x="792" y="714" on="1"/>
        <pt x="473" y="714" on="1"/>
        <pt x="490" y="659" on="0"/>
        <pt x="490" y="515" on="0"/>
        <pt x="476" y="420" on="0"/>
        <pt x="451" y="321" on="1"/>
        <pt x="766" y="321" on="1"/>
        <pt x="830" y="321" on="0"/>
        <pt x="883" y="369" on="1"/>
        <pt x="903" y="387" on="0"/>
        <pt x="935" y="417" on="0"/>
        <pt x="954" y="417" on="1"/>
        <pt x="988" y="417" on="0"/>
        <pt x="988" y="383" on="1"/>
        <pt x="988" y="325" on="0"/>
        <pt x="905" y="159" on="0"/>
        <pt x="787" y="32" on="0"/>
        <pt x="703" y="32" on="0"/>
        <pt x="629" y="60" on="0"/>
        <pt x="483" y="122" on="0"/>
        <pt x="379" y="122" on="0"/>
        <pt x="317" y="84" on="0"/>
        <pt x="285" y="61" on="1"/>
        <pt x="200" y="0" on="0"/>
      </contour>
    </TTGlyph>
    <TTGlyph name="A" xMin="5" yMin="0" xMax="1452" yMax="1410">
      <contour>
        <pt x="532" y="8" on="1"/>
        <pt x="532" y="0" on="0"/>
        <pt x="524" y="0" on="1"/>
        <pt x="13" y="0" on="1"/>
        <pt x="5" y="0" on="0"/>
        <pt x="5" y="8" on="1"/>
        <pt x="5" y="32" on="1"/>
        <pt x="5" y="40" on="0"/>
        <pt x="18" y="40" on="1"/>
        <pt x="155" y="46" on="0"/>
        <pt x="203" y="186" on="1"/>
        <pt x="611" y="1367" on="1"/>
        <pt x="612" y="1369" on="0"/>
        <pt x="612" y="1372" on="1"/>
        <pt x="601" y="1405" on="1"/>
        <pt x="601" y="1410" on="0"/>
        <pt x="605" y="1410" on="1"/>
        <pt x="805" y="1410" on="1"/>
        <pt x="807" y="1409" on="0"/>
        <pt x="814" y="1407" on="0"/>
        <pt x="816" y="1402" on="1"/>
        <pt x="1239" y="215" on="1"/>
        <pt x="1253" y="188" on="0"/>
        <pt x="1270" y="144" on="0"/>
        <pt x="1281" y="126" on="1"/>
        <pt x="1305" y="85" on="0"/>
        <pt x="1360" y="63" on="1"/>
        <pt x="1406" y="40" on="0"/>
        <pt x="1444" y="40" on="1"/>
        <pt x="1452" y="40" on="0"/>
        <pt x="1452" y="31" on="1"/>
        <pt x="1452" y="8" on="1"/>
        <pt x="1452" y="0" on="0"/>
        <pt x="1444" y="0" on="1"/>
        <pt x="832" y="0" on="1"/>
        <pt x="824" y="0" on="0"/>
        <pt x="824" y="8" on="1"/>
        <pt x="824" y="32" on="1"/>
        <pt x="824" y="40" on="0"/>
        <pt x="898" y="44" on="0"/>
        <pt x="922" y="46" on="1"/>
        <pt x="1061" y="61" on="0"/>
        <pt x="1061" y="140" on="1"/>
        <pt x="1061" y="146" on="0"/>
        <pt x="1059" y="154" on="1"/>
        <pt x="908" y="580" on="1"/>
        <pt x="907" y="582" on="0"/>
        <pt x="904" y="589" on="1"/>
        <pt x="892" y="623" on="0"/>
        <pt x="862" y="623" on="1"/>
        <pt x="507" y="623" on="1"/>
        <pt x="477" y="623" on="0"/>
        <pt x="460" y="590" on="1"/>
        <pt x="457" y="583" on="0"/>
        <pt x="457" y="582" on="1"/>
        <pt x="307" y="143" on="1"/>
        <pt x="307" y="134" on="1"/>
        <pt x="307" y="108" on="0"/>
        <pt x="334" y="87" on="1"/>
        <pt x="395" y="40" on="0"/>
        <pt x="498" y="40" on="1"/>
        <pt x="524" y="40" on="1"/>
        <pt x="532" y="40" on="0"/>
        <pt x="532" y="32" on="1"/>
      </contour>
      <contour>
        <pt x="828" y="734" on="1"/>
        <pt x="846" y="734" on="0"/>
        <pt x="846" y="749" on="1"/>
        <pt x="846" y="757" on="0"/>
        <pt x="842" y="767" on="1"/>
        <pt x="693" y="1177" on="1"/>
        <pt x="683" y="1204" on="0"/>
        <pt x="678" y="1204" on="1"/>
        <pt x="673" y="1204" on="0"/>
        <pt x="662" y="1176" on="1"/>
        <pt x="522" y="767" on="1"/>
        <pt x="518" y="757" on="0"/>
        <pt x="518" y="734" on="0"/>
        <pt x="533" y="734" on="1"/>
      </contour>
    </TTGlyph>
    <TTGlyph name="A.ins" xMin="5" yMin="0" xMax="1452" yMax="1410">
      <contour>
        <pt x="532" y="8" on="1"/>
        <pt x="532" y="0" on="0"/>
        <pt x="524" y="0" on="1"/>
        <pt x="13" y="0" on="1"/>
        <pt x="5" y="0" on="0"/>
        <pt x="5" y="8" on="1"/>
        <pt x="5" y="32" on="1"/>
        <pt x="5" y="40" on="0"/>
        <pt x="18" y="40" on="1"/>
        <pt x="155" y="46" on="0"/>
        <pt x="203" y="186" on="1"/>
        <pt x="593" y="1315" on="1"/>
        <pt x="257" y="1315" on="1"/>
        <pt x="168" y="1315" on="0"/>
        <pt x="153" y="1214" on="1"/>
        <pt x="149" y="1187" on="0"/>
        <pt x="144" y="1094" on="0"/>
        <pt x="130" y="1075" on="0"/>
        <pt x="100" y="1075" on="0"/>
        <pt x="100" y="1085" on="1"/>
        <pt x="100" y="1375" on="1"/>
        <pt x="102" y="1397" on="0"/>
        <pt x="118" y="1410" on="0"/>
        <pt x="136" y="1410" on="1"/>
        <pt x="1304" y="1410" on="1"/>
        <pt x="1322" y="1410" on="0"/>
        <pt x="1338" y="1397" on="0"/>
        <pt x="1340" y="1375" on="1"/>
        <pt x="1340" y="1085" on="1"/>
        <pt x="1340" y="1075" on="0"/>
        <pt x="1310" y="1075" on="0"/>
        <pt x="1304" y="1084" on="1"/>
        <pt x="1296" y="1094" on="0"/>
        <pt x="1289" y="1230" on="0"/>
        <pt x="1272" y="1264" on="1"/>
        <pt x="1245" y="1315" on="0"/>
        <pt x="1183" y="1315" on="1"/>
        <pt x="847" y="1315" on="1"/>
        <pt x="1239" y="215" on="1"/>
        <pt x="1253" y="188" on="0"/>
        <pt x="1270" y="144" on="0"/>
        <pt x="1281" y="126" on="1"/>
        <pt x="1305" y="85" on="0"/>
        <pt x="1360" y="63" on="1"/>
        <pt x="1406" y="40" on="0"/>
        <pt x="1444" y="40" on="1"/>
        <pt x="1452" y="40" on="0"/>
        <pt x="1452" y="31" on="1"/>
        <pt x="1452" y="8" on="1"/>
        <pt x="1452" y="0" on="0"/>
        <pt x="1444" y="0" on="1"/>
        <pt x="832" y="0" on="1"/>
        <pt x="824" y="0" on="0"/>
        <pt x="824" y="8" on="1"/>
        <pt x="824" y="32" on="1"/>
        <pt x="824" y="40" on="0"/>
        <pt x="898" y="44" on="0"/>
        <pt x="922" y="46" on="1"/>
        <pt x="1061" y="61" on="0"/>
        <pt x="1061" y="140" on="1"/>
        <pt x="1061" y="146" on="0"/>
        <pt x="1059" y="154" on="1"/>
        <pt x="908" y="580" on="1"/>
        <pt x="907" y="582" on="0"/>
        <pt x="904" y="589" on="1"/>
        <pt x="892" y="623" on="0"/>
        <pt x="862" y="623" on="1"/>
        <pt x="507" y="623" on="1"/>
        <pt x="477" y="623" on="0"/>
        <pt x="460" y="590" on="1"/>
        <pt x="457" y="583" on="0"/>
        <pt x="457" y="582" on="1"/>
        <pt x="307" y="143" on="1"/>
        <pt x="307" y="134" on="1"/>
        <pt x="307" y="108" on="0"/>
        <pt x="334" y="87" on="1"/>
        <pt x="395" y="40" on="0"/>
        <pt x="498" y="40" on="1"/>
        <pt x="524" y="40" on="1"/>
        <pt x="532" y="40" on="0"/>
        <pt x="532" y="32" on="1"/>
      </contour>
      <contour>
        <pt x="828" y="734" on="1"/>
        <pt x="846" y="734" on="0"/>
        <pt x="846" y="749" on="1"/>
        <pt x="846" y="757" on="0"/>
        <pt x="842" y="767" on="1"/>
        <pt x="693" y="1177" on="1"/>
        <pt x="683" y="1204" on="0"/>
        <pt x="678" y="1204" on="1"/>
        <pt x="673" y="1204" on="0"/>
        <pt x="662" y="1176" on="1"/>
        <pt x="522" y="767" on="1"/>
        <pt x="518" y="757" on="0"/>
        <pt x="518" y="734" on="0"/>
        <pt x="533" y="734" on="1"/>
      </contour>
    </TTGlyph>
    <TTGlyph name="A.sc" xMin="23" yMin="0" xMax="1035" yMax="945">
      <contour>
        <pt x="376" y="48" on="1"/>
        <pt x="381" y="48" on="0"/>
        <pt x="381" y="42" on="1"/>
        <pt x="381" y="5" on="1"/>
        <pt x="381" y="0" on="0"/>
        <pt x="376" y="0" on="1"/>
        <pt x="28" y="0" on="1"/>
        <pt x="23" y="0" on="0"/>
        <pt x="23" y="5" on="1"/>
        <pt x="23" y="42" on="1"/>
        <pt x="23" y="48" on="0"/>
        <pt x="32" y="48" on="1"/>
        <pt x="132" y="54" on="0"/>
        <pt x="164" y="146" on="1"/>
        <pt x="429" y="916" on="1"/>
        <pt x="422" y="941" on="1"/>
        <pt x="422" y="945" on="0"/>
        <pt x="425" y="945" on="1"/>
        <pt x="602" y="945" on="1"/>
        <pt x="603" y="944" on="0"/>
        <pt x="607" y="942" on="0"/>
        <pt x="609" y="939" on="1"/>
        <pt x="885" y="165" on="1"/>
        <pt x="929" y="48" on="0"/>
        <pt x="1030" y="48" on="1"/>
        <pt x="1035" y="48" on="0"/>
        <pt x="1035" y="42" on="1"/>
        <pt x="1035" y="5" on="1"/>
        <pt x="1035" y="0" on="0"/>
        <pt x="1030" y="0" on="1"/>
        <pt x="583" y="0" on="1"/>
        <pt x="578" y="0" on="0"/>
        <pt x="578" y="5" on="1"/>
        <pt x="578" y="42" on="1"/>
        <pt x="578" y="48" on="0"/>
        <pt x="583" y="48" on="1"/>
        <pt x="592" y="48" on="1"/>
        <pt x="603" y="49" on="0"/>
        <pt x="626" y="50" on="1"/>
        <pt x="729" y="54" on="0"/>
        <pt x="729" y="114" on="1"/>
        <pt x="728" y="124" on="1"/>
        <pt x="645" y="357" on="1"/>
        <pt x="644" y="360" on="0"/>
        <pt x="626" y="385" on="0"/>
        <pt x="610" y="385" on="1"/>
        <pt x="357" y="385" on="1"/>
        <pt x="335" y="385" on="0"/>
        <pt x="324" y="364" on="1"/>
        <pt x="321" y="359" on="0"/>
        <pt x="321" y="358" on="1"/>
        <pt x="238" y="117" on="1"/>
        <pt x="238" y="81" on="0"/>
        <pt x="289" y="60" on="1"/>
        <pt x="318" y="48" on="0"/>
        <pt x="359" y="48" on="1"/>
      </contour>
      <contour>
        <pt x="587" y="470" on="1"/>
        <pt x="600" y="470" on="0"/>
        <pt x="600" y="481" on="1"/>
        <pt x="600" y="484" on="0"/>
        <pt x="596" y="492" on="1"/>
        <pt x="489" y="789" on="1"/>
        <pt x="483" y="806" on="0"/>
        <pt x="476" y="806" on="0"/>
        <pt x="468" y="787" on="1"/>
        <pt x="369" y="492" on="1"/>
        <pt x="368" y="489" on="0"/>
        <pt x="365" y="482" on="0"/>
        <pt x="365" y="480" on="1"/>
        <pt x="365" y="470" on="0"/>
        <pt x="376" y="470" on="1"/>
      </contour>
    </TTGlyph>
    <TTGlyph name="AE" xMin="0" yMin="0" xMax="1842" yMax="1410">
      <contour>
        <pt x="518" y="0" on="1"/>
        <pt x="16" y="0" on="1"/>
        <pt x="4" y="0" on="0"/>
        <pt x="0" y="10" on="0"/>
        <pt x="0" y="37" on="0"/>
        <pt x="37" y="52" on="0"/>
        <pt x="101" y="64" on="0"/>
        <pt x="134" y="89" on="0"/>
        <pt x="160" y="123" on="0"/>
        <pt x="183" y="165" on="0"/>
        <pt x="322" y="386" on="0"/>
        <pt x="510" y="692" on="0"/>
        <pt x="580" y="806" on="1"/>
        <pt x="746" y="1077" on="0"/>
        <pt x="864" y="1275" on="0"/>
        <pt x="864" y="1336" on="0"/>
        <pt x="808" y="1373" on="0"/>
        <pt x="769" y="1373" on="1"/>
        <pt x="661" y="1373" on="1"/>
        <pt x="658" y="1373" on="0"/>
        <pt x="648" y="1384" on="0"/>
        <pt x="648" y="1390" on="1"/>
        <pt x="648" y="1410" on="0"/>
        <pt x="666" y="1410" on="1"/>
        <pt x="1697" y="1410" on="1"/>
        <pt x="1715" y="1410" on="0"/>
        <pt x="1731" y="1396" on="0"/>
        <pt x="1733" y="1374" on="1"/>
        <pt x="1751" y="1085" on="1"/>
        <pt x="1751" y="1075" on="0"/>
        <pt x="1721" y="1075" on="0"/>
        <pt x="1714" y="1084" on="1"/>
        <pt x="1708" y="1094" on="0"/>
        <pt x="1689" y="1220" on="0"/>
        <pt x="1639" y="1304" on="0"/>
        <pt x="1576" y="1315" on="1"/>
        <pt x="1159" y="1315" on="1"/>
        <pt x="1146" y="1315" on="0"/>
        <pt x="1146" y="1302" on="1"/>
        <pt x="1146" y="784" on="1"/>
        <pt x="1146" y="774" on="0"/>
        <pt x="1156" y="774" on="1"/>
        <pt x="1502" y="774" on="1"/>
        <pt x="1626" y="774" on="0"/>
        <pt x="1626" y="930" on="1"/>
        <pt x="1626" y="938" on="0"/>
        <pt x="1634" y="938" on="1"/>
        <pt x="1658" y="938" on="1"/>
        <pt x="1666" y="938" on="0"/>
        <pt x="1666" y="930" on="1"/>
        <pt x="1666" y="502" on="1"/>
        <pt x="1666" y="494" on="0"/>
        <pt x="1658" y="494" on="1"/>
        <pt x="1634" y="494" on="1"/>
        <pt x="1626" y="494" on="0"/>
        <pt x="1626" y="502" on="1"/>
        <pt x="1626" y="650" on="0"/>
        <pt x="1540" y="672" on="1"/>
        <pt x="1516" y="679" on="0"/>
        <pt x="1489" y="679" on="1"/>
        <pt x="1156" y="679" on="1"/>
        <pt x="1146" y="679" on="0"/>
        <pt x="1146" y="669" on="1"/>
        <pt x="1146" y="183" on="1"/>
        <pt x="1146" y="108" on="0"/>
        <pt x="1215" y="98" on="1"/>
        <pt x="1235" y="95" on="0"/>
        <pt x="1257" y="95" on="1"/>
        <pt x="1590" y="95" on="1"/>
        <pt x="1693" y="95" on="0"/>
        <pt x="1750" y="186" on="1"/>
        <pt x="1791" y="251" on="0"/>
        <pt x="1800" y="335" on="1"/>
        <pt x="1803" y="363" on="0"/>
        <pt x="1830" y="363" on="1"/>
        <pt x="1842" y="363" on="0"/>
        <pt x="1842" y="350" on="1"/>
        <pt x="1809" y="14" on="1"/>
        <pt x="1803" y="0" on="0"/>
        <pt x="1795" y="0" on="1"/>
        <pt x="680" y="0" on="1"/>
        <pt x="650" y="0" on="0"/>
        <pt x="650" y="41" on="0"/>
        <pt x="726" y="47" on="0"/>
        <pt x="774" y="48" on="1"/>
        <pt x="951" y="52" on="0"/>
        <pt x="951" y="178" on="1"/>
        <pt x="951" y="623" on="1"/>
        <pt x="631" y="623" on="1"/>
        <pt x="605" y="623" on="0"/>
        <pt x="582" y="590" on="1"/>
        <pt x="577" y="583" on="0"/>
        <pt x="576" y="582" on="1"/>
        <pt x="311" y="143" on="1"/>
        <pt x="308" y="134" on="0"/>
        <pt x="308" y="116" on="1"/>
        <pt x="308" y="79" on="0"/>
        <pt x="388" y="57" on="1"/>
        <pt x="434" y="45" on="0"/>
        <pt x="512" y="41" on="1"/>
        <pt x="536" y="36" on="0"/>
        <pt x="536" y="0" on="0"/>
      </contour>
      <contour>
        <pt x="635" y="750" on="1"/>
        <pt x="626" y="733" on="0"/>
        <pt x="626" y="729" on="1"/>
        <pt x="626" y="716" on="0"/>
        <pt x="658" y="716" on="1"/>
        <pt x="951" y="716" on="1"/>
        <pt x="951" y="1185" on="1"/>
        <pt x="944" y="1204" on="0"/>
        <pt x="940" y="1204" on="1"/>
        <pt x="931" y="1204" on="0"/>
        <pt x="901" y="1188" on="0"/>
        <pt x="897" y="1176" on="1"/>
      </contour>
    </TTGlyph>
    <TTGlyph name="AE.sc" xMin="20" yMin="0" xMax="1350" yMax="945">
      <contour>
        <pt x="41" y="0" on="1"/>
        <pt x="20" y="0" on="0"/>
        <pt x="20" y="44" on="0"/>
        <pt x="87" y="61" on="1"/>
        <pt x="117" y="68" on="0"/>
        <pt x="148" y="119" on="1"/>
        <pt x="156" y="133" on="0"/>
        <pt x="164" y="146" on="1"/>
        <pt x="585" y="847" on="1"/>
        <pt x="589" y="855" on="0"/>
        <pt x="589" y="877" on="0"/>
        <pt x="545" y="899" on="0"/>
        <pt x="522" y="899" on="1"/>
        <pt x="467" y="899" on="1"/>
        <pt x="454" y="899" on="0"/>
        <pt x="454" y="945" on="0"/>
        <pt x="466" y="945" on="1"/>
        <pt x="1254" y="945" on="1"/>
        <pt x="1276" y="945" on="0"/>
        <pt x="1278" y="921" on="1"/>
        <pt x="1289" y="727" on="1"/>
        <pt x="1289" y="720" on="0"/>
        <pt x="1267" y="720" on="1"/>
        <pt x="1248" y="720" on="0"/>
        <pt x="1237" y="736" on="0"/>
        <pt x="1235" y="758" on="1"/>
        <pt x="1225" y="860" on="0"/>
        <pt x="1151" y="870" on="1"/>
        <pt x="872" y="870" on="1"/>
        <pt x="863" y="870" on="0"/>
        <pt x="863" y="862" on="1"/>
        <pt x="863" y="535" on="1"/>
        <pt x="863" y="529" on="0"/>
        <pt x="870" y="529" on="1"/>
        <pt x="1101" y="529" on="1"/>
        <pt x="1184" y="529" on="0"/>
        <pt x="1184" y="633" on="1"/>
        <pt x="1184" y="638" on="0"/>
        <pt x="1190" y="638" on="1"/>
        <pt x="1227" y="638" on="1"/>
        <pt x="1233" y="638" on="0"/>
        <pt x="1233" y="633" on="1"/>
        <pt x="1233" y="325" on="1"/>
        <pt x="1233" y="320" on="0"/>
        <pt x="1227" y="320" on="1"/>
        <pt x="1190" y="320" on="1"/>
        <pt x="1184" y="320" on="0"/>
        <pt x="1184" y="325" on="1"/>
        <pt x="1184" y="423" on="0"/>
        <pt x="1127" y="440" on="1"/>
        <pt x="1111" y="444" on="0"/>
        <pt x="1093" y="444" on="1"/>
        <pt x="870" y="444" on="1"/>
        <pt x="863" y="444" on="0"/>
        <pt x="863" y="438" on="1"/>
        <pt x="863" y="133" on="1"/>
        <pt x="863" y="82" on="0"/>
        <pt x="910" y="76" on="1"/>
        <pt x="923" y="75" on="0"/>
        <pt x="938" y="75" on="1"/>
        <pt x="1160" y="75" on="1"/>
        <pt x="1229" y="75" on="0"/>
        <pt x="1296" y="162" on="0"/>
        <pt x="1304" y="244" on="0"/>
        <pt x="1332" y="244" on="1"/>
        <pt x="1335" y="244" on="0"/>
        <pt x="1350" y="237" on="0"/>
        <pt x="1350" y="234" on="1"/>
        <pt x="1328" y="9" on="1"/>
        <pt x="1325" y="0" on="0"/>
        <pt x="1319" y="0" on="1"/>
        <pt x="528" y="0" on="1"/>
        <pt x="513" y="0" on="0"/>
        <pt x="498" y="18" on="0"/>
        <pt x="498" y="26" on="1"/>
        <pt x="498" y="48" on="0"/>
        <pt x="549" y="53" on="0"/>
        <pt x="581" y="54" on="1"/>
        <pt x="699" y="55" on="0"/>
        <pt x="699" y="141" on="1"/>
        <pt x="699" y="385" on="1"/>
        <pt x="463" y="385" on="1"/>
        <pt x="424" y="385" on="0"/>
        <pt x="407" y="358" on="1"/>
        <pt x="269" y="127" on="1"/>
        <pt x="263" y="118" on="0"/>
        <pt x="263" y="102" on="1"/>
        <pt x="263" y="57" on="0"/>
        <pt x="386" y="48" on="1"/>
        <pt x="400" y="47" on="0"/>
        <pt x="400" y="0" on="0"/>
        <pt x="387" y="0" on="1"/>
      </contour>
      <contour>
        <pt x="699" y="459" on="1"/>
        <pt x="699" y="794" on="1"/>
        <pt x="699" y="806" on="0"/>
        <pt x="677" y="806" on="0"/>
        <pt x="665" y="787" on="1"/>
        <pt x="476" y="471" on="1"/>
        <pt x="475" y="470" on="0"/>
        <pt x="475" y="459" on="0"/>
        <pt x="497" y="459" on="1"/>
      </contour>
    </TTGlyph>
    <TTGlyph name="AEacute" xMin="0" yMin="0" xMax="1842" yMax="1950">
      <component glyphName="AE" x="0" y="0" flags="0x1204"/>
      <component glyphName="acute" x="870" y="498" flags="0x1004"/>
    </TTGlyph>
    <TTGlyph name="A_R" xMin="0" yMin="-25" xMax="2115" yMax="1425">
      <contour>
        <pt x="518" y="0" on="1"/>
        <pt x="16" y="0" on="1"/>
        <pt x="4" y="0" on="0"/>
        <pt x="0" y="10" on="0"/>
        <pt x="0" y="23" on="1"/>
        <pt x="0" y="45" on="0"/>
        <pt x="121" y="68" on="0"/>
        <pt x="177" y="131" on="0"/>
        <pt x="198" y="186" on="1"/>
        <pt x="750" y="1076" on="0"/>
        <pt x="844" y="1245" on="0"/>
        <pt x="864" y="1284" on="0"/>
        <pt x="864" y="1336" on="0"/>
        <pt x="808" y="1373" on="0"/>
        <pt x="769" y="1373" on="1"/>
        <pt x="661" y="1373" on="1"/>
        <pt x="658" y="1373" on="0"/>
        <pt x="648" y="1384" on="0"/>
        <pt x="648" y="1390" on="1"/>
        <pt x="648" y="1410" on="0"/>
        <pt x="666" y="1410" on="1"/>
        <pt x="713" y="1410" on="0"/>
        <pt x="760" y="1410" on="1"/>
        <pt x="1309" y="1425" on="1"/>
        <pt x="1410" y="1425" on="1"/>
        <pt x="1587" y="1413" on="0"/>
        <pt x="1826" y="1180" on="0"/>
        <pt x="1826" y="839" on="0"/>
        <pt x="1684" y="744" on="1"/>
        <pt x="1640" y="715" on="0"/>
        <pt x="1589" y="692" on="1"/>
        <pt x="1892" y="197" on="1"/>
        <pt x="1971" y="67" on="0"/>
        <pt x="2104" y="14" on="1"/>
        <pt x="2115" y="11" on="0"/>
        <pt x="2115" y="0" on="1"/>
        <pt x="2115" y="-25" on="0"/>
        <pt x="2082" y="-25" on="1"/>
        <pt x="1857" y="-25" on="0"/>
        <pt x="1724" y="146" on="1"/>
        <pt x="1695" y="184" on="0"/>
        <pt x="1666" y="231" on="1"/>
        <pt x="1410" y="633" on="1"/>
        <pt x="1407" y="636" on="0"/>
        <pt x="1405" y="637" on="1"/>
        <pt x="1169" y="648" on="1"/>
        <pt x="1161" y="648" on="1"/>
        <pt x="1146" y="648" on="0"/>
        <pt x="1146" y="634" on="1"/>
        <pt x="1146" y="173" on="1"/>
        <pt x="1146" y="118" on="0"/>
        <pt x="1208" y="64" on="0"/>
        <pt x="1284" y="54" on="1"/>
        <pt x="1304" y="51" on="0"/>
        <pt x="1362" y="40" on="0"/>
        <pt x="1383" y="40" on="0"/>
        <pt x="1383" y="32" on="1"/>
        <pt x="1383" y="8" on="1"/>
        <pt x="1383" y="0" on="0"/>
        <pt x="1375" y="0" on="1"/>
        <pt x="680" y="0" on="1"/>
        <pt x="650" y="0" on="0"/>
        <pt x="650" y="41" on="0"/>
        <pt x="726" y="47" on="0"/>
        <pt x="774" y="48" on="1"/>
        <pt x="951" y="52" on="0"/>
        <pt x="951" y="178" on="1"/>
        <pt x="951" y="623" on="1"/>
        <pt x="626" y="623" on="1"/>
        <pt x="591" y="615" on="0"/>
        <pt x="578" y="588" on="1"/>
        <pt x="576" y="583" on="0"/>
        <pt x="576" y="582" on="1"/>
        <pt x="311" y="143" on="1"/>
        <pt x="308" y="134" on="0"/>
        <pt x="308" y="116" on="1"/>
        <pt x="308" y="79" on="0"/>
        <pt x="388" y="57" on="1"/>
        <pt x="434" y="45" on="0"/>
        <pt x="512" y="41" on="1"/>
        <pt x="536" y="36" on="0"/>
        <pt x="536" y="0" on="0"/>
      </contour>
      <contour>
        <pt x="1215" y="1372" on="0"/>
        <pt x="1188" y="1371" on="0"/>
        <pt x="1146" y="1370" on="0"/>
        <pt x="1146" y="1354" on="1"/>
        <pt x="1146" y="748" on="1"/>
        <pt x="1148" y="718" on="1"/>
        <pt x="1151" y="697" on="0"/>
        <pt x="1167" y="696" on="1"/>
        <pt x="1269" y="690" on="1"/>
        <pt x="1550" y="690" on="0"/>
        <pt x="1608" y="890" on="1"/>
        <pt x="1627" y="953" on="0"/>
        <pt x="1627" y="1034" on="1"/>
        <pt x="1627" y="1192" on="0"/>
        <pt x="1430" y="1374" on="0"/>
        <pt x="1277" y="1374" on="1"/>
        <pt x="1263" y="1374" on="0"/>
        <pt x="1239" y="1373" on="0"/>
      </contour>
      <contour>
        <pt x="635" y="750" on="1"/>
        <pt x="626" y="733" on="0"/>
        <pt x="626" y="729" on="1"/>
        <pt x="626" y="716" on="0"/>
        <pt x="658" y="716" on="1"/>
        <pt x="951" y="716" on="1"/>
        <pt x="951" y="1185" on="1"/>
        <pt x="944" y="1204" on="0"/>
        <pt x="940" y="1204" on="1"/>
        <pt x="931" y="1204" on="0"/>
        <pt x="901" y="1188" on="0"/>
        <pt x="897" y="1176" on="1"/>
      </contour>
    </TTGlyph>
    <TTGlyph name="Aacute" xMin="5" yMin="0" xMax="1452" yMax="1951">
      <component glyphName="A" x="0" y="0" flags="0x1204"/>
      <component glyphName="acute" x="510" y="499" flags="0x1004"/>
    </TTGlyph>
    <TTGlyph name="Aacute.sc" xMin="23" yMin="0" xMax="1035" yMax="1327">
      <component glyphName="A.sc" x="0" y="0" flags="0x1204"/>
      <component glyphName="Acute.sc" x="120" y="0" flags="0x1004"/>
    </TTGlyph>
    <TTGlyph name="Abreve" xMin="5" yMin="0" xMax="1452" yMax="1950">
      <component glyphName="A" x="0" y="0" flags="0x1204"/>
      <component glyphName="breve" x="370" y="542" flags="0x1004"/>
    </TTGlyph>
    <TTGlyph name="Acircumflex" xMin="5" yMin="0" xMax="1452" yMax="1950">
      <component glyphName="A" x="0" y="0" flags="0x1204"/>
      <component glyphName="circumflex" x="406" y="497" flags="0x1004"/>
    </TTGlyph>
    <TTGlyph name="Acircumflex.sc" xMin="23" yMin="0" xMax="1035" yMax="1327">
      <component glyphName="A.sc" x="0" y="0" flags="0x1204"/>
      <component glyphName="Circumflex.sc" x="-11" y="0" flags="0x1004"/>
    </TTGlyph>
    <TTGlyph name="Acute" xMin="135" yMin="1640" xMax="559" yMax="1950">
      <contour>
        <pt x="135" y="1682" on="1"/>
        <pt x="135" y="1686" on="0"/>
        <pt x="139" y="1690" on="1"/>
        <pt x="421" y="1920" on="1"/>
        <pt x="458" y="1950" on="0"/>
        <pt x="522" y="1950" on="0"/>
        <pt x="559" y="1904" on="0"/>
        <pt x="559" y="1881" on="1"/>
        <pt x="559" y="1815" on="0"/>
        <pt x="479" y="1781" on="1"/>
        <pt x="163" y="1641" on="1"/>
        <pt x="162" y="1640" on="0"/>
        <pt x="152" y="1640" on="0"/>
        <pt x="150" y="1645" on="1"/>
      </contour>
    </TTGlyph>
    <TTGlyph name="Acute.sc" xMin="382" yMin="1123" xMax="667" yMax="1327">
      <contour>
        <pt x="382" y="1148" on="1"/>
        <pt x="382" y="1150" on="0"/>
        <pt x="385" y="1153" on="1"/>
        <pt x="573" y="1307" on="1"/>
        <pt x="598" y="1327" on="0"/>
        <pt x="641" y="1327" on="0"/>
        <pt x="667" y="1297" on="0"/>
        <pt x="667" y="1275" on="1"/>
        <pt x="667" y="1238" on="0"/>
        <pt x="533" y="1179" on="0"/>
        <pt x="447" y="1140" on="0"/>
        <pt x="397" y="1117" on="0"/>
        <pt x="393" y="1123" on="1"/>
      </contour>
    </TTGlyph>
    <TTGlyph name="Adieresis" xMin="5" yMin="0" xMax="1452" yMax="1917">
      <component glyphName="A" x="0" y="0" flags="0x1204"/>
      <component glyphName="dieresis" x="380" y="571" flags="0x1004"/>
    </TTGlyph>
    <TTGlyph name="Adieresis.sc" xMin="23" yMin="0" xMax="1035" yMax="1277">
      <component glyphName="A.sc" x="0" y="0" flags="0x1204"/>
      <component glyphName="Dieresis.sc" x="-9" y="0" flags="0x1004"/>
    </TTGlyph>
    <TTGlyph name="Agrave" xMin="5" yMin="0" xMax="1452" yMax="1950">
      <component glyphName="A" x="0" y="0" flags="0x1204"/>
      <component glyphName="grave" x="344" y="498" flags="0x1004"/>
    </TTGlyph>
    <TTGlyph name="Agrave.sc" xMin="23" yMin="0" xMax="1035" yMax="1327">
      <component glyphName="A.sc" x="0" y="0" flags="0x1204"/>
      <component glyphName="Gravesmall" x="-114" y="0" flags="0x1004"/>
    </TTGlyph>
    <TTGlyph name="Alpha" xMin="5" yMin="0" xMax="1452" yMax="1410">
      <component glyphName="A" x="0" y="0" flags="0x1204"/>
    </TTGlyph>
    <TTGlyph name="Alpha.01" xMin="21" yMin="0" xMax="1264" yMax="1410">
      <contour>
        <pt x="507" y="1410" on="1"/>
        <pt x="758" y="1410" on="1"/>
        <pt x="1264" y="0" on="1"/>
        <pt x="1071" y="0" on="1"/>
        <pt x="898" y="483" on="1"/>
        <pt x="358" y="483" on="1"/>
        <pt x="191" y="0" on="1"/>
        <pt x="21" y="0" on="1"/>
      </contour>
      <contour>
        <pt x="409" y="634" on="1"/>
        <pt x="843" y="634" on="1"/>
        <pt x="622" y="1251" on="1"/>
      </contour>
    </TTGlyph>
    <TTGlyph name="Alpha.01r" xMin="17" yMin="0" xMax="1261" yMax="1410">
      <component glyphName="Alpha.01" x="1282" y="0" scalex="-1.0" scaley="1.0" flags="0x1004"/>
    </TTGlyph>
    <TTGlyph name="Alpha.02" xMin="21" yMin="0" xMax="1264" yMax="1410">
      <contour>
        <pt x="507" y="1410" on="1"/>
        <pt x="758" y="1410" on="1"/>
        <pt x="1264" y="0" on="1"/>
        <pt x="1071" y="0" on="1"/>
        <pt x="898" y="483" on="1"/>
        <pt x="628" y="173" on="1"/>
        <pt x="358" y="483" on="1"/>
        <pt x="191" y="0" on="1"/>
        <pt x="21" y="0" on="1"/>
      </contour>
      <contour>
        <pt x="409" y="634" on="1"/>
        <pt x="628" y="382" on="1"/>
        <pt x="843" y="634" on="1"/>
        <pt x="622" y="1251" on="1"/>
      </contour>
    </TTGlyph>
    <TTGlyph name="Alpha.02r" xMin="20" yMin="0" xMax="1264" yMax="1410">
      <component glyphName="Alpha.02" x="1285" y="0" scalex="-1.0" scaley="1.0" flags="0x1004"/>
    </TTGlyph>
    <TTGlyph name="Alpha.03" xMin="21" yMin="0" xMax="1268" yMax="1410">
      <contour>
        <pt x="21" y="0" on="1"/>
        <pt x="508" y="1410" on="1"/>
        <pt x="754" y="1410" on="1"/>
        <pt x="1268" y="0" on="1"/>
        <pt x="1075" y="0" on="1"/>
        <pt x="371" y="521" on="1"/>
        <pt x="191" y="0" on="1"/>
      </contour>
      <contour>
        <pt x="430" y="677" on="1"/>
        <pt x="977" y="268" on="1"/>
        <pt x="622" y="1250" on="1"/>
        <pt x="404" y="618" on="1"/>
      </contour>
    </TTGlyph>
    <TTGlyph name="Alpha.03r" xMin="20" yMin="0" xMax="1268" yMax="1410">
      <component glyphName="Alpha.03" x="1289" y="0" scalex="-1.0" scaley="1.0" flags="0x1004"/>
    </TTGlyph>
    <TTGlyph name="Alpha.04" xMin="21" yMin="0" xMax="1268" yMax="1410">
      <contour>
        <pt x="491" y="0" on="1"/>
        <pt x="776" y="825" on="1"/>
        <pt x="622" y="1250" on="1"/>
        <pt x="191" y="0" on="1"/>
        <pt x="21" y="0" on="1"/>
        <pt x="508" y="1410" on="1"/>
        <pt x="754" y="1410" on="1"/>
        <pt x="1268" y="0" on="1"/>
        <pt x="1075" y="0" on="1"/>
        <pt x="862" y="586" on="1"/>
        <pt x="661" y="0" on="1"/>
      </contour>
    </TTGlyph>
    <TTGlyph name="Alpha.04r" xMin="20" yMin="0" xMax="1268" yMax="1410">
      <component glyphName="Alpha.04" x="1289" y="0" scalex="-1.0" scaley="1.0" flags="0x1004"/>
    </TTGlyph>
    <TTGlyph name="Alpha.05" xMin="186" yMin="0" xMax="1263" yMax="1410">
      <contour>
        <pt x="506" y="1410" on="1"/>
        <pt x="757" y="1410" on="1"/>
        <pt x="1263" y="0" on="1"/>
        <pt x="1070" y="0" on="1"/>
        <pt x="897" y="483" on="1"/>
        <pt x="186" y="483" on="1"/>
      </contour>
      <contour>
        <pt x="408" y="634" on="1"/>
        <pt x="842" y="634" on="1"/>
        <pt x="621" y="1251" on="1"/>
      </contour>
    </TTGlyph>
    <TTGlyph name="Alpha.05r" xMin="19" yMin="0" xMax="1097" yMax="1410">
      <component glyphName="Alpha.05" x="1283" y="0" scalex="-1.0" scaley="1.0" flags="0x1004"/>
    </TTGlyph>
    <TTGlyph name="Alpha.06" xMin="160" yMin="0" xMax="1270" yMax="1411">
      <contour>
        <pt x="1075" y="0" on="1"/>
        <pt x="1075" y="142" on="1"/>
        <pt x="355" y="634" on="1"/>
        <pt x="355" y="0" on="1"/>
        <pt x="160" y="0" on="1"/>
        <pt x="160" y="848" on="1"/>
        <pt x="160" y="1097" on="0"/>
        <pt x="439" y="1411" on="0"/>
        <pt x="992" y="1411" on="0"/>
        <pt x="1270" y="1096" on="0"/>
        <pt x="1270" y="848" on="1"/>
        <pt x="1270" y="0" on="1"/>
      </contour>
      <contour>
        <pt x="1075" y="848" on="1"/>
        <pt x="1075" y="1109" on="0"/>
        <pt x="876" y="1189" on="1"/>
        <pt x="808" y="1216" on="0"/>
        <pt x="716" y="1216" on="1"/>
        <pt x="538" y="1216" on="0"/>
        <pt x="355" y="1017" on="0"/>
        <pt x="355" y="848" on="1"/>
        <pt x="355" y="823" on="1"/>
        <pt x="1075" y="333" on="1"/>
      </contour>
    </TTGlyph>
    <TTGlyph name="Alpha.06r" xMin="159" yMin="0" xMax="1270" yMax="1411">
      <component glyphName="Alpha.06" x="1430" y="0" scalex="-1.0" scaley="1.0" flags="0x1004"/>
    </TTGlyph>
    <TTGlyph name="Alpha.07" xMin="160" yMin="0" xMax="1270" yMax="1411">
      <contour>
        <pt x="160" y="0" on="1"/>
        <pt x="160" y="1021" on="1"/>
        <pt x="1075" y="1411" on="1"/>
        <pt x="1270" y="1411" on="1"/>
        <pt x="1270" y="0" on="1"/>
        <pt x="1075" y="0" on="1"/>
        <pt x="1075" y="634" on="1"/>
        <pt x="355" y="327" on="1"/>
        <pt x="355" y="0" on="1"/>
      </contour>
      <contour>
        <pt x="355" y="518" on="1"/>
        <pt x="1075" y="823" on="1"/>
        <pt x="1075" y="1178" on="1"/>
        <pt x="355" y="874" on="1"/>
      </contour>
    </TTGlyph>
    <TTGlyph name="Alpha.07r" xMin="159" yMin="0" xMax="1270" yMax="1411">
      <component glyphName="Alpha.07" x="1430" y="0" scalex="-1.0" scaley="1.0" flags="0x1004"/>
    </TTGlyph>
    <TTGlyph name="Alpha.08" xMin="110" yMin="0" xMax="1260" yMax="1411">
      <contour>
        <pt x="1065" y="0" on="1"/>
        <pt x="1065" y="284" on="1"/>
        <pt x="394" y="636" on="1"/>
        <pt x="305" y="0" on="1"/>
        <pt x="110" y="0" on="1"/>
        <pt x="310" y="1411" on="1"/>
        <pt x="505" y="1411" on="1"/>
        <pt x="1260" y="1003" on="1"/>
        <pt x="1260" y="0" on="1"/>
      </contour>
      <contour>
        <pt x="1065" y="899" on="1"/>
        <pt x="476" y="1218" on="1"/>
        <pt x="421" y="823" on="1"/>
        <pt x="1065" y="475" on="1"/>
      </contour>
    </TTGlyph>
    <TTGlyph name="Alpha.08r" xMin="109" yMin="0" xMax="1260" yMax="1411">
      <component glyphName="Alpha.08" x="1370" y="0" scalex="-1.0" scaley="1.0" flags="0x1004"/>
    </TTGlyph>
    <TTGlyph name="Alphatonos" xMin="5" yMin="0" xMax="1452" yMax="1453">
      <component glyphName="A" x="0" y="0" flags="0x1004"/>
      <component glyphName="tonos" x="-129" y="-69" flags="0x1004"/>
    </TTGlyph>
    <TTGlyph name="Amacron" xMin="5" yMin="0" xMax="1452" yMax="1864">
      <component glyphName="A" x="0" y="0" flags="0x1204"/>
      <component glyphName="macron" x="370" y="542" flags="0x1004"/>
    </TTGlyph>
    <TTGlyph name="Amacron.sc" xMin="23" yMin="0" xMax="1035" yMax="1240">
      <component glyphName="A.sc" x="0" y="0" flags="0x1204"/>
      <component glyphName="Macron.sc" x="-9" y="0" flags="0x1004"/>
    </TTGlyph>
    <TTGlyph name="Aogonek" xMin="5" yMin="-532" xMax="1452" yMax="1410">
      <component glyphName="A" x="0" y="0" flags="0x1204"/>
      <component glyphName="ogonek" x="870" y="0" flags="0x1004"/>
    </TTGlyph>
    <TTGlyph name="Aring" xMin="5" yMin="0" xMax="1452" yMax="1984">
      <component glyphName="A" x="0" y="0" flags="0x1204"/>
      <component glyphName="ring" x="370" y="537" flags="0x1004"/>
    </TTGlyph>
    <TTGlyph name="Aring.sc" xMin="23" yMin="0" xMax="1035" yMax="1327">
      <component glyphName="A.sc" x="0" y="0" flags="0x1204"/>
      <component glyphName="Ring.sc" x="-4" y="0" flags="0x1004"/>
    </TTGlyph>
    <TTGlyph name="Aringacute" xMin="5" yMin="0" xMax="1452" yMax="2028">
      <contour>
        <pt x="608" y="1814" on="1"/>
        <pt x="608" y="1817" on="0"/>
        <pt x="611" y="1820" on="1"/>
        <pt x="837" y="2004" on="1"/>
        <pt x="865" y="2028" on="0"/>
        <pt x="917" y="2028" on="0"/>
        <pt x="947" y="1991" on="0"/>
        <pt x="947" y="1966" on="1"/>
        <pt x="947" y="1921" on="0"/>
        <pt x="883" y="1893" on="1"/>
        <pt x="630" y="1781" on="1"/>
        <pt x="630" y="1780" on="0"/>
        <pt x="622" y="1780" on="0"/>
        <pt x="620" y="1784" on="1"/>
      </contour>
      <contour>
        <pt x="563" y="1600" on="1"/>
        <pt x="563" y="1660" on="0"/>
        <pt x="648" y="1748" on="0"/>
        <pt x="710" y="1748" on="1"/>
        <pt x="770" y="1748" on="0"/>
        <pt x="857" y="1661" on="0"/>
        <pt x="857" y="1600" on="1"/>
        <pt x="857" y="1538" on="0"/>
        <pt x="769" y="1453" on="0"/>
        <pt x="710" y="1453" on="1"/>
        <pt x="649" y="1453" on="0"/>
        <pt x="563" y="1539" on="0"/>
      </contour>
      <contour>
        <pt x="718" y="1692" on="1"/>
        <pt x="649" y="1692" on="0"/>
        <pt x="626" y="1635" on="1"/>
        <pt x="619" y="1618" on="0"/>
        <pt x="619" y="1562" on="0"/>
        <pt x="671" y="1509" on="0"/>
        <pt x="747" y="1509" on="0"/>
        <pt x="801" y="1563" on="0"/>
        <pt x="801" y="1637" on="0"/>
        <pt x="746" y="1692" on="0"/>
      </contour>
      <contour>
        <pt x="532" y="8" on="1"/>
        <pt x="532" y="0" on="0"/>
        <pt x="524" y="0" on="1"/>
        <pt x="13" y="0" on="1"/>
        <pt x="5" y="0" on="0"/>
        <pt x="5" y="8" on="1"/>
        <pt x="5" y="32" on="1"/>
        <pt x="5" y="40" on="0"/>
        <pt x="18" y="40" on="1"/>
        <pt x="155" y="46" on="0"/>
        <pt x="203" y="186" on="1"/>
        <pt x="611" y="1367" on="1"/>
        <pt x="612" y="1369" on="0"/>
        <pt x="612" y="1372" on="1"/>
        <pt x="601" y="1405" on="1"/>
        <pt x="601" y="1410" on="0"/>
        <pt x="605" y="1410" on="1"/>
        <pt x="805" y="1410" on="1"/>
        <pt x="807" y="1409" on="0"/>
        <pt x="814" y="1407" on="0"/>
        <pt x="816" y="1402" on="1"/>
        <pt x="1239" y="215" on="1"/>
        <pt x="1253" y="188" on="0"/>
        <pt x="1270" y="144" on="0"/>
        <pt x="1281" y="126" on="1"/>
        <pt x="1305" y="85" on="0"/>
        <pt x="1360" y="63" on="1"/>
        <pt x="1406" y="40" on="0"/>
        <pt x="1444" y="40" on="1"/>
        <pt x="1452" y="40" on="0"/>
        <pt x="1452" y="31" on="1"/>
        <pt x="1452" y="8" on="1"/>
        <pt x="1452" y="0" on="0"/>
        <pt x="1444" y="0" on="1"/>
        <pt x="832" y="0" on="1"/>
        <pt x="824" y="0" on="0"/>
        <pt x="824" y="8" on="1"/>
        <pt x="824" y="32" on="1"/>
        <pt x="824" y="40" on="0"/>
        <pt x="898" y="44" on="0"/>
        <pt x="922" y="46" on="1"/>
        <pt x="1061" y="61" on="0"/>
        <pt x="1061" y="140" on="1"/>
        <pt x="1061" y="146" on="0"/>
        <pt x="1059" y="154" on="1"/>
        <pt x="908" y="580" on="1"/>
        <pt x="907" y="582" on="0"/>
        <pt x="904" y="589" on="1"/>
        <pt x="892" y="623" on="0"/>
        <pt x="862" y="623" on="1"/>
        <pt x="507" y="623" on="1"/>
        <pt x="477" y="623" on="0"/>
        <pt x="460" y="590" on="1"/>
        <pt x="457" y="583" on="0"/>
        <pt x="457" y="582" on="1"/>
        <pt x="307" y="143" on="1"/>
        <pt x="307" y="134" on="1"/>
        <pt x="307" y="108" on="0"/>
        <pt x="334" y="87" on="1"/>
        <pt x="395" y="40" on="0"/>
        <pt x="498" y="40" on="1"/>
        <pt x="524" y="40" on="1"/>
        <pt x="532" y="40" on="0"/>
        <pt x="532" y="32" on="1"/>
      </contour>
      <contour>
        <pt x="828" y="734" on="1"/>
        <pt x="846" y="734" on="0"/>
        <pt x="846" y="749" on="1"/>
        <pt x="846" y="757" on="0"/>
        <pt x="842" y="767" on="1"/>
        <pt x="693" y="1177" on="1"/>
        <pt x="683" y="1204" on="0"/>
        <pt x="678" y="1204" on="1"/>
        <pt x="673" y="1204" on="0"/>
        <pt x="662" y="1176" on="1"/>
        <pt x="522" y="767" on="1"/>
        <pt x="518" y="757" on="0"/>
        <pt x="518" y="734" on="0"/>
        <pt x="533" y="734" on="1"/>
      </contour>
    </TTGlyph>
    <TTGlyph name="Atilde" xMin="5" yMin="0" xMax="1452" yMax="1928">
      <component glyphName="A" x="0" y="0" flags="0x1204"/>
      <component glyphName="tilde" x="395" y="560" flags="0x1004"/>
    </TTGlyph>
    <TTGlyph name="Atilde.sc" xMin="23" yMin="0" xMax="1035" yMax="1327">
      <component glyphName="A.sc" x="0" y="0" flags="0x1204"/>
      <component glyphName="Tilde.sc" x="-14" y="0" flags="0x1004"/>
    </TTGlyph>
    <TTGlyph name="B" xMin="10" yMin="0" xMax="1287" yMax="1428">
      <contour>
        <pt x="18" y="0" on="1"/>
        <pt x="10" y="0" on="0"/>
        <pt x="10" y="8" on="1"/>
        <pt x="10" y="32" on="1"/>
        <pt x="10" y="40" on="0"/>
        <pt x="24" y="40" on="1"/>
        <pt x="71" y="40" on="0"/>
        <pt x="128" y="50" on="1"/>
        <pt x="311" y="81" on="0"/>
        <pt x="311" y="176" on="1"/>
        <pt x="311" y="1231" on="1"/>
        <pt x="301" y="1359" on="0"/>
        <pt x="194" y="1370" on="1"/>
        <pt x="162" y="1374" on="0"/>
        <pt x="123" y="1374" on="1"/>
        <pt x="66" y="1374" on="1"/>
        <pt x="58" y="1374" on="0"/>
        <pt x="58" y="1382" on="1"/>
        <pt x="58" y="1407" on="1"/>
        <pt x="58" y="1415" on="0"/>
        <pt x="66" y="1415" on="1"/>
        <pt x="110" y="1416" on="1"/>
        <pt x="282" y="1417" on="1"/>
        <pt x="638" y="1428" on="1"/>
        <pt x="1210" y="1428" on="0"/>
        <pt x="1210" y="1090" on="1"/>
        <pt x="1210" y="947" on="0"/>
        <pt x="1062" y="852" on="1"/>
        <pt x="1039" y="837" on="0"/>
        <pt x="1006" y="823" on="0"/>
        <pt x="1004" y="822" on="1"/>
        <pt x="1136" y="748" on="0"/>
        <pt x="1287" y="564" on="0"/>
        <pt x="1287" y="436" on="1"/>
        <pt x="1287" y="163" on="0"/>
        <pt x="1029" y="56" on="1"/>
        <pt x="896" y="0" on="0"/>
        <pt x="740" y="0" on="1"/>
      </contour>
      <contour>
        <pt x="524" y="780" on="1"/>
        <pt x="511" y="780" on="0"/>
        <pt x="511" y="769" on="1"/>
        <pt x="511" y="221" on="1"/>
        <pt x="511" y="150" on="0"/>
        <pt x="644" y="64" on="0"/>
        <pt x="721" y="64" on="1"/>
        <pt x="869" y="64" on="0"/>
        <pt x="1077" y="275" on="0"/>
        <pt x="1077" y="584" on="0"/>
        <pt x="854" y="780" on="0"/>
        <pt x="683" y="780" on="1"/>
      </contour>
      <contour>
        <pt x="509" y="861" on="1"/>
        <pt x="509" y="842" on="0"/>
        <pt x="532" y="842" on="1"/>
        <pt x="778" y="842" on="1"/>
        <pt x="874" y="842" on="0"/>
        <pt x="1005" y="984" on="0"/>
        <pt x="1005" y="1072" on="1"/>
        <pt x="1005" y="1229" on="0"/>
        <pt x="827" y="1370" on="0"/>
        <pt x="679" y="1370" on="1"/>
        <pt x="634" y="1367" on="0"/>
        <pt x="599" y="1367" on="0"/>
        <pt x="561" y="1368" on="0"/>
        <pt x="523" y="1362" on="0"/>
        <pt x="509" y="1342" on="0"/>
        <pt x="509" y="1319" on="1"/>
      </contour>
    </TTGlyph>
    <TTGlyph name="B.sc" xMin="26" yMin="0" xMax="944" yMax="972">
      <contour>
        <pt x="32" y="0" on="1"/>
        <pt x="26" y="0" on="0"/>
        <pt x="26" y="5" on="1"/>
        <pt x="26" y="42" on="1"/>
        <pt x="26" y="48" on="0"/>
        <pt x="93" y="48" on="0"/>
        <pt x="149" y="64" on="1"/>
        <pt x="228" y="88" on="0"/>
        <pt x="228" y="139" on="1"/>
        <pt x="228" y="814" on="1"/>
        <pt x="220" y="902" on="0"/>
        <pt x="150" y="908" on="1"/>
        <pt x="128" y="910" on="0"/>
        <pt x="102" y="910" on="1"/>
        <pt x="64" y="910" on="1"/>
        <pt x="59" y="910" on="0"/>
        <pt x="59" y="916" on="1"/>
        <pt x="59" y="959" on="1"/>
        <pt x="59" y="964" on="0"/>
        <pt x="62" y="964" on="1"/>
        <pt x="72" y="964" on="1"/>
        <pt x="137" y="965" on="1"/>
        <pt x="209" y="965" on="1"/>
        <pt x="509" y="972" on="1"/>
        <pt x="798" y="972" on="0"/>
        <pt x="874" y="819" on="1"/>
        <pt x="893" y="781" on="0"/>
        <pt x="893" y="683" on="0"/>
        <pt x="851" y="616" on="0"/>
        <pt x="800" y="572" on="0"/>
        <pt x="757" y="551" on="0"/>
        <pt x="755" y="550" on="1"/>
        <pt x="944" y="446" on="0"/>
        <pt x="944" y="292" on="1"/>
        <pt x="944" y="104" on="0"/>
        <pt x="782" y="37" on="1"/>
        <pt x="706" y="5" on="0"/>
        <pt x="592" y="0" on="0"/>
        <pt x="578" y="0" on="1"/>
      </contour>
      <contour>
        <pt x="401" y="512" on="1"/>
        <pt x="393" y="512" on="0"/>
        <pt x="393" y="505" on="1"/>
        <pt x="393" y="169" on="1"/>
        <pt x="393" y="121" on="0"/>
        <pt x="481" y="64" on="0"/>
        <pt x="533" y="64" on="1"/>
        <pt x="635" y="64" on="0"/>
        <pt x="772" y="186" on="0"/>
        <pt x="772" y="390" on="0"/>
        <pt x="625" y="512" on="0"/>
        <pt x="508" y="512" on="1"/>
      </contour>
      <contour>
        <pt x="392" y="587" on="1"/>
        <pt x="392" y="574" on="0"/>
        <pt x="406" y="574" on="1"/>
        <pt x="571" y="574" on="1"/>
        <pt x="674" y="574" on="0"/>
        <pt x="712" y="665" on="1"/>
        <pt x="723" y="693" on="0"/>
        <pt x="723" y="735" on="1"/>
        <pt x="723" y="823" on="0"/>
        <pt x="606" y="918" on="0"/>
        <pt x="505" y="918" on="1"/>
        <pt x="470" y="916" on="0"/>
        <pt x="427" y="916" on="0"/>
        <pt x="392" y="911" on="0"/>
        <pt x="392" y="884" on="1"/>
      </contour>
    </TTGlyph>
    <TTGlyph name="B.tall" xMin="1" yMin="0" xMax="1278" yMax="1899">
      <contour>
        <pt x="9" y="0" on="1"/>
        <pt x="1" y="0" on="0"/>
        <pt x="1" y="11" on="1"/>
        <pt x="1" y="43" on="1"/>
        <pt x="1" y="53" on="0"/>
        <pt x="14" y="53" on="1"/>
        <pt x="58" y="53" on="0"/>
        <pt x="196" y="83" on="0"/>
        <pt x="302" y="164" on="0"/>
        <pt x="302" y="234" on="1"/>
        <pt x="302" y="1637" on="1"/>
        <pt x="292" y="1808" on="0"/>
        <pt x="186" y="1822" on="1"/>
        <pt x="153" y="1827" on="0"/>
        <pt x="114" y="1827" on="1"/>
        <pt x="57" y="1827" on="1"/>
        <pt x="49" y="1827" on="0"/>
        <pt x="49" y="1838" on="1"/>
        <pt x="49" y="1871" on="1"/>
        <pt x="49" y="1882" on="0"/>
        <pt x="57" y="1882" on="1"/>
        <pt x="101" y="1883" on="1"/>
        <pt x="273" y="1884" on="1"/>
        <pt x="629" y="1899" on="1"/>
        <pt x="1068" y="1899" on="0"/>
        <pt x="1173" y="1625" on="1"/>
        <pt x="1201" y="1552" on="0"/>
        <pt x="1201" y="1470" on="1"/>
        <pt x="1201" y="1339" on="0"/>
        <pt x="1114" y="1185" on="0"/>
        <pt x="1023" y="1107" on="0"/>
        <pt x="995" y="1093" on="1"/>
        <pt x="1278" y="884" on="0"/>
        <pt x="1278" y="580" on="1"/>
        <pt x="1278" y="218" on="0"/>
        <pt x="1020" y="74" on="1"/>
        <pt x="889" y="0" on="0"/>
        <pt x="731" y="0" on="1"/>
      </contour>
      <contour>
        <pt x="515" y="1037" on="1"/>
        <pt x="502" y="1037" on="0"/>
        <pt x="502" y="1023" on="1"/>
        <pt x="502" y="294" on="1"/>
        <pt x="502" y="198" on="0"/>
        <pt x="636" y="85" on="0"/>
        <pt x="713" y="85" on="1"/>
        <pt x="859" y="85" on="0"/>
        <pt x="1068" y="365" on="0"/>
        <pt x="1068" y="777" on="0"/>
        <pt x="845" y="1037" on="0"/>
        <pt x="674" y="1037" on="1"/>
      </contour>
      <contour>
        <pt x="500" y="1145" on="1"/>
        <pt x="500" y="1120" on="0"/>
        <pt x="523" y="1120" on="1"/>
        <pt x="769" y="1120" on="1"/>
        <pt x="865" y="1120" on="0"/>
        <pt x="996" y="1307" on="0"/>
        <pt x="996" y="1424" on="1"/>
        <pt x="996" y="1634" on="0"/>
        <pt x="820" y="1822" on="0"/>
        <pt x="670" y="1822" on="1"/>
        <pt x="624" y="1818" on="0"/>
        <pt x="589" y="1818" on="0"/>
        <pt x="552" y="1819" on="0"/>
        <pt x="514" y="1811" on="0"/>
        <pt x="500" y="1785" on="0"/>
        <pt x="500" y="1754" on="1"/>
      </contour>
    </TTGlyph>
    <TTGlyph name="Beta" xMin="10" yMin="0" xMax="1287" yMax="1428">
      <component glyphName="B" x="0" y="0" flags="0x1204"/>
    </TTGlyph>
    <TTGlyph name="Beta.01" xMin="160" yMin="0" xMax="1116" yMax="1410">
      <contour>
        <pt x="160" y="1410" on="1"/>
        <pt x="599" y="1410" on="1"/>
        <pt x="906" y="1410" on="0"/>
        <pt x="1004" y="1211" on="1"/>
        <pt x="1036" y="1145" on="0"/>
        <pt x="1036" y="955" on="0"/>
        <pt x="939" y="796" on="0"/>
        <pt x="854" y="748" on="1"/>
        <pt x="882" y="729" on="0"/>
        <pt x="912" y="712" on="1"/>
        <pt x="1031" y="643" on="0"/>
        <pt x="1116" y="510" on="0"/>
        <pt x="1116" y="403" on="1"/>
        <pt x="1116" y="201" on="0"/>
        <pt x="953" y="92" on="1"/>
        <pt x="816" y="0" on="0"/>
        <pt x="599" y="0" on="1"/>
        <pt x="160" y="0" on="1"/>
      </contour>
      <contour>
        <pt x="355" y="686" on="1"/>
        <pt x="355" y="156" on="1"/>
        <pt x="478" y="156" on="1"/>
        <pt x="686" y="156" on="0"/>
        <pt x="844" y="214" on="0"/>
        <pt x="921" y="306" on="0"/>
        <pt x="921" y="396" on="1"/>
        <pt x="921" y="564" on="0"/>
        <pt x="782" y="634" on="1"/>
        <pt x="679" y="686" on="0"/>
        <pt x="478" y="686" on="1"/>
      </contour>
      <contour>
        <pt x="478" y="842" on="1"/>
        <pt x="666" y="842" on="0"/>
        <pt x="789" y="908" on="0"/>
        <pt x="841" y="1002" on="0"/>
        <pt x="841" y="1144" on="0"/>
        <pt x="789" y="1213" on="0"/>
        <pt x="674" y="1254" on="0"/>
        <pt x="478" y="1254" on="1"/>
        <pt x="355" y="1254" on="1"/>
        <pt x="355" y="842" on="1"/>
      </contour>
    </TTGlyph>
    <TTGlyph name="Beta.01r" xMin="79" yMin="0" xMax="1036" yMax="1410">
      <component glyphName="Beta.01" x="1196" y="0" scalex="-1.0" scaley="1.0" flags="0x1004"/>
    </TTGlyph>
    <TTGlyph name="Beta.02" xMin="160" yMin="-1" xMax="1100" yMax="1411">
      <contour>
        <pt x="1100" y="506" on="1"/>
        <pt x="1100" y="316" on="1"/>
        <pt x="355" y="-1" on="1"/>
        <pt x="160" y="-1" on="1"/>
        <pt x="160" y="1411" on="1"/>
        <pt x="355" y="1411" on="1"/>
        <pt x="1100" y="1093" on="1"/>
        <pt x="1100" y="901" on="1"/>
        <pt x="634" y="703" on="1"/>
      </contour>
      <contour>
        <pt x="853" y="423" on="1"/>
        <pt x="355" y="633" on="1"/>
        <pt x="355" y="212" on="1"/>
      </contour>
      <contour>
        <pt x="355" y="743" on="1"/>
        <pt x="895" y="969" on="1"/>
        <pt x="355" y="1198" on="1"/>
      </contour>
    </TTGlyph>
    <TTGlyph name="Beta.02r" xMin="159" yMin="-1" xMax="1100" yMax="1411">
      <component glyphName="Beta.02" x="1260" y="0" scalex="-1.0" scaley="1.0" flags="0x1004"/>
    </TTGlyph>
    <TTGlyph name="Beta.04" xMin="100" yMin="0" xMax="1435" yMax="1410">
      <contour>
        <pt x="865" y="0" on="1"/>
        <pt x="100" y="0" on="1"/>
        <pt x="100" y="480" on="1"/>
        <pt x="295" y="480" on="1"/>
        <pt x="295" y="175" on="1"/>
        <pt x="670" y="175" on="1"/>
        <pt x="670" y="1410" on="1"/>
        <pt x="1435" y="1410" on="1"/>
        <pt x="1435" y="930" on="1"/>
        <pt x="1240" y="930" on="1"/>
        <pt x="1240" y="1235" on="1"/>
        <pt x="865" y="1235" on="1"/>
      </contour>
    </TTGlyph>
    <TTGlyph name="Beta.04r" xMin="99" yMin="0" xMax="1435" yMax="1410">
      <component glyphName="Beta.04" x="1535" y="0" scalex="-1.0" scaley="1.0" flags="0x1004"/>
    </TTGlyph>
    <TTGlyph name="Beta.05" xMin="100" yMin="0" xMax="1541" yMax="1410">
      <contour>
        <pt x="298" y="1410" on="1"/>
        <pt x="776" y="213" on="1"/>
        <pt x="776" y="1410" on="1"/>
        <pt x="1541" y="1410" on="1"/>
        <pt x="1541" y="930" on="1"/>
        <pt x="1346" y="930" on="1"/>
        <pt x="1346" y="1235" on="1"/>
        <pt x="971" y="1235" on="1"/>
        <pt x="971" y="0" on="1"/>
        <pt x="663" y="0" on="1"/>
        <pt x="100" y="1410" on="1"/>
      </contour>
    </TTGlyph>
    <TTGlyph name="Beta.05r" xMin="99" yMin="0" xMax="1541" yMax="1410">
      <component glyphName="Beta.05" x="1641" y="0" scalex="-1.0" scaley="1.0" flags="0x1004"/>
    </TTGlyph>
    <TTGlyph name="Beta.06" xMin="69" yMin="0" xMax="1332" yMax="1410">
      <component glyphName="u1030D" x="1492" y="0" scalex="-1.0" scaley="1.0" flags="0x1004"/>
    </TTGlyph>
    <TTGlyph name="Beta.06r" xMin="160" yMin="0" xMax="1422" yMax="1410">
      <contour>
        <pt x="160" y="1410" on="1"/>
        <pt x="356" y="1410" on="1"/>
        <pt x="858" y="885" on="1"/>
        <pt x="1322" y="1410" on="1"/>
        <pt x="1422" y="1312" on="1"/>
        <pt x="858" y="689" on="1"/>
        <pt x="356" y="1192" on="1"/>
        <pt x="356" y="0" on="1"/>
        <pt x="160" y="0" on="1"/>
      </contour>
    </TTGlyph>
    <TTGlyph name="Beta.11" xMin="60" yMin="0" xMax="1882" yMax="1410">
      <contour>
        <pt x="767" y="816" on="1"/>
        <pt x="767" y="1410" on="1"/>
        <pt x="1882" y="1410" on="1"/>
        <pt x="1882" y="830" on="1"/>
        <pt x="1687" y="830" on="1"/>
        <pt x="1687" y="1235" on="1"/>
        <pt x="961" y="1235" on="1"/>
        <pt x="961" y="0" on="1"/>
        <pt x="767" y="0" on="1"/>
        <pt x="767" y="590" on="1"/>
        <pt x="60" y="1297" on="1"/>
        <pt x="173" y="1410" on="1"/>
      </contour>
    </TTGlyph>
    <TTGlyph name="Beta.11r" xMin="109" yMin="0" xMax="1932" yMax="1410">
      <component glyphName="Beta.11" x="1992" y="0" scalex="-1.0" scaley="1.0" flags="0x1004"/>
    </TTGlyph>
    <TTGlyph name="Breve.sc" xMin="343" yMin="1101" xMax="707" yMax="1310">
      <contour>
        <pt x="451" y="1101" on="0"/>
        <pt x="343" y="1226" on="0"/>
        <pt x="343" y="1310" on="1"/>
        <pt x="364" y="1310" on="1"/>
        <pt x="364" y="1256" on="0"/>
        <pt x="469" y="1181" on="0"/>
        <pt x="526" y="1181" on="1"/>
        <pt x="577" y="1181" on="0"/>
        <pt x="685" y="1271" on="0"/>
        <pt x="685" y="1310" on="1"/>
        <pt x="707" y="1310" on="1"/>
        <pt x="707" y="1233" on="0"/>
        <pt x="597" y="1101" on="0"/>
      </contour>
    </TTGlyph>
    <TTGlyph name="C" xMin="105" yMin="-27" xMax="1489" yMax="1452">
      <contour>
        <pt x="1345" y="38" on="1"/>
        <pt x="1340" y="30" on="0"/>
        <pt x="1301" y="39" on="0"/>
        <pt x="1249" y="39" on="0"/>
        <pt x="1154" y="18" on="0"/>
        <pt x="950" y="-27" on="0"/>
        <pt x="866" y="-27" on="1"/>
        <pt x="676" y="-27" on="0"/>
        <pt x="319" y="152" on="0"/>
        <pt x="105" y="481" on="0"/>
        <pt x="105" y="915" on="0"/>
        <pt x="212" y="1091" on="1"/>
        <pt x="368" y="1349" on="0"/>
        <pt x="682" y="1427" on="1"/>
        <pt x="782" y="1452" on="0"/>
        <pt x="882" y="1452" on="1"/>
        <pt x="1019" y="1452" on="0"/>
        <pt x="1207" y="1406" on="1"/>
        <pt x="1264" y="1392" on="0"/>
        <pt x="1343" y="1362" on="0"/>
        <pt x="1352" y="1362" on="1"/>
        <pt x="1382" y="1370" on="1"/>
        <pt x="1413" y="1370" on="1"/>
        <pt x="1425" y="1370" on="0"/>
        <pt x="1425" y="1353" on="1"/>
        <pt x="1425" y="1042" on="1"/>
        <pt x="1425" y="1032" on="0"/>
        <pt x="1389" y="1032" on="0"/>
        <pt x="1383" y="1041" on="0"/>
        <pt x="1377" y="1054" on="0"/>
        <pt x="1370" y="1068" on="0"/>
        <pt x="1363" y="1080" on="0"/>
        <pt x="1362" y="1083" on="1"/>
        <pt x="1212" y="1384" on="0"/>
        <pt x="907" y="1384" on="1"/>
        <pt x="632" y="1384" on="0"/>
        <pt x="322" y="1034" on="0"/>
        <pt x="322" y="457" on="0"/>
        <pt x="663" y="43" on="0"/>
        <pt x="956" y="43" on="1"/>
        <pt x="1116" y="43" on="0"/>
        <pt x="1379" y="233" on="0"/>
        <pt x="1454" y="371" on="1"/>
        <pt x="1456" y="377" on="0"/>
        <pt x="1466" y="377" on="1"/>
        <pt x="1479" y="377" on="1"/>
        <pt x="1489" y="377" on="0"/>
        <pt x="1489" y="353" on="0"/>
        <pt x="1483" y="342" on="1"/>
      </contour>
    </TTGlyph>
    <TTGlyph name="C.ins" xMin="7" yMin="0" xMax="1176" yMax="1410">
      <contour>
        <pt x="7" y="8" on="1"/>
        <pt x="7" y="36" on="1"/>
        <pt x="7" y="44" on="0"/>
        <pt x="15" y="44" on="1"/>
        <pt x="37" y="44" on="1"/>
        <pt x="79" y="47" on="0"/>
        <pt x="167" y="48" on="0"/>
        <pt x="203" y="58" on="1"/>
        <pt x="285" y="82" on="0"/>
        <pt x="285" y="178" on="1"/>
        <pt x="285" y="1232" on="1"/>
        <pt x="285" y="1331" on="0"/>
        <pt x="168" y="1358" on="1"/>
        <pt x="135" y="1365" on="0"/>
        <pt x="101" y="1370" on="1"/>
        <pt x="80" y="1370" on="1"/>
        <pt x="72" y="1370" on="0"/>
        <pt x="72" y="1378" on="1"/>
        <pt x="72" y="1402" on="1"/>
        <pt x="72" y="1410" on="0"/>
        <pt x="80" y="1410" on="1"/>
        <pt x="1091" y="1410" on="1"/>
        <pt x="1109" y="1410" on="0"/>
        <pt x="1125" y="1397" on="0"/>
        <pt x="1127" y="1375" on="1"/>
        <pt x="1145" y="1085" on="1"/>
        <pt x="1145" y="1075" on="0"/>
        <pt x="1115" y="1075" on="0"/>
        <pt x="1108" y="1084" on="1"/>
        <pt x="1102" y="1094" on="0"/>
        <pt x="1083" y="1220" on="0"/>
        <pt x="1033" y="1304" on="0"/>
        <pt x="970" y="1315" on="1"/>
        <pt x="493" y="1315" on="1"/>
        <pt x="480" y="1315" on="0"/>
        <pt x="480" y="1302" on="1"/>
        <pt x="480" y="183" on="1"/>
        <pt x="480" y="108" on="0"/>
        <pt x="549" y="98" on="1"/>
        <pt x="569" y="95" on="0"/>
        <pt x="591" y="95" on="1"/>
        <pt x="924" y="95" on="1"/>
        <pt x="1027" y="95" on="0"/>
        <pt x="1084" y="186" on="1"/>
        <pt x="1125" y="251" on="0"/>
        <pt x="1134" y="335" on="1"/>
        <pt x="1137" y="363" on="0"/>
        <pt x="1164" y="363" on="1"/>
        <pt x="1176" y="363" on="0"/>
        <pt x="1176" y="350" on="1"/>
        <pt x="1143" y="14" on="1"/>
        <pt x="1137" y="0" on="0"/>
        <pt x="1129" y="0" on="1"/>
        <pt x="15" y="0" on="1"/>
        <pt x="7" y="0" on="0"/>
      </contour>
    </TTGlyph>
    <TTGlyph name="C.sc" xMin="97" yMin="-18" xMax="1066" yMax="972">
      <contour>
        <pt x="969" y="25" on="1"/>
        <pt x="967" y="20" on="0"/>
        <pt x="941" y="26" on="0"/>
        <pt x="884" y="26" on="0"/>
        <pt x="821" y="12" on="0"/>
        <pt x="684" y="-18" on="0"/>
        <pt x="528" y="-18" on="0"/>
        <pt x="329" y="50" on="0"/>
        <pt x="256" y="113" on="1"/>
        <pt x="97" y="249" on="0"/>
        <pt x="97" y="688" on="0"/>
        <pt x="408" y="972" on="0"/>
        <pt x="644" y="972" on="1"/>
        <pt x="724" y="972" on="0"/>
        <pt x="881" y="936" on="1"/>
        <pt x="901" y="930" on="0"/>
        <pt x="945" y="912" on="0"/>
        <pt x="953" y="912" on="1"/>
        <pt x="973" y="918" on="1"/>
        <pt x="1014" y="918" on="1"/>
        <pt x="1023" y="918" on="0"/>
        <pt x="1023" y="906" on="1"/>
        <pt x="1023" y="698" on="1"/>
        <pt x="1023" y="691" on="0"/>
        <pt x="978" y="691" on="0"/>
        <pt x="968" y="707" on="0"/>
        <pt x="951" y="741" on="1"/>
        <pt x="913" y="822" on="0"/>
        <pt x="759" y="906" on="0"/>
        <pt x="660" y="906" on="1"/>
        <pt x="470" y="906" on="0"/>
        <pt x="284" y="694" on="0"/>
        <pt x="284" y="306" on="0"/>
        <pt x="493" y="60" on="0"/>
        <pt x="852" y="60" on="0"/>
        <pt x="962" y="169" on="1"/>
        <pt x="998" y="204" on="0"/>
        <pt x="1024" y="253" on="0"/>
        <pt x="1029" y="253" on="1"/>
        <pt x="1059" y="253" on="1"/>
        <pt x="1066" y="253" on="0"/>
        <pt x="1066" y="239" on="0"/>
        <pt x="1062" y="228" on="0"/>
        <pt x="1043" y="187" on="0"/>
        <pt x="1004" y="103" on="0"/>
      </contour>
    </TTGlyph>
    <TTGlyph name="Cacute" xMin="105" yMin="-27" xMax="1489" yMax="1950">
      <component glyphName="C" x="0" y="0" flags="0x1204"/>
      <component glyphName="acute" x="550" y="498" flags="0x1004"/>
    </TTGlyph>
    <TTGlyph name="Caron" xMin="36" yMin="1559" xMax="586" yMax="1949">
      <contour>
        <pt x="553" y="1945" on="1"/>
        <pt x="557" y="1949" on="0"/>
        <pt x="566" y="1949" on="0"/>
        <pt x="586" y="1922" on="0"/>
        <pt x="586" y="1912" on="0"/>
        <pt x="579" y="1902" on="1"/>
        <pt x="331" y="1581" on="1"/>
        <pt x="314" y="1559" on="0"/>
        <pt x="305" y="1559" on="1"/>
        <pt x="296" y="1559" on="0"/>
        <pt x="280" y="1581" on="1"/>
        <pt x="43" y="1902" on="1"/>
        <pt x="36" y="1912" on="0"/>
        <pt x="36" y="1922" on="0"/>
        <pt x="56" y="1949" on="0"/>
        <pt x="67" y="1949" on="0"/>
        <pt x="71" y="1945" on="1"/>
        <pt x="285" y="1721" on="1"/>
        <pt x="288" y="1718" on="0"/>
        <pt x="303" y="1700" on="0"/>
        <pt x="305" y="1700" on="1"/>
        <pt x="307" y="1700" on="0"/>
        <pt x="323" y="1718" on="0"/>
        <pt x="326" y="1721" on="1"/>
      </contour>
    </TTGlyph>
    <TTGlyph name="Caron.sc" xMin="340" yMin="1066" xMax="709" yMax="1327">
      <contour>
        <pt x="687" y="1324" on="1"/>
        <pt x="690" y="1327" on="0"/>
        <pt x="695" y="1327" on="0"/>
        <pt x="709" y="1309" on="0"/>
        <pt x="709" y="1302" on="0"/>
        <pt x="703" y="1296" on="1"/>
        <pt x="538" y="1080" on="1"/>
        <pt x="524" y="1066" on="0"/>
        <pt x="512" y="1066" on="0"/>
        <pt x="504" y="1080" on="1"/>
        <pt x="344" y="1296" on="1"/>
        <pt x="340" y="1301" on="0"/>
        <pt x="340" y="1309" on="0"/>
        <pt x="353" y="1327" on="0"/>
        <pt x="356" y="1327" on="1"/>
        <pt x="362" y="1327" on="0"/>
        <pt x="519" y="1160" on="0"/>
        <pt x="521" y="1160" on="1"/>
      </contour>
    </TTGlyph>
    <TTGlyph name="Ccaron" xMin="105" yMin="-27" xMax="1489" yMax="1950">
      <component glyphName="C" x="0" y="0" flags="0x1204"/>
      <component glyphName="caron" x="560" y="497" flags="0x1004"/>
    </TTGlyph>
    <TTGlyph name="Ccedilla" xMin="105" yMin="-532" xMax="1489" yMax="1452">
      <contour>
        <pt x="564" y="-532" on="1"/>
        <pt x="508" y="-532" on="0"/>
        <pt x="508" y="-489" on="1"/>
        <pt x="508" y="-470" on="0"/>
        <pt x="538" y="-460" on="0"/>
        <pt x="584" y="-452" on="0"/>
        <pt x="677" y="-434" on="0"/>
        <pt x="764" y="-379" on="0"/>
        <pt x="764" y="-280" on="0"/>
        <pt x="664" y="-221" on="0"/>
        <pt x="614" y="-215" on="1"/>
        <pt x="772" y="-19" on="1"/>
        <pt x="485" y="16" on="0"/>
        <pt x="105" y="404" on="0"/>
        <pt x="105" y="696" on="1"/>
        <pt x="105" y="915" on="0"/>
        <pt x="212" y="1091" on="1"/>
        <pt x="368" y="1349" on="0"/>
        <pt x="682" y="1427" on="1"/>
        <pt x="782" y="1452" on="0"/>
        <pt x="882" y="1452" on="1"/>
        <pt x="1019" y="1452" on="0"/>
        <pt x="1207" y="1406" on="1"/>
        <pt x="1264" y="1392" on="0"/>
        <pt x="1343" y="1362" on="0"/>
        <pt x="1352" y="1362" on="1"/>
        <pt x="1382" y="1370" on="1"/>
        <pt x="1413" y="1370" on="1"/>
        <pt x="1425" y="1370" on="0"/>
        <pt x="1425" y="1353" on="1"/>
        <pt x="1425" y="1042" on="1"/>
        <pt x="1425" y="1032" on="0"/>
        <pt x="1389" y="1032" on="0"/>
        <pt x="1383" y="1041" on="0"/>
        <pt x="1377" y="1054" on="0"/>
        <pt x="1370" y="1068" on="0"/>
        <pt x="1363" y="1080" on="0"/>
        <pt x="1362" y="1083" on="1"/>
        <pt x="1212" y="1384" on="0"/>
        <pt x="907" y="1384" on="1"/>
        <pt x="632" y="1384" on="0"/>
        <pt x="322" y="1034" on="0"/>
        <pt x="322" y="457" on="0"/>
        <pt x="663" y="43" on="0"/>
        <pt x="956" y="43" on="1"/>
        <pt x="1116" y="43" on="0"/>
        <pt x="1379" y="233" on="0"/>
        <pt x="1454" y="371" on="1"/>
        <pt x="1456" y="377" on="0"/>
        <pt x="1466" y="377" on="1"/>
        <pt x="1479" y="377" on="1"/>
        <pt x="1489" y="377" on="0"/>
        <pt x="1489" y="353" on="0"/>
        <pt x="1483" y="342" on="1"/>
        <pt x="1345" y="38" on="1"/>
        <pt x="1340" y="31" on="0"/>
        <pt x="1332" y="31" on="1"/>
        <pt x="1277" y="45" on="0"/>
        <pt x="1154" y="18" on="0"/>
        <pt x="950" y="-27" on="0"/>
        <pt x="887" y="-27" on="1"/>
        <pt x="866" y="-27" on="1"/>
        <pt x="757" y="-154" on="1"/>
        <pt x="829" y="-173" on="0"/>
        <pt x="897" y="-269" on="0"/>
        <pt x="897" y="-305" on="1"/>
        <pt x="881" y="-499" on="0"/>
      </contour>
    </TTGlyph>
    <TTGlyph name="Ccedilla.sc" xMin="97" yMin="-372" xMax="1066" yMax="972">
      <component glyphName="C.sc" x="0" y="0" flags="0x1204"/>
      <component glyphName="Cedilla.sc" x="0" y="0" flags="0x1004"/>
    </TTGlyph>
    <TTGlyph name="Ccircumflex" xMin="105" yMin="-27" xMax="1489" yMax="1950">
      <component glyphName="C" x="0" y="0" flags="0x1204"/>
      <component glyphName="circumflex" x="560" y="497" flags="0x1004"/>
    </TTGlyph>
    <TTGlyph name="Cdotaccent" xMin="105" yMin="-27" xMax="1489" yMax="1917">
      <component glyphName="C" x="0" y="0" flags="0x1204"/>
      <component glyphName="dotaccent" x="520" y="571" flags="0x1004"/>
    </TTGlyph>
    <TTGlyph name="Cedilla.sc" xMin="395" yMin="-372" xMax="655" yMax="-16">
      <contour>
        <pt x="433" y="-372" on="1"/>
        <pt x="395" y="-372" on="0"/>
        <pt x="395" y="-339" on="0"/>
        <pt x="417" y="-326" on="0"/>
        <pt x="444" y="-321" on="1"/>
        <pt x="566" y="-298" on="0"/>
        <pt x="566" y="-233" on="1"/>
        <pt x="566" y="-189" on="0"/>
        <pt x="494" y="-166" on="1"/>
        <pt x="477" y="-161" on="0"/>
        <pt x="465" y="-160" on="1"/>
        <pt x="582" y="-16" on="1"/>
        <pt x="650" y="-16" on="1"/>
        <pt x="562" y="-119" on="1"/>
        <pt x="632" y="-140" on="0"/>
        <pt x="650" y="-198" on="1"/>
        <pt x="655" y="-212" on="0"/>
        <pt x="655" y="-221" on="1"/>
        <pt x="641" y="-351" on="0"/>
      </contour>
    </TTGlyph>
    <TTGlyph name="Chi" xMin="5" yMin="0" xMax="1606" yMax="1410">
      <component glyphName="X" x="0" y="0" flags="0x1204"/>
    </TTGlyph>
    <TTGlyph name="Chi.01" xMin="20" yMin="0" xMax="1311" yMax="1410">
      <contour>
        <pt x="246" y="1409" on="1"/>
        <pt x="665" y="854" on="1"/>
        <pt x="1084" y="1410" on="1"/>
        <pt x="1283" y="1410" on="1"/>
        <pt x="766" y="723" on="1"/>
        <pt x="1311" y="0" on="1"/>
        <pt x="1083" y="0" on="1"/>
        <pt x="652" y="572" on="1"/>
        <pt x="221" y="0" on="1"/>
        <pt x="22" y="0" on="1"/>
        <pt x="553" y="704" on="1"/>
        <pt x="20" y="1410" on="1"/>
      </contour>
    </TTGlyph>
    <TTGlyph name="Chi.01r" xMin="20" yMin="0" xMax="1311" yMax="1410">
      <component glyphName="Chi.01" x="1331" y="0" scalex="-1.0" scaley="1.0" flags="0x1004"/>
    </TTGlyph>
    <TTGlyph name="Chi.02" xMin="50" yMin="-1" xMax="1222" yMax="1410">
      <component glyphName="u10323" x="0" y="1410" scalex="1.0" scaley="-1.0" flags="0x1004"/>
    </TTGlyph>
    <TTGlyph name="Chi.02r" xMin="50" yMin="-1" xMax="1222" yMax="1410">
      <component glyphName="u10323" x="0" y="1410" scalex="1.0" scaley="-1.0" flags="0x1004"/>
    </TTGlyph>
    <TTGlyph name="Circumflex.sc" xMin="340" yMin="1066" xMax="709" yMax="1327">
      <contour>
        <pt x="534" y="1219" on="1"/>
        <pt x="532" y="1221" on="0"/>
        <pt x="523" y="1233" on="0"/>
        <pt x="521" y="1233" on="1"/>
        <pt x="519" y="1233" on="0"/>
        <pt x="509" y="1221" on="0"/>
        <pt x="507" y="1219" on="1"/>
        <pt x="363" y="1069" on="1"/>
        <pt x="360" y="1066" on="0"/>
        <pt x="353" y="1066" on="0"/>
        <pt x="340" y="1084" on="0"/>
        <pt x="340" y="1088" on="1"/>
        <pt x="340" y="1092" on="0"/>
        <pt x="344" y="1097" on="1"/>
        <pt x="504" y="1314" on="1"/>
        <pt x="517" y="1327" on="0"/>
        <pt x="524" y="1327" on="0"/>
        <pt x="533" y="1317" on="0"/>
        <pt x="538" y="1312" on="1"/>
        <pt x="703" y="1097" on="1"/>
        <pt x="709" y="1091" on="0"/>
        <pt x="709" y="1084" on="0"/>
        <pt x="695" y="1066" on="0"/>
        <pt x="690" y="1066" on="0"/>
        <pt x="687" y="1069" on="1"/>
      </contour>
    </TTGlyph>
    <TTGlyph name="Copt_ph" xMin="125" yMin="0" xMax="1799" yMax="1645">
      <contour>
        <pt x="125" y="1245" on="1"/>
        <pt x="125" y="1411" on="0"/>
        <pt x="359" y="1645" on="0"/>
        <pt x="525" y="1645" on="1"/>
        <pt x="1399" y="1645" on="1"/>
        <pt x="1565" y="1645" on="0"/>
        <pt x="1799" y="1411" on="0"/>
        <pt x="1799" y="1245" on="1"/>
        <pt x="1799" y="400" on="1"/>
        <pt x="1799" y="233" on="0"/>
        <pt x="1563" y="0" on="0"/>
        <pt x="1398" y="0" on="1"/>
        <pt x="526" y="0" on="1"/>
        <pt x="361" y="0" on="0"/>
        <pt x="125" y="233" on="0"/>
        <pt x="125" y="400" on="1"/>
      </contour>
      <contour>
        <pt x="526" y="1495" on="1"/>
        <pt x="422" y="1495" on="0"/>
        <pt x="275" y="1348" on="0"/>
        <pt x="275" y="1245" on="1"/>
        <pt x="275" y="400" on="1"/>
        <pt x="275" y="296" on="0"/>
        <pt x="424" y="150" on="0"/>
        <pt x="526" y="150" on="1"/>
        <pt x="1398" y="150" on="1"/>
        <pt x="1500" y="150" on="0"/>
        <pt x="1649" y="296" on="0"/>
        <pt x="1649" y="400" on="1"/>
        <pt x="1649" y="1245" on="1"/>
        <pt x="1649" y="1348" on="0"/>
        <pt x="1502" y="1495" on="0"/>
        <pt x="1398" y="1495" on="1"/>
      </contour>
      <contour>
        <pt x="1204" y="460" on="1"/>
        <pt x="1188" y="449" on="0"/>
        <pt x="1162" y="430" on="1"/>
        <pt x="1050" y="349" on="0"/>
        <pt x="965" y="349" on="0"/>
        <pt x="862" y="426" on="0"/>
        <pt x="818" y="426" on="1"/>
        <pt x="776" y="426" on="0"/>
        <pt x="694" y="373" on="0"/>
        <pt x="642" y="349" on="0"/>
        <pt x="609" y="349" on="1"/>
        <pt x="544" y="349" on="0"/>
        <pt x="413" y="471" on="0"/>
        <pt x="413" y="534" on="1"/>
        <pt x="413" y="659" on="0"/>
        <pt x="523" y="659" on="1"/>
        <pt x="601" y="659" on="0"/>
        <pt x="632" y="614" on="1"/>
        <pt x="643" y="598" on="0"/>
        <pt x="643" y="576" on="1"/>
        <pt x="643" y="509" on="0"/>
        <pt x="586" y="444" on="1"/>
        <pt x="608" y="440" on="0"/>
        <pt x="641" y="440" on="1"/>
        <pt x="715" y="440" on="0"/>
        <pt x="806" y="580" on="0"/>
        <pt x="834" y="794" on="0"/>
        <pt x="834" y="933" on="1"/>
        <pt x="834" y="1212" on="0"/>
        <pt x="693" y="1212" on="1"/>
        <pt x="680" y="1212" on="1"/>
        <pt x="674" y="1212" on="0"/>
        <pt x="666" y="1210" on="1"/>
        <pt x="707" y="1175" on="0"/>
        <pt x="707" y="1046" on="0"/>
        <pt x="652" y="1019" on="1"/>
        <pt x="634" y="1010" on="0"/>
        <pt x="560" y="1010" on="0"/>
        <pt x="482" y="1075" on="0"/>
        <pt x="482" y="1164" on="0"/>
        <pt x="490" y="1206" on="1"/>
        <pt x="549" y="1278" on="0"/>
        <pt x="654" y="1335" on="0"/>
        <pt x="860" y="1335" on="0"/>
        <pt x="1021" y="1274" on="0"/>
        <pt x="1137" y="1169" on="0"/>
        <pt x="1216" y="1028" on="0"/>
        <pt x="1276" y="866" on="0"/>
        <pt x="1325" y="691" on="0"/>
        <pt x="1352" y="606" on="1"/>
        <pt x="1375" y="560" on="0"/>
        <pt x="1568" y="382" on="0"/>
        <pt x="1568" y="319" on="0"/>
        <pt x="1398" y="319" on="0"/>
        <pt x="1280" y="382" on="0"/>
      </contour>
      <contour>
        <pt x="1084" y="415" on="0"/>
        <pt x="1164" y="582" on="0"/>
        <pt x="1164" y="800" on="0"/>
        <pt x="1103" y="991" on="0"/>
        <pt x="1003" y="1138" on="0"/>
        <pt x="872" y="1227" on="0"/>
        <pt x="802" y="1229" on="1"/>
        <pt x="873" y="1185" on="0"/>
        <pt x="904" y="1030" on="1"/>
        <pt x="913" y="983" on="0"/>
        <pt x="913" y="885" on="0"/>
        <pt x="904" y="801" on="0"/>
        <pt x="890" y="709" on="0"/>
        <pt x="873" y="604" on="0"/>
        <pt x="865" y="537" on="1"/>
        <pt x="865" y="509" on="0"/>
        <pt x="897" y="477" on="1"/>
        <pt x="959" y="415" on="0"/>
      </contour>
    </TTGlyph>
    <TTGlyph name="D" xMin="45" yMin="0" xMax="1574" yMax="1422">
      <contour>
        <pt x="45" y="1405" on="1"/>
        <pt x="45" y="1413" on="0"/>
        <pt x="53" y="1413" on="1"/>
        <pt x="75" y="1413" on="1"/>
        <pt x="396" y="1420" on="1"/>
        <pt x="454" y="1422" on="0"/>
        <pt x="522" y="1422" on="1"/>
        <pt x="647" y="1422" on="1"/>
        <pt x="821" y="1422" on="0"/>
        <pt x="996" y="1396" on="0"/>
        <pt x="1165" y="1361" on="0"/>
        <pt x="1356" y="1237" on="0"/>
        <pt x="1426" y="1149" on="1"/>
        <pt x="1574" y="961" on="0"/>
        <pt x="1574" y="525" on="0"/>
        <pt x="1460" y="352" on="1"/>
        <pt x="1296" y="101" on="0"/>
        <pt x="985" y="24" on="1"/>
        <pt x="886" y="0" on="0"/>
        <pt x="782" y="0" on="1"/>
        <pt x="53" y="0" on="1"/>
        <pt x="45" y="0" on="0"/>
        <pt x="45" y="8" on="1"/>
        <pt x="45" y="36" on="1"/>
        <pt x="45" y="44" on="0"/>
        <pt x="53" y="44" on="1"/>
        <pt x="75" y="44" on="1"/>
        <pt x="257" y="44" on="0"/>
        <pt x="257" y="160" on="1"/>
        <pt x="257" y="1256" on="1"/>
        <pt x="257" y="1312" on="0"/>
        <pt x="171" y="1369" on="0"/>
        <pt x="117" y="1369" on="1"/>
        <pt x="53" y="1369" on="1"/>
        <pt x="45" y="1369" on="0"/>
        <pt x="45" y="1377" on="1"/>
      </contour>
      <contour>
        <pt x="477" y="1375" on="1"/>
        <pt x="452" y="1375" on="0"/>
        <pt x="452" y="1348" on="1"/>
        <pt x="452" y="125" on="1"/>
        <pt x="452" y="51" on="0"/>
        <pt x="591" y="48" on="1"/>
        <pt x="632" y="47" on="0"/>
        <pt x="677" y="47" on="1"/>
        <pt x="996" y="47" on="0"/>
        <pt x="1361" y="405" on="0"/>
        <pt x="1361" y="1000" on="0"/>
        <pt x="1024" y="1375" on="0"/>
        <pt x="749" y="1375" on="1"/>
      </contour>
    </TTGlyph>
    <TTGlyph name="D.01" xMin="39" yMin="0" xMax="1723" yMax="1422">
      <contour>
        <pt x="77" y="44" on="1"/>
        <pt x="259" y="44" on="0"/>
        <pt x="259" y="160" on="1"/>
        <pt x="259" y="664" on="1"/>
        <pt x="60" y="664" on="1"/>
        <pt x="39" y="664" on="0"/>
        <pt x="39" y="689" on="1"/>
        <pt x="39" y="725" on="1"/>
        <pt x="39" y="750" on="0"/>
        <pt x="60" y="750" on="1"/>
        <pt x="259" y="750" on="1"/>
        <pt x="259" y="1256" on="1"/>
        <pt x="259" y="1312" on="0"/>
        <pt x="173" y="1369" on="0"/>
        <pt x="119" y="1369" on="1"/>
        <pt x="55" y="1369" on="1"/>
        <pt x="47" y="1369" on="0"/>
        <pt x="47" y="1377" on="1"/>
        <pt x="47" y="1405" on="1"/>
        <pt x="47" y="1413" on="0"/>
        <pt x="55" y="1413" on="1"/>
        <pt x="77" y="1413" on="1"/>
        <pt x="398" y="1420" on="1"/>
        <pt x="456" y="1422" on="0"/>
        <pt x="524" y="1422" on="1"/>
        <pt x="649" y="1422" on="1"/>
        <pt x="823" y="1422" on="0"/>
        <pt x="998" y="1396" on="0"/>
        <pt x="1165" y="1361" on="0"/>
        <pt x="1353" y="1240" on="0"/>
        <pt x="1422" y="1154" on="1"/>
        <pt x="1569" y="974" on="0"/>
        <pt x="1575" y="750" on="1"/>
        <pt x="1702" y="750" on="1"/>
        <pt x="1723" y="750" on="0"/>
        <pt x="1723" y="725" on="1"/>
        <pt x="1723" y="689" on="1"/>
        <pt x="1723" y="664" on="0"/>
        <pt x="1702" y="664" on="1"/>
        <pt x="1572" y="664" on="1"/>
        <pt x="1543" y="378" on="0"/>
        <pt x="1088" y="19" on="0"/>
        <pt x="784" y="0" on="1"/>
        <pt x="55" y="0" on="1"/>
        <pt x="47" y="0" on="0"/>
        <pt x="47" y="8" on="1"/>
        <pt x="47" y="36" on="1"/>
        <pt x="47" y="44" on="0"/>
        <pt x="55" y="44" on="1"/>
      </contour>
      <contour>
        <pt x="479" y="1375" on="1"/>
        <pt x="454" y="1375" on="0"/>
        <pt x="454" y="1348" on="1"/>
        <pt x="454" y="750" on="1"/>
        <pt x="1362" y="750" on="1"/>
        <pt x="1352" y="1019" on="0"/>
        <pt x="1019" y="1375" on="0"/>
        <pt x="751" y="1375" on="1"/>
      </contour>
      <contour>
        <pt x="454" y="125" on="1"/>
        <pt x="454" y="51" on="0"/>
        <pt x="593" y="48" on="1"/>
        <pt x="634" y="47" on="0"/>
        <pt x="679" y="47" on="1"/>
        <pt x="983" y="47" on="0"/>
        <pt x="1345" y="375" on="0"/>
        <pt x="1361" y="664" on="1"/>
        <pt x="454" y="664" on="1"/>
      </contour>
    </TTGlyph>
    <TTGlyph name="D.sc" xMin="53" yMin="0" xMax="1130" yMax="973">
      <contour>
        <pt x="58" y="906" on="1"/>
        <pt x="53" y="906" on="0"/>
        <pt x="53" y="912" on="1"/>
        <pt x="53" y="951" on="1"/>
        <pt x="53" y="955" on="0"/>
        <pt x="58" y="955" on="1"/>
        <pt x="320" y="967" on="1"/>
        <pt x="437" y="973" on="0"/>
        <pt x="507" y="973" on="1"/>
        <pt x="799" y="973" on="0"/>
        <pt x="1049" y="798" on="0"/>
        <pt x="1104" y="642" on="1"/>
        <pt x="1130" y="567" on="0"/>
        <pt x="1130" y="384" on="0"/>
        <pt x="1042" y="203" on="0"/>
        <pt x="968" y="138" on="1"/>
        <pt x="814" y="0" on="0"/>
        <pt x="600" y="0" on="1"/>
        <pt x="58" y="0" on="1"/>
        <pt x="53" y="0" on="0"/>
        <pt x="53" y="5" on="1"/>
        <pt x="53" y="45" on="1"/>
        <pt x="53" y="50" on="0"/>
        <pt x="58" y="50" on="1"/>
        <pt x="72" y="50" on="1"/>
        <pt x="194" y="50" on="0"/>
        <pt x="194" y="128" on="1"/>
        <pt x="194" y="831" on="1"/>
        <pt x="194" y="887" on="0"/>
        <pt x="132" y="902" on="1"/>
        <pt x="116" y="906" on="0"/>
        <pt x="101" y="906" on="1"/>
      </contour>
      <contour>
        <pt x="357" y="115" on="1"/>
        <pt x="357" y="67" on="0"/>
        <pt x="450" y="64" on="1"/>
        <pt x="478" y="63" on="0"/>
        <pt x="615" y="63" on="0"/>
        <pt x="698" y="89" on="1"/>
        <pt x="956" y="169" on="0"/>
        <pt x="956" y="482" on="1"/>
        <pt x="956" y="671" on="0"/>
        <pt x="740" y="910" on="0"/>
        <pt x="557" y="910" on="1"/>
        <pt x="374" y="910" on="1"/>
        <pt x="357" y="910" on="0"/>
        <pt x="357" y="892" on="1"/>
      </contour>
    </TTGlyph>
    <TTGlyph name="Dcaron" xMin="45" yMin="0" xMax="1574" yMax="1950">
      <component glyphName="D" x="0" y="0" flags="0x1204"/>
      <component glyphName="caron" x="410" y="497" flags="0x1004"/>
    </TTGlyph>
    <TTGlyph name="Delta" xMin="29" yMin="0" xMax="1181" yMax="1452">
      <contour>
        <pt x="614" y="1452" on="1"/>
        <pt x="1181" y="0" on="1"/>
        <pt x="29" y="0" on="1"/>
      </contour>
      <contour>
        <pt x="988" y="148" on="1"/>
        <pt x="594" y="1158" on="1"/>
        <pt x="187" y="148" on="1"/>
      </contour>
    </TTGlyph>
    <TTGlyph name="Delta.01" xMin="25" yMin="0" xMax="1285" yMax="1410">
      <contour>
        <pt x="25" y="0" on="1"/>
        <pt x="578" y="1410" on="1"/>
        <pt x="732" y="1410" on="1"/>
        <pt x="1285" y="0" on="1"/>
      </contour>
      <contour>
        <pt x="264" y="174" on="1"/>
        <pt x="1024" y="174" on="1"/>
        <pt x="644" y="1144" on="1"/>
      </contour>
    </TTGlyph>
    <TTGlyph name="Delta.01r" xMin="24" yMin="0" xMax="1285" yMax="1410">
      <component glyphName="Delta.01" x="1310" y="0" scalex="-1.0" scaley="1.0" flags="0x1004"/>
    </TTGlyph>
    <TTGlyph name="Delta.02" xMin="160" yMin="0" xMax="1288" yMax="1410">
      <contour>
        <pt x="961" y="697" on="1"/>
        <pt x="343" y="1083" on="1"/>
        <pt x="343" y="311" on="1"/>
      </contour>
      <contour>
        <pt x="1288" y="705" on="1"/>
        <pt x="160" y="0" on="1"/>
        <pt x="160" y="1410" on="1"/>
      </contour>
    </TTGlyph>
    <TTGlyph name="Delta.02r" xMin="34" yMin="0" xMax="1163" yMax="1410">
      <component glyphName="Delta.02" x="1323" y="0" scalex="-1.0" scaley="1.0" flags="0x1004"/>
    </TTGlyph>
    <TTGlyph name="Delta.03" xMin="160" yMin="0" xMax="1396" yMax="1411">
      <contour>
        <pt x="160" y="0" on="1"/>
        <pt x="160" y="1411" on="1"/>
        <pt x="663" y="1411" on="1"/>
        <pt x="1009" y="1411" on="0"/>
        <pt x="1396" y="1035" on="0"/>
        <pt x="1396" y="361" on="0"/>
        <pt x="1027" y="0" on="0"/>
        <pt x="694" y="0" on="1"/>
      </contour>
      <contour>
        <pt x="670" y="162" on="1"/>
        <pt x="1072" y="162" on="0"/>
        <pt x="1164" y="458" on="1"/>
        <pt x="1195" y="557" on="0"/>
        <pt x="1195" y="691" on="1"/>
        <pt x="1195" y="967" on="0"/>
        <pt x="931" y="1239" on="0"/>
        <pt x="661" y="1239" on="1"/>
        <pt x="354" y="1239" on="1"/>
        <pt x="354" y="162" on="1"/>
      </contour>
    </TTGlyph>
    <TTGlyph name="Delta.03r" xMin="99" yMin="0" xMax="1336" yMax="1411">
      <component glyphName="Delta.03" x="1496" y="0" scalex="-1.0" scaley="1.0" flags="0x1004"/>
    </TTGlyph>
    <TTGlyph name="Dieresis" xMin="33" yMin="1682" xMax="666" yMax="1916">
      <contour>
        <pt x="666" y="1810" on="1"/>
        <pt x="666" y="1721" on="0"/>
        <pt x="596" y="1691" on="1"/>
        <pt x="574" y="1682" on="0"/>
        <pt x="501" y="1682" on="0"/>
        <pt x="432" y="1748" on="0"/>
        <pt x="432" y="1847" on="0"/>
        <pt x="501" y="1916" on="0"/>
        <pt x="598" y="1916" on="0"/>
        <pt x="666" y="1848" on="0"/>
      </contour>
      <contour>
        <pt x="150" y="1682" on="1"/>
        <pt x="100" y="1682" on="0"/>
        <pt x="33" y="1749" on="0"/>
        <pt x="33" y="1846" on="0"/>
        <pt x="100" y="1916" on="0"/>
        <pt x="150" y="1916" on="1"/>
        <pt x="200" y="1916" on="0"/>
        <pt x="267" y="1846" on="0"/>
        <pt x="267" y="1749" on="0"/>
        <pt x="200" y="1682" on="0"/>
      </contour>
    </TTGlyph>
    <TTGlyph name="Dieresis.sc" xMin="313" yMin="1119" xMax="737" yMax="1277">
      <contour>
        <pt x="737" y="1164" on="0"/>
        <pt x="693" y="1119" on="0"/>
        <pt x="626" y="1119" on="0"/>
        <pt x="581" y="1164" on="0"/>
        <pt x="581" y="1197" on="1"/>
        <pt x="581" y="1230" on="0"/>
        <pt x="626" y="1277" on="0"/>
        <pt x="693" y="1277" on="0"/>
        <pt x="737" y="1230" on="0"/>
        <pt x="737" y="1197" on="1"/>
      </contour>
      <contour>
        <pt x="392" y="1119" on="1"/>
        <pt x="359" y="1119" on="0"/>
        <pt x="313" y="1164" on="0"/>
        <pt x="313" y="1197" on="1"/>
        <pt x="313" y="1230" on="0"/>
        <pt x="359" y="1277" on="0"/>
        <pt x="392" y="1277" on="1"/>
        <pt x="425" y="1277" on="0"/>
        <pt x="469" y="1230" on="0"/>
        <pt x="469" y="1197" on="1"/>
        <pt x="469" y="1164" on="0"/>
        <pt x="425" y="1119" on="0"/>
      </contour>
    </TTGlyph>
    <TTGlyph name="DieresisAcute" xMin="33" yMin="1682" xMax="666" yMax="1916">
      <contour>
        <pt x="666" y="1810" on="1"/>
        <pt x="666" y="1721" on="0"/>
        <pt x="596" y="1691" on="1"/>
        <pt x="574" y="1682" on="0"/>
        <pt x="501" y="1682" on="0"/>
        <pt x="432" y="1748" on="0"/>
        <pt x="432" y="1847" on="0"/>
        <pt x="501" y="1916" on="0"/>
        <pt x="598" y="1916" on="0"/>
        <pt x="666" y="1848" on="0"/>
      </contour>
      <contour>
        <pt x="150" y="1682" on="1"/>
        <pt x="100" y="1682" on="0"/>
        <pt x="33" y="1749" on="0"/>
        <pt x="33" y="1846" on="0"/>
        <pt x="100" y="1916" on="0"/>
        <pt x="150" y="1916" on="1"/>
        <pt x="200" y="1916" on="0"/>
        <pt x="267" y="1846" on="0"/>
        <pt x="267" y="1749" on="0"/>
        <pt x="200" y="1682" on="0"/>
      </contour>
    </TTGlyph>
    <TTGlyph name="DieresisGrave" xMin="33" yMin="1682" xMax="666" yMax="1916">
      <contour>
        <pt x="666" y="1810" on="1"/>
        <pt x="666" y="1721" on="0"/>
        <pt x="596" y="1691" on="1"/>
        <pt x="574" y="1682" on="0"/>
        <pt x="501" y="1682" on="0"/>
        <pt x="432" y="1748" on="0"/>
        <pt x="432" y="1847" on="0"/>
        <pt x="501" y="1916" on="0"/>
        <pt x="598" y="1916" on="0"/>
        <pt x="666" y="1848" on="0"/>
      </contour>
      <contour>
        <pt x="150" y="1682" on="1"/>
        <pt x="100" y="1682" on="0"/>
        <pt x="33" y="1749" on="0"/>
        <pt x="33" y="1846" on="0"/>
        <pt x="100" y="1916" on="0"/>
        <pt x="150" y="1916" on="1"/>
        <pt x="200" y="1916" on="0"/>
        <pt x="267" y="1846" on="0"/>
        <pt x="267" y="1749" on="0"/>
        <pt x="200" y="1682" on="0"/>
      </contour>
    </TTGlyph>
    <TTGlyph name="Dotaccent.sc" xMin="402" yMin="1076" xMax="648" yMax="1322">
      <contour>
        <pt x="525" y="1076" on="1"/>
        <pt x="471" y="1076" on="0"/>
        <pt x="402" y="1143" on="0"/>
        <pt x="402" y="1250" on="0"/>
        <pt x="471" y="1322" on="0"/>
        <pt x="525" y="1322" on="1"/>
        <pt x="579" y="1322" on="0"/>
        <pt x="648" y="1250" on="0"/>
        <pt x="648" y="1143" on="0"/>
        <pt x="579" y="1076" on="0"/>
      </contour>
    </TTGlyph>
    <TTGlyph name="E" xMin="7" yMin="0" xMax="1176" yMax="1410">
      <contour>
        <pt x="7" y="8" on="1"/>
        <pt x="7" y="36" on="1"/>
        <pt x="7" y="44" on="0"/>
        <pt x="15" y="44" on="1"/>
        <pt x="37" y="44" on="1"/>
        <pt x="79" y="47" on="0"/>
        <pt x="167" y="48" on="0"/>
        <pt x="203" y="58" on="1"/>
        <pt x="285" y="82" on="0"/>
        <pt x="285" y="178" on="1"/>
        <pt x="285" y="1232" on="1"/>
        <pt x="285" y="1331" on="0"/>
        <pt x="168" y="1358" on="1"/>
        <pt x="135" y="1365" on="0"/>
        <pt x="101" y="1370" on="1"/>
        <pt x="80" y="1370" on="1"/>
        <pt x="72" y="1370" on="0"/>
        <pt x="72" y="1378" on="1"/>
        <pt x="72" y="1402" on="1"/>
        <pt x="72" y="1410" on="0"/>
        <pt x="80" y="1410" on="1"/>
        <pt x="1031" y="1410" on="1"/>
        <pt x="1049" y="1410" on="0"/>
        <pt x="1065" y="1397" on="0"/>
        <pt x="1067" y="1375" on="1"/>
        <pt x="1085" y="1085" on="1"/>
        <pt x="1085" y="1075" on="0"/>
        <pt x="1055" y="1075" on="0"/>
        <pt x="1048" y="1084" on="1"/>
        <pt x="1042" y="1094" on="0"/>
        <pt x="1023" y="1220" on="0"/>
        <pt x="973" y="1304" on="0"/>
        <pt x="910" y="1315" on="1"/>
        <pt x="493" y="1315" on="1"/>
        <pt x="480" y="1315" on="0"/>
        <pt x="480" y="1302" on="1"/>
        <pt x="480" y="785" on="1"/>
        <pt x="480" y="775" on="0"/>
        <pt x="490" y="775" on="1"/>
        <pt x="836" y="775" on="1"/>
        <pt x="970" y="775" on="0"/>
        <pt x="970" y="931" on="1"/>
        <pt x="970" y="939" on="0"/>
        <pt x="978" y="939" on="1"/>
        <pt x="1002" y="939" on="1"/>
        <pt x="1010" y="939" on="0"/>
        <pt x="1010" y="931" on="1"/>
        <pt x="1010" y="503" on="1"/>
        <pt x="1010" y="495" on="0"/>
        <pt x="1002" y="495" on="1"/>
        <pt x="978" y="495" on="1"/>
        <pt x="970" y="495" on="0"/>
        <pt x="970" y="503" on="1"/>
        <pt x="970" y="651" on="0"/>
        <pt x="884" y="674" on="1"/>
        <pt x="860" y="680" on="0"/>
        <pt x="833" y="680" on="1"/>
        <pt x="490" y="680" on="1"/>
        <pt x="480" y="680" on="0"/>
        <pt x="480" y="670" on="1"/>
        <pt x="480" y="183" on="1"/>
        <pt x="480" y="108" on="0"/>
        <pt x="549" y="98" on="1"/>
        <pt x="569" y="95" on="0"/>
        <pt x="591" y="95" on="1"/>
        <pt x="924" y="95" on="1"/>
        <pt x="1027" y="95" on="0"/>
        <pt x="1084" y="186" on="1"/>
        <pt x="1125" y="251" on="0"/>
        <pt x="1134" y="335" on="1"/>
        <pt x="1137" y="363" on="0"/>
        <pt x="1164" y="363" on="1"/>
        <pt x="1176" y="363" on="0"/>
        <pt x="1176" y="350" on="1"/>
        <pt x="1143" y="14" on="1"/>
        <pt x="1137" y="0" on="0"/>
        <pt x="1129" y="0" on="1"/>
        <pt x="15" y="0" on="1"/>
        <pt x="7" y="0" on="0"/>
      </contour>
    </TTGlyph>
    <TTGlyph name="E.ins" xMin="105" yMin="-27" xMax="1489" yMax="1452">
      <contour>
        <pt x="1345" y="38" on="1"/>
        <pt x="1340" y="30" on="0"/>
        <pt x="1301" y="39" on="0"/>
        <pt x="1249" y="39" on="0"/>
        <pt x="1154" y="18" on="0"/>
        <pt x="950" y="-27" on="0"/>
        <pt x="866" y="-27" on="1"/>
        <pt x="676" y="-27" on="0"/>
        <pt x="319" y="152" on="0"/>
        <pt x="105" y="481" on="0"/>
        <pt x="105" y="915" on="0"/>
        <pt x="212" y="1091" on="1"/>
        <pt x="368" y="1349" on="0"/>
        <pt x="682" y="1427" on="1"/>
        <pt x="782" y="1452" on="0"/>
        <pt x="882" y="1452" on="1"/>
        <pt x="1019" y="1452" on="0"/>
        <pt x="1207" y="1406" on="1"/>
        <pt x="1264" y="1392" on="0"/>
        <pt x="1343" y="1362" on="0"/>
        <pt x="1352" y="1362" on="1"/>
        <pt x="1382" y="1370" on="1"/>
        <pt x="1413" y="1370" on="1"/>
        <pt x="1425" y="1370" on="0"/>
        <pt x="1425" y="1353" on="1"/>
        <pt x="1425" y="1042" on="1"/>
        <pt x="1425" y="1032" on="0"/>
        <pt x="1389" y="1032" on="0"/>
        <pt x="1383" y="1041" on="0"/>
        <pt x="1377" y="1054" on="0"/>
        <pt x="1370" y="1068" on="0"/>
        <pt x="1363" y="1080" on="0"/>
        <pt x="1362" y="1083" on="1"/>
        <pt x="1212" y="1384" on="0"/>
        <pt x="907" y="1384" on="1"/>
        <pt x="655" y="1384" on="0"/>
        <pt x="352" y="1089" on="0"/>
        <pt x="327" y="849" on="1"/>
        <pt x="344" y="770" on="0"/>
        <pt x="386" y="770" on="1"/>
        <pt x="1392" y="770" on="1"/>
        <pt x="1392" y="666" on="1"/>
        <pt x="386" y="666" on="1"/>
        <pt x="349" y="666" on="0"/>
        <pt x="332" y="614" on="1"/>
        <pt x="372" y="365" on="0"/>
        <pt x="700" y="43" on="0"/>
        <pt x="956" y="43" on="1"/>
        <pt x="1116" y="43" on="0"/>
        <pt x="1379" y="233" on="0"/>
        <pt x="1454" y="371" on="1"/>
        <pt x="1456" y="377" on="0"/>
        <pt x="1466" y="377" on="1"/>
        <pt x="1479" y="377" on="1"/>
        <pt x="1489" y="377" on="0"/>
        <pt x="1489" y="353" on="0"/>
        <pt x="1483" y="342" on="1"/>
      </contour>
    </TTGlyph>
    <TTGlyph name="E.sc" xMin="24" yMin="0" xMax="862" yMax="945">
      <contour>
        <pt x="704" y="353" on="1"/>
        <pt x="704" y="450" on="0"/>
        <pt x="611" y="450" on="1"/>
        <pt x="382" y="450" on="1"/>
        <pt x="375" y="450" on="0"/>
        <pt x="375" y="443" on="1"/>
        <pt x="375" y="133" on="1"/>
        <pt x="375" y="82" on="0"/>
        <pt x="421" y="76" on="1"/>
        <pt x="434" y="75" on="0"/>
        <pt x="449" y="75" on="1"/>
        <pt x="673" y="75" on="1"/>
        <pt x="741" y="75" on="0"/>
        <pt x="808" y="173" on="0"/>
        <pt x="813" y="225" on="1"/>
        <pt x="818" y="244" on="0"/>
        <pt x="839" y="244" on="1"/>
        <pt x="841" y="244" on="0"/>
        <pt x="862" y="237" on="0"/>
        <pt x="862" y="234" on="1"/>
        <pt x="840" y="9" on="1"/>
        <pt x="837" y="0" on="0"/>
        <pt x="831" y="0" on="1"/>
        <pt x="30" y="0" on="1"/>
        <pt x="24" y="0" on="0"/>
        <pt x="24" y="5" on="1"/>
        <pt x="24" y="45" on="1"/>
        <pt x="24" y="50" on="0"/>
        <pt x="30" y="50" on="1"/>
        <pt x="45" y="50" on="1"/>
        <pt x="73" y="52" on="0"/>
        <pt x="102" y="52" on="1"/>
        <pt x="211" y="54" on="0"/>
        <pt x="211" y="141" on="1"/>
        <pt x="211" y="804" on="1"/>
        <pt x="211" y="870" on="0"/>
        <pt x="132" y="888" on="1"/>
        <pt x="110" y="893" on="0"/>
        <pt x="87" y="897" on="1"/>
        <pt x="74" y="897" on="1"/>
        <pt x="68" y="897" on="0"/>
        <pt x="68" y="902" on="1"/>
        <pt x="68" y="939" on="1"/>
        <pt x="68" y="945" on="0"/>
        <pt x="74" y="945" on="1"/>
        <pt x="765" y="945" on="1"/>
        <pt x="788" y="945" on="0"/>
        <pt x="790" y="921" on="1"/>
        <pt x="801" y="727" on="1"/>
        <pt x="801" y="720" on="0"/>
        <pt x="779" y="720" on="1"/>
        <pt x="760" y="720" on="0"/>
        <pt x="749" y="736" on="0"/>
        <pt x="747" y="758" on="1"/>
        <pt x="738" y="859" on="0"/>
        <pt x="664" y="870" on="1"/>
        <pt x="384" y="870" on="1"/>
        <pt x="375" y="870" on="0"/>
        <pt x="375" y="862" on="1"/>
        <pt x="375" y="531" on="1"/>
        <pt x="375" y="524" on="0"/>
        <pt x="382" y="524" on="1"/>
        <pt x="613" y="524" on="1"/>
        <pt x="704" y="524" on="0"/>
        <pt x="704" y="624" on="1"/>
        <pt x="704" y="629" on="0"/>
        <pt x="709" y="629" on="1"/>
        <pt x="746" y="629" on="1"/>
        <pt x="751" y="629" on="0"/>
        <pt x="751" y="624" on="1"/>
        <pt x="751" y="337" on="1"/>
        <pt x="751" y="332" on="0"/>
        <pt x="746" y="332" on="1"/>
        <pt x="709" y="332" on="1"/>
        <pt x="704" y="332" on="0"/>
      </contour>
    </TTGlyph>
    <TTGlyph name="Eacute" xMin="7" yMin="0" xMax="1176" yMax="1950">
      <component glyphName="E" x="0" y="0" flags="0x1204"/>
      <component glyphName="acute" x="330" y="498" flags="0x1004"/>
    </TTGlyph>
    <TTGlyph name="Eacute.sc" xMin="24" yMin="0" xMax="862" yMax="1327">
      <component glyphName="E.sc" x="0" y="0" flags="0x1204"/>
      <component glyphName="Acute.sc" x="0" y="0" flags="0x1004"/>
    </TTGlyph>
    <TTGlyph name="Ebreve" xMin="7" yMin="0" xMax="1176" yMax="1950">
      <component glyphName="E" x="0" y="0" flags="0x1204"/>
      <component glyphName="breve" x="270" y="542" flags="0x1004"/>
    </TTGlyph>
    <TTGlyph name="Ecaron" xMin="7" yMin="0" xMax="1176" yMax="1950">
      <component glyphName="E" x="0" y="0" flags="0x1204"/>
      <component glyphName="caron" x="350" y="497" flags="0x1004"/>
    </TTGlyph>
    <TTGlyph name="Ecircumflex" xMin="7" yMin="0" xMax="1176" yMax="1974">
      <component glyphName="E" x="0" y="0" flags="0x1204"/>
      <component glyphName="circumflex" x="330" y="521" flags="0x1004"/>
    </TTGlyph>
    <TTGlyph name="Ecircumflex.sc" xMin="24" yMin="0" xMax="862" yMax="1327">
      <component glyphName="E.sc" x="0" y="0" flags="0x1204"/>
      <component glyphName="Circumflex.sc" x="-69" y="0" flags="0x1004"/>
    </TTGlyph>
    <TTGlyph name="Edieresis" xMin="7" yMin="0" xMax="1176" yMax="1917">
      <component glyphName="E" x="0" y="0" flags="0x1204"/>
      <component glyphName="dieresis" x="280" y="571" flags="0x1004"/>
    </TTGlyph>
    <TTGlyph name="Edieresis.sc" xMin="24" yMin="0" xMax="862" yMax="1277">
      <component glyphName="E.sc" x="0" y="0" flags="0x1204"/>
      <component glyphName="Dieresis.sc" x="-79" y="0" flags="0x1004"/>
    </TTGlyph>
    <TTGlyph name="Edotaccent" xMin="7" yMin="0" xMax="1176" yMax="1917">
      <component glyphName="E" x="0" y="0" flags="0x1204"/>
      <component glyphName="dotaccent" x="240" y="571" flags="0x1004"/>
    </TTGlyph>
    <TTGlyph name="Egrave" xMin="7" yMin="0" xMax="1176" yMax="1950">
      <component glyphName="E" x="0" y="0" flags="0x1204"/>
      <component glyphName="grave" x="275" y="498" flags="0x1004"/>
    </TTGlyph>
    <TTGlyph name="Egrave.sc" xMin="24" yMin="0" xMax="862" yMax="1327">
      <component glyphName="E.sc" x="0" y="0" flags="0x1204"/>
      <component glyphName="Gravesmall" x="-139" y="0" flags="0x1004"/>
    </TTGlyph>
    <TTGlyph name="Emacron" xMin="7" yMin="0" xMax="1176" yMax="1864">
      <component glyphName="E" x="0" y="0" flags="0x1204"/>
      <component glyphName="macron" x="270" y="542" flags="0x1004"/>
    </TTGlyph>
    <TTGlyph name="Emacron.sc" xMin="24" yMin="0" xMax="862" yMax="1240">
      <component glyphName="E.sc" x="0" y="0" flags="0x1204"/>
      <component glyphName="Macron.sc" x="-79" y="0" flags="0x1004"/>
    </TTGlyph>
    <TTGlyph name="Eng" xMin="60" yMin="-640" xMax="1712" yMax="1410">
      <contour>
        <pt x="68" y="0" on="1"/>
        <pt x="60" y="0" on="0"/>
        <pt x="60" y="8" on="1"/>
        <pt x="60" y="32" on="1"/>
        <pt x="60" y="40" on="0"/>
        <pt x="70" y="40" on="1"/>
        <pt x="93" y="40" on="1"/>
        <pt x="148" y="40" on="0"/>
        <pt x="168" y="50" on="1"/>
        <pt x="242" y="86" on="0"/>
        <pt x="242" y="248" on="1"/>
        <pt x="242" y="1287" on="1"/>
        <pt x="231" y="1370" on="0"/>
        <pt x="68" y="1370" on="1"/>
        <pt x="60" y="1370" on="0"/>
        <pt x="60" y="1378" on="1"/>
        <pt x="60" y="1402" on="1"/>
        <pt x="60" y="1410" on="0"/>
        <pt x="68" y="1410" on="1"/>
        <pt x="434" y="1410" on="1"/>
        <pt x="1383" y="361" on="1"/>
        <pt x="1388" y="356" on="0"/>
        <pt x="1392" y="351" on="0"/>
        <pt x="1401" y="351" on="0"/>
        <pt x="1401" y="360" on="1"/>
        <pt x="1401" y="1049" on="1"/>
        <pt x="1401" y="1148" on="0"/>
        <pt x="1394" y="1264" on="0"/>
        <pt x="1362" y="1329" on="0"/>
        <pt x="1295" y="1358" on="0"/>
        <pt x="1235" y="1370" on="1"/>
        <pt x="1184" y="1370" on="1"/>
        <pt x="1176" y="1370" on="0"/>
        <pt x="1176" y="1378" on="1"/>
        <pt x="1176" y="1402" on="1"/>
        <pt x="1176" y="1410" on="0"/>
        <pt x="1184" y="1410" on="1"/>
        <pt x="1704" y="1410" on="1"/>
        <pt x="1712" y="1410" on="0"/>
        <pt x="1712" y="1402" on="1"/>
        <pt x="1712" y="1378" on="1"/>
        <pt x="1712" y="1370" on="0"/>
        <pt x="1653" y="1370" on="0"/>
        <pt x="1518" y="1302" on="0"/>
        <pt x="1518" y="1252" on="1"/>
        <pt x="1518" y="-159" on="1"/>
        <pt x="1518" y="-337" on="0"/>
        <pt x="1482" y="-425" on="1"/>
        <pt x="1466" y="-466" on="0"/>
        <pt x="1436" y="-500" on="1"/>
        <pt x="1348" y="-618" on="0"/>
        <pt x="1204" y="-634" on="1"/>
        <pt x="1156" y="-640" on="0"/>
        <pt x="1049" y="-640" on="0"/>
        <pt x="943" y="-559" on="0"/>
        <pt x="939" y="-512" on="1"/>
        <pt x="939" y="-458" on="0"/>
        <pt x="992" y="-432" on="1"/>
        <pt x="1009" y="-424" on="0"/>
        <pt x="1022" y="-424" on="1"/>
        <pt x="1045" y="-424" on="0"/>
        <pt x="1160" y="-512" on="1"/>
        <pt x="1201" y="-543" on="0"/>
        <pt x="1295" y="-543" on="1"/>
        <pt x="1401" y="-518" on="0"/>
        <pt x="1401" y="-317" on="1"/>
        <pt x="1401" y="91" on="1"/>
        <pt x="393" y="1166" on="1"/>
        <pt x="383" y="1176" on="0"/>
        <pt x="375" y="1176" on="1"/>
        <pt x="370" y="1176" on="0"/>
        <pt x="370" y="1166" on="1"/>
        <pt x="370" y="168" on="1"/>
        <pt x="370" y="77" on="0"/>
        <pt x="514" y="48" on="1"/>
        <pt x="554" y="40" on="0"/>
        <pt x="596" y="40" on="0"/>
        <pt x="596" y="32" on="1"/>
        <pt x="596" y="8" on="1"/>
        <pt x="596" y="0" on="0"/>
        <pt x="588" y="0" on="1"/>
      </contour>
    </TTGlyph>
    <TTGlyph name="Eogonek" xMin="7" yMin="-532" xMax="1176" yMax="1410">
      <component glyphName="E" x="0" y="0" flags="0x1204"/>
      <component glyphName="ogonek" x="570" y="0" flags="0x1004"/>
    </TTGlyph>
    <TTGlyph name="Eogonek.alt1" xMin="70" yMin="-532" xMax="832" yMax="1346">
      <component glyphName="e" x="0" y="0" flags="0x1204"/>
      <component glyphName="ogonek" x="130" y="0" flags="0x1004"/>
      <component glyphName="dotaccent" x="140" y="0" flags="0x1004"/>
    </TTGlyph>
    <TTGlyph name="Epsilon" xMin="7" yMin="0" xMax="1176" yMax="1410">
      <component glyphName="E" x="0" y="0" flags="0x1204"/>
    </TTGlyph>
    <TTGlyph name="Epsilon.01" xMin="160" yMin="0" xMax="1006" yMax="1410">
      <contour>
        <pt x="160" y="1410" on="1"/>
        <pt x="976" y="1410" on="1"/>
        <pt x="976" y="1235" on="1"/>
        <pt x="355" y="1235" on="1"/>
        <pt x="355" y="814" on="1"/>
        <pt x="895" y="814" on="1"/>
        <pt x="895" y="639" on="1"/>
        <pt x="355" y="639" on="1"/>
        <pt x="355" y="175" on="1"/>
        <pt x="1006" y="175" on="1"/>
        <pt x="1006" y="0" on="1"/>
        <pt x="160" y="0" on="1"/>
      </contour>
    </TTGlyph>
    <TTGlyph name="Epsilon.01r" xMin="79" yMin="0" xMax="926" yMax="1410">
      <component glyphName="Epsilon.01" x="1086" y="0" scalex="-1.0" scaley="1.0" flags="0x1004"/>
    </TTGlyph>
    <TTGlyph name="Epsilon.02" xMin="110" yMin="-15" xMax="1288" yMax="1449">
      <contour>
        <pt x="1212" y="317" on="1"/>
        <pt x="1288" y="317" on="0"/>
        <pt x="1288" y="244" on="1"/>
        <pt x="1288" y="139" on="0"/>
        <pt x="1124" y="54" on="1"/>
        <pt x="1074" y="29" on="0"/>
        <pt x="1018" y="11" on="1"/>
        <pt x="822" y="-52" on="0"/>
        <pt x="463" y="23" on="0"/>
        <pt x="332" y="136" on="1"/>
        <pt x="110" y="328" on="0"/>
        <pt x="110" y="711" on="1"/>
        <pt x="110" y="971" on="0"/>
        <pt x="310" y="1302" on="0"/>
        <pt x="616" y="1449" on="0"/>
        <pt x="965" y="1449" on="0"/>
        <pt x="1124" y="1366" on="1"/>
        <pt x="1173" y="1341" on="0"/>
        <pt x="1210" y="1312" on="1"/>
        <pt x="1288" y="1248" on="0"/>
        <pt x="1288" y="1137" on="0"/>
        <pt x="1249" y="1104" on="0"/>
        <pt x="1174" y="1104" on="0"/>
        <pt x="1103" y="1151" on="0"/>
        <pt x="1055" y="1180" on="1"/>
        <pt x="928" y="1255" on="0"/>
        <pt x="783" y="1255" on="1"/>
        <pt x="481" y="1255" on="0"/>
        <pt x="374" y="1002" on="1"/>
        <pt x="336" y="913" on="0"/>
        <pt x="327" y="788" on="1"/>
        <pt x="1148" y="788" on="1"/>
        <pt x="1206" y="788" on="0"/>
        <pt x="1224" y="728" on="1"/>
        <pt x="1229" y="711" on="0"/>
        <pt x="1229" y="693" on="1"/>
        <pt x="1229" y="629" on="0"/>
        <pt x="1183" y="602" on="1"/>
        <pt x="1168" y="594" on="0"/>
        <pt x="1148" y="594" on="1"/>
        <pt x="332" y="594" on="1"/>
        <pt x="357" y="379" on="0"/>
        <pt x="599" y="166" on="0"/>
        <pt x="939" y="166" on="0"/>
        <pt x="1059" y="242" on="1"/>
        <pt x="1090" y="261" on="0"/>
        <pt x="1174" y="317" on="0"/>
      </contour>
    </TTGlyph>
    <TTGlyph name="Epsilon.02r" xMin="79" yMin="-15" xMax="1258" yMax="1449">
      <component glyphName="Epsilon.02" x="1368" y="0" scalex="-1.0" scaley="1.0" flags="0x1004"/>
    </TTGlyph>
    <TTGlyph name="Epsilon.05" xMin="110" yMin="-26" xMax="1588" yMax="1452">
      <contour>
        <pt x="1562" y="910" on="1"/>
        <pt x="1588" y="815" on="0"/>
        <pt x="1588" y="661" on="0"/>
        <pt x="1583" y="626" on="1"/>
        <pt x="312" y="626" on="1"/>
        <pt x="344" y="430" on="0"/>
        <pt x="647" y="169" on="0"/>
        <pt x="1075" y="169" on="0"/>
        <pt x="1235" y="330" on="1"/>
        <pt x="1285" y="381" on="0"/>
        <pt x="1321" y="443" on="1"/>
        <pt x="1523" y="410" on="1"/>
        <pt x="1433" y="213" on="0"/>
        <pt x="1071" y="-26" on="0"/>
        <pt x="649" y="-26" on="0"/>
        <pt x="476" y="75" on="1"/>
        <pt x="218" y="226" on="0"/>
        <pt x="136" y="516" on="1"/>
        <pt x="110" y="611" on="0"/>
        <pt x="110" y="713" on="1"/>
        <pt x="110" y="913" on="0"/>
        <pt x="211" y="1086" on="1"/>
        <pt x="362" y="1344" on="0"/>
        <pt x="652" y="1426" on="1"/>
        <pt x="747" y="1452" on="0"/>
        <pt x="849" y="1452" on="1"/>
        <pt x="1049" y="1452" on="0"/>
        <pt x="1222" y="1351" on="1"/>
        <pt x="1480" y="1200" on="0"/>
      </contour>
      <contour>
        <pt x="647" y="1257" on="0"/>
        <pt x="344" y="996" on="0"/>
        <pt x="312" y="800" on="1"/>
        <pt x="1386" y="800" on="1"/>
        <pt x="1354" y="995" on="0"/>
        <pt x="1051" y="1257" on="0"/>
      </contour>
    </TTGlyph>
    <TTGlyph name="Epsilon.05r" xMin="109" yMin="-26" xMax="1588" yMax="1452">
      <component glyphName="Epsilon.05" x="1698" y="0" scalex="-1.0" scaley="1.0" flags="0x1004"/>
    </TTGlyph>
    <TTGlyph name="Epsilon.06" xMin="60" yMin="-51" xMax="1542" yMax="1453">
      <contour>
        <pt x="1196" y="1314" on="1"/>
        <pt x="1104" y="1222" on="1"/>
        <pt x="1542" y="784" on="1"/>
        <pt x="1419" y="660" on="1"/>
        <pt x="980" y="1099" on="1"/>
        <pt x="774" y="893" on="1"/>
        <pt x="1156" y="511" on="1"/>
        <pt x="1032" y="388" on="1"/>
        <pt x="650" y="770" on="1"/>
        <pt x="414" y="533" on="1"/>
        <pt x="874" y="73" on="1"/>
        <pt x="751" y="-51" on="1"/>
        <pt x="291" y="409" on="1"/>
        <pt x="199" y="317" on="1"/>
        <pt x="60" y="456" on="1"/>
        <pt x="1057" y="1453" on="1"/>
      </contour>
    </TTGlyph>
    <TTGlyph name="Epsilon.06r" xMin="59" yMin="-51" xMax="1542" yMax="1453">
      <component glyphName="Epsilon.06" x="1602" y="0" scalex="-1.0" scaley="1.0" flags="0x1004"/>
    </TTGlyph>
    <TTGlyph name="Epsilon.07" xMin="60" yMin="-3" xMax="1542" yMax="1409">
      <contour>
        <pt x="1542" y="832" on="1"/>
        <pt x="1419" y="708" on="1"/>
        <pt x="980" y="1146" on="1"/>
        <pt x="775" y="941" on="1"/>
        <pt x="1156" y="559" on="1"/>
        <pt x="1033" y="435" on="1"/>
        <pt x="650" y="818" on="1"/>
        <pt x="414" y="581" on="1"/>
        <pt x="875" y="120" on="1"/>
        <pt x="751" y="-3" on="1"/>
        <pt x="292" y="456" on="1"/>
        <pt x="200" y="364" on="1"/>
        <pt x="60" y="504" on="1"/>
        <pt x="965" y="1409" on="1"/>
      </contour>
    </TTGlyph>
    <TTGlyph name="Epsilon.07r" xMin="59" yMin="-3" xMax="1542" yMax="1409">
      <component glyphName="Epsilon.07" x="1602" y="0" scalex="-1.0" scaley="1.0" flags="0x1004"/>
    </TTGlyph>
    <TTGlyph name="Epsilon.08" xMin="160" yMin="0" xMax="1006" yMax="1410">
      <contour>
        <pt x="356" y="1410" on="1"/>
        <pt x="356" y="1280" on="1"/>
        <pt x="976" y="1280" on="1"/>
        <pt x="976" y="1105" on="1"/>
        <pt x="355" y="1105" on="1"/>
        <pt x="355" y="814" on="1"/>
        <pt x="895" y="814" on="1"/>
        <pt x="895" y="639" on="1"/>
        <pt x="355" y="639" on="1"/>
        <pt x="355" y="305" on="1"/>
        <pt x="1006" y="305" on="1"/>
        <pt x="1006" y="130" on="1"/>
        <pt x="356" y="130" on="1"/>
        <pt x="356" y="0" on="1"/>
        <pt x="160" y="0" on="1"/>
        <pt x="160" y="1410" on="1"/>
      </contour>
    </TTGlyph>
    <TTGlyph name="Epsilon.08r" xMin="79" yMin="0" xMax="926" yMax="1410">
      <component glyphName="Epsilon.08" x="1086" y="0" scalex="-1.0" scaley="1.0" flags="0x1004"/>
    </TTGlyph>
    <TTGlyph name="Epsilon.09" xMin="60" yMin="-30" xMax="1528" yMax="1460">
      <contour>
        <pt x="973" y="1460" on="1"/>
        <pt x="1528" y="904" on="1"/>
        <pt x="1405" y="780" on="1"/>
        <pt x="987" y="1198" on="1"/>
        <pt x="724" y="936" on="1"/>
        <pt x="1085" y="575" on="1"/>
        <pt x="961" y="451" on="1"/>
        <pt x="601" y="812" on="1"/>
        <pt x="322" y="533" on="1"/>
        <pt x="761" y="94" on="1"/>
        <pt x="637" y="-30" on="1"/>
        <pt x="60" y="547" on="1"/>
      </contour>
    </TTGlyph>
    <TTGlyph name="Epsilon.09r" xMin="59" yMin="-30" xMax="1528" yMax="1460">
      <component glyphName="Epsilon.09" x="1588" y="0" scalex="-1.0" scaley="1.0" flags="0x1004"/>
    </TTGlyph>
    <TTGlyph name="Epsilon.10" xMin="60" yMin="-43" xMax="1564" yMax="1439">
      <contour>
        <pt x="199" y="1093" on="1"/>
        <pt x="291" y="1001" on="1"/>
        <pt x="729" y="1439" on="1"/>
        <pt x="853" y="1316" on="1"/>
        <pt x="414" y="877" on="1"/>
        <pt x="620" y="671" on="1"/>
        <pt x="1002" y="1053" on="1"/>
        <pt x="1125" y="929" on="1"/>
        <pt x="743" y="547" on="1"/>
        <pt x="980" y="311" on="1"/>
        <pt x="1440" y="771" on="1"/>
        <pt x="1564" y="648" on="1"/>
        <pt x="1104" y="188" on="1"/>
        <pt x="1196" y="96" on="1"/>
        <pt x="1057" y="-43" on="1"/>
        <pt x="60" y="954" on="1"/>
      </contour>
    </TTGlyph>
    <TTGlyph name="Epsilon.10r" xMin="59" yMin="-43" xMax="1564" yMax="1439">
      <component glyphName="Epsilon.10" x="1624" y="0" scalex="-1.0" scaley="1.0" flags="0x1004"/>
    </TTGlyph>
    <TTGlyph name="Epsilon.11" xMin="160" yMin="0" xMax="975" yMax="1410">
      <contour>
        <pt x="355" y="175" on="1"/>
        <pt x="975" y="175" on="1"/>
        <pt x="975" y="0" on="1"/>
        <pt x="160" y="0" on="1"/>
        <pt x="160" y="1410" on="1"/>
        <pt x="975" y="1410" on="1"/>
        <pt x="975" y="1235" on="1"/>
        <pt x="355" y="1235" on="1"/>
      </contour>
    </TTGlyph>
    <TTGlyph name="Epsilon.11r" xMin="79" yMin="0" xMax="895" yMax="1410">
      <component glyphName="Epsilon.11" x="1055" y="0" scalex="-1.0" scaley="1.0" flags="0x1004"/>
    </TTGlyph>
    <TTGlyph name="Epsilon.13" xMin="160" yMin="0" xMax="975" yMax="1410">
      <contour>
        <pt x="553" y="782" on="0"/>
        <pt x="650" y="879" on="0"/>
        <pt x="788" y="879" on="0"/>
        <pt x="885" y="782" on="0"/>
        <pt x="885" y="644" on="0"/>
        <pt x="788" y="547" on="0"/>
        <pt x="650" y="547" on="0"/>
        <pt x="553" y="644" on="0"/>
      </contour>
      <contour>
        <pt x="355" y="175" on="1"/>
        <pt x="975" y="175" on="1"/>
        <pt x="975" y="0" on="1"/>
        <pt x="160" y="0" on="1"/>
        <pt x="160" y="1410" on="1"/>
        <pt x="975" y="1410" on="1"/>
        <pt x="975" y="1235" on="1"/>
        <pt x="355" y="1235" on="1"/>
      </contour>
    </TTGlyph>
    <TTGlyph name="Epsilon.13r" xMin="79" yMin="0" xMax="895" yMax="1410">
      <component glyphName="Epsilon.13" x="1055" y="0" scalex="-1.0" scaley="1.0" flags="0x1004"/>
    </TTGlyph>
    <TTGlyph name="Epsilon.14" xMin="160" yMin="0" xMax="1175" yMax="1410">
      <contour>
        <pt x="355" y="511" on="1"/>
        <pt x="1175" y="211" on="1"/>
        <pt x="1175" y="36" on="1"/>
        <pt x="355" y="336" on="1"/>
        <pt x="355" y="0" on="1"/>
        <pt x="160" y="0" on="1"/>
        <pt x="160" y="1410" on="1"/>
        <pt x="355" y="1410" on="1"/>
        <pt x="1175" y="1110" on="1"/>
        <pt x="1175" y="936" on="1"/>
        <pt x="355" y="1236" on="1"/>
        <pt x="355" y="963" on="1"/>
        <pt x="1175" y="663" on="1"/>
        <pt x="1175" y="489" on="1"/>
        <pt x="355" y="789" on="1"/>
      </contour>
    </TTGlyph>
    <TTGlyph name="Epsilon.14r" xMin="109" yMin="0" xMax="1125" yMax="1410">
      <component glyphName="Epsilon.14" x="1285" y="0" scalex="-1.0" scaley="1.0" flags="0x1004"/>
    </TTGlyph>
    <TTGlyph name="Epsilon.15" xMin="79" yMin="0" xMax="819" yMax="1478">
      <component glyphName="uF0253" x="899" y="0" scalex="-1.0" scaley="1.0" flags="0x1004"/>
    </TTGlyph>
    <TTGlyph name="Epsilon.15r" xMin="80" yMin="0" xMax="819" yMax="1478">
      <component glyphName="uF0253" x="0" y="0" flags="0x1204"/>
    </TTGlyph>
    <TTGlyph name="Epsilon.16" xMin="100" yMin="0" xMax="1170" yMax="1398">
      <contour>
        <pt x="1170" y="0" on="1"/>
        <pt x="100" y="606" on="1"/>
        <pt x="100" y="778" on="1"/>
        <pt x="1170" y="1398" on="1"/>
        <pt x="1170" y="1215" on="1"/>
        <pt x="438" y="792" on="1"/>
        <pt x="1169" y="792" on="1"/>
        <pt x="1169" y="618" on="1"/>
        <pt x="441" y="618" on="1"/>
        <pt x="1170" y="205" on="1"/>
      </contour>
    </TTGlyph>
    <TTGlyph name="Epsilon.16r" xMin="99" yMin="0" xMax="1170" yMax="1398">
      <component glyphName="Epsilon.16" x="1270" y="0" scalex="-1.0" scaley="1.0" flags="0x1004"/>
    </TTGlyph>
    <TTGlyph name="Epsilontonos" xMin="-5" yMin="0" xMax="1528" yMax="1453">
      <component glyphName="E" x="352" y="0" flags="0x1004"/>
      <component glyphName="tonos" x="-247" y="-69" flags="0x1004"/>
    </TTGlyph>
    <TTGlyph name="Eta" xMin="60" yMin="0" xMax="1652" yMax="1410">
      <component glyphName="H" x="0" y="0" flags="0x1204"/>
    </TTGlyph>
    <TTGlyph name="Eta.01" xMin="160" yMin="0" xMax="1370" yMax="1410">
      <contour>
        <pt x="160" y="0" on="1"/>
        <pt x="160" y="1410" on="1"/>
        <pt x="355" y="1410" on="1"/>
        <pt x="355" y="798" on="1"/>
        <pt x="1175" y="798" on="1"/>
        <pt x="1175" y="1410" on="1"/>
        <pt x="1370" y="1410" on="1"/>
        <pt x="1370" y="0" on="1"/>
        <pt x="1175" y="0" on="1"/>
        <pt x="1175" y="623" on="1"/>
        <pt x="355" y="623" on="1"/>
        <pt x="355" y="0" on="1"/>
      </contour>
    </TTGlyph>
    <TTGlyph name="Eta.02" xMin="160" yMin="0" xMax="1370" yMax="1410">
      <contour>
        <pt x="160" y="0" on="1"/>
        <pt x="160" y="1410" on="1"/>
        <pt x="1370" y="1410" on="1"/>
        <pt x="1370" y="0" on="1"/>
      </contour>
      <contour>
        <pt x="355" y="175" on="1"/>
        <pt x="1175" y="175" on="1"/>
        <pt x="1175" y="623" on="1"/>
        <pt x="355" y="623" on="1"/>
      </contour>
      <contour>
        <pt x="1175" y="798" on="1"/>
        <pt x="1175" y="1234" on="1"/>
        <pt x="355" y="1234" on="1"/>
        <pt x="355" y="798" on="1"/>
      </contour>
    </TTGlyph>
    <TTGlyph name="Eta.03" xMin="160" yMin="0" xMax="1370" yMax="1410">
      <contour>
        <pt x="160" y="0" on="1"/>
        <pt x="160" y="1410" on="1"/>
        <pt x="355" y="1410" on="1"/>
        <pt x="355" y="1285" on="1"/>
        <pt x="1175" y="1285" on="1"/>
        <pt x="1175" y="1410" on="1"/>
        <pt x="1370" y="1410" on="1"/>
        <pt x="1370" y="0" on="1"/>
        <pt x="1175" y="0" on="1"/>
        <pt x="1175" y="125" on="1"/>
        <pt x="355" y="125" on="1"/>
        <pt x="355" y="0" on="1"/>
      </contour>
      <contour>
        <pt x="355" y="300" on="1"/>
        <pt x="1175" y="300" on="1"/>
        <pt x="1175" y="623" on="1"/>
        <pt x="355" y="623" on="1"/>
      </contour>
      <contour>
        <pt x="355" y="798" on="1"/>
        <pt x="1175" y="798" on="1"/>
        <pt x="1175" y="1110" on="1"/>
        <pt x="355" y="1110" on="1"/>
      </contour>
    </TTGlyph>
    <TTGlyph name="Eta.04" xMin="160" yMin="0" xMax="1370" yMax="1411">
      <contour>
        <pt x="160" y="0" on="1"/>
        <pt x="160" y="1410" on="1"/>
        <pt x="355" y="1410" on="1"/>
        <pt x="355" y="1159" on="1"/>
        <pt x="1175" y="1411" on="1"/>
        <pt x="1370" y="1411" on="1"/>
        <pt x="1370" y="0" on="1"/>
        <pt x="1175" y="0" on="1"/>
        <pt x="1175" y="251" on="1"/>
        <pt x="355" y="0" on="1"/>
      </contour>
      <contour>
        <pt x="355" y="174" on="1"/>
        <pt x="1175" y="426" on="1"/>
        <pt x="1175" y="749" on="1"/>
        <pt x="355" y="497" on="1"/>
      </contour>
      <contour>
        <pt x="355" y="672" on="1"/>
        <pt x="1175" y="924" on="1"/>
        <pt x="1175" y="1236" on="1"/>
        <pt x="355" y="984" on="1"/>
      </contour>
    </TTGlyph>
    <TTGlyph name="Eta.04r" xMin="159" yMin="0" xMax="1370" yMax="1411">
      <component glyphName="Eta.04" x="1530" y="0" scalex="-1.0" scaley="1.0" flags="0x1004"/>
    </TTGlyph>
    <TTGlyph name="Eta.05" xMin="160" yMin="0" xMax="1370" yMax="1410">
      <contour>
        <pt x="355" y="0" on="1"/>
        <pt x="160" y="0" on="1"/>
        <pt x="160" y="1410" on="1"/>
        <pt x="355" y="1410" on="1"/>
        <pt x="355" y="1054" on="1"/>
        <pt x="1175" y="1054" on="1"/>
        <pt x="1175" y="1410" on="1"/>
        <pt x="1370" y="1410" on="1"/>
        <pt x="1370" y="0" on="1"/>
        <pt x="1175" y="0" on="1"/>
        <pt x="1175" y="357" on="1"/>
        <pt x="355" y="357" on="1"/>
      </contour>
      <contour>
        <pt x="355" y="531" on="1"/>
        <pt x="1175" y="531" on="1"/>
        <pt x="1175" y="879" on="1"/>
        <pt x="355" y="879" on="1"/>
      </contour>
    </TTGlyph>
    <TTGlyph name="Eta.06" xMin="160" yMin="0" xMax="1370" yMax="1410">
      <contour>
        <pt x="160" y="1410" on="1"/>
        <pt x="355" y="1410" on="1"/>
        <pt x="355" y="954" on="1"/>
        <pt x="1175" y="1254" on="1"/>
        <pt x="1175" y="1410" on="1"/>
        <pt x="1370" y="1410" on="1"/>
        <pt x="1370" y="0" on="1"/>
        <pt x="1175" y="0" on="1"/>
        <pt x="1175" y="557" on="1"/>
        <pt x="355" y="257" on="1"/>
        <pt x="355" y="0" on="1"/>
        <pt x="160" y="0" on="1"/>
      </contour>
      <contour>
        <pt x="355" y="431" on="1"/>
        <pt x="1175" y="731" on="1"/>
        <pt x="1175" y="1079" on="1"/>
        <pt x="355" y="779" on="1"/>
      </contour>
    </TTGlyph>
    <TTGlyph name="Eta.06r" xMin="159" yMin="0" xMax="1370" yMax="1410">
      <component glyphName="Eta.06" x="1530" y="0" scalex="-1.0" scaley="1.0" flags="0x1004"/>
    </TTGlyph>
    <TTGlyph name="Eta.07" xMin="160" yMin="0" xMax="1175" yMax="1410">
      <contour>
        <pt x="160" y="0" on="1"/>
        <pt x="160" y="1410" on="1"/>
        <pt x="355" y="1410" on="1"/>
        <pt x="355" y="798" on="1"/>
        <pt x="1175" y="798" on="1"/>
        <pt x="1175" y="623" on="1"/>
        <pt x="355" y="623" on="1"/>
        <pt x="355" y="0" on="1"/>
      </contour>
    </TTGlyph>
    <TTGlyph name="Eta.07r" xMin="99" yMin="0" xMax="1115" yMax="1410">
      <component glyphName="Eta.07" x="1275" y="0" scalex="-1.0" scaley="1.0" flags="0x1004"/>
    </TTGlyph>
    <TTGlyph name="Etatonos" xMin="7" yMin="0" xMax="1926" yMax="1453">
      <component glyphName="H" x="274" y="0" flags="0x1004"/>
      <component glyphName="tonos" x="-235" y="-69" flags="0x1004"/>
    </TTGlyph>
    <TTGlyph name="Eth" xMin="39" yMin="0" xMax="1576" yMax="1422">
      <contour>
        <pt x="77" y="44" on="1"/>
        <pt x="259" y="44" on="0"/>
        <pt x="259" y="160" on="1"/>
        <pt x="259" y="664" on="1"/>
        <pt x="60" y="664" on="1"/>
        <pt x="39" y="664" on="0"/>
        <pt x="39" y="689" on="1"/>
        <pt x="39" y="725" on="1"/>
        <pt x="39" y="750" on="0"/>
        <pt x="60" y="750" on="1"/>
        <pt x="259" y="750" on="1"/>
        <pt x="259" y="1256" on="1"/>
        <pt x="259" y="1312" on="0"/>
        <pt x="173" y="1369" on="0"/>
        <pt x="119" y="1369" on="1"/>
        <pt x="55" y="1369" on="1"/>
        <pt x="47" y="1369" on="0"/>
        <pt x="47" y="1377" on="1"/>
        <pt x="47" y="1405" on="1"/>
        <pt x="47" y="1413" on="0"/>
        <pt x="55" y="1413" on="1"/>
        <pt x="77" y="1413" on="1"/>
        <pt x="398" y="1420" on="1"/>
        <pt x="456" y="1422" on="0"/>
        <pt x="524" y="1422" on="1"/>
        <pt x="649" y="1422" on="1"/>
        <pt x="823" y="1422" on="0"/>
        <pt x="998" y="1396" on="0"/>
        <pt x="1167" y="1361" on="0"/>
        <pt x="1358" y="1237" on="0"/>
        <pt x="1428" y="1149" on="1"/>
        <pt x="1576" y="961" on="0"/>
        <pt x="1576" y="528" on="0"/>
        <pt x="1462" y="358" on="1"/>
        <pt x="1303" y="119" on="0"/>
        <pt x="986" y="33" on="1"/>
        <pt x="887" y="6" on="0"/>
        <pt x="784" y="0" on="1"/>
        <pt x="55" y="0" on="1"/>
        <pt x="47" y="0" on="0"/>
        <pt x="47" y="8" on="1"/>
        <pt x="47" y="36" on="1"/>
        <pt x="47" y="44" on="0"/>
        <pt x="55" y="44" on="1"/>
      </contour>
      <contour>
        <pt x="803" y="689" on="1"/>
        <pt x="803" y="664" on="0"/>
        <pt x="782" y="664" on="1"/>
        <pt x="454" y="664" on="1"/>
        <pt x="454" y="125" on="1"/>
        <pt x="454" y="51" on="0"/>
        <pt x="593" y="48" on="1"/>
        <pt x="634" y="47" on="0"/>
        <pt x="679" y="47" on="1"/>
        <pt x="998" y="47" on="0"/>
        <pt x="1363" y="405" on="0"/>
        <pt x="1363" y="1000" on="0"/>
        <pt x="1026" y="1375" on="0"/>
        <pt x="751" y="1375" on="1"/>
        <pt x="479" y="1375" on="1"/>
        <pt x="454" y="1375" on="0"/>
        <pt x="454" y="1348" on="1"/>
        <pt x="454" y="750" on="1"/>
        <pt x="782" y="750" on="1"/>
        <pt x="803" y="750" on="0"/>
        <pt x="803" y="725" on="1"/>
      </contour>
    </TTGlyph>
    <TTGlyph name="Eth.sc" xMin="47" yMin="0" xMax="1130" yMax="973">
      <contour>
        <pt x="72" y="50" on="1"/>
        <pt x="194" y="50" on="0"/>
        <pt x="194" y="128" on="1"/>
        <pt x="194" y="456" on="1"/>
        <pt x="61" y="456" on="1"/>
        <pt x="47" y="456" on="0"/>
        <pt x="47" y="472" on="1"/>
        <pt x="47" y="518" on="1"/>
        <pt x="47" y="533" on="0"/>
        <pt x="61" y="533" on="1"/>
        <pt x="194" y="533" on="1"/>
        <pt x="194" y="831" on="1"/>
        <pt x="194" y="887" on="0"/>
        <pt x="132" y="902" on="1"/>
        <pt x="116" y="906" on="0"/>
        <pt x="101" y="906" on="1"/>
        <pt x="58" y="906" on="1"/>
        <pt x="53" y="906" on="0"/>
        <pt x="53" y="912" on="1"/>
        <pt x="53" y="951" on="1"/>
        <pt x="53" y="955" on="0"/>
        <pt x="58" y="955" on="1"/>
        <pt x="320" y="967" on="1"/>
        <pt x="437" y="973" on="0"/>
        <pt x="507" y="973" on="1"/>
        <pt x="799" y="973" on="0"/>
        <pt x="1049" y="798" on="0"/>
        <pt x="1104" y="642" on="1"/>
        <pt x="1130" y="567" on="0"/>
        <pt x="1130" y="384" on="0"/>
        <pt x="1042" y="203" on="0"/>
        <pt x="968" y="138" on="1"/>
        <pt x="814" y="0" on="0"/>
        <pt x="600" y="0" on="1"/>
        <pt x="58" y="0" on="1"/>
        <pt x="53" y="0" on="0"/>
        <pt x="53" y="5" on="1"/>
        <pt x="53" y="45" on="1"/>
        <pt x="53" y="50" on="0"/>
        <pt x="58" y="50" on="1"/>
      </contour>
      <contour>
        <pt x="357" y="115" on="1"/>
        <pt x="357" y="67" on="0"/>
        <pt x="450" y="64" on="1"/>
        <pt x="478" y="63" on="0"/>
        <pt x="615" y="63" on="0"/>
        <pt x="698" y="89" on="1"/>
        <pt x="956" y="169" on="0"/>
        <pt x="956" y="482" on="1"/>
        <pt x="956" y="671" on="0"/>
        <pt x="740" y="910" on="0"/>
        <pt x="557" y="910" on="1"/>
        <pt x="374" y="910" on="1"/>
        <pt x="357" y="910" on="0"/>
        <pt x="357" y="892" on="1"/>
        <pt x="357" y="533" on="1"/>
        <pt x="576" y="533" on="1"/>
        <pt x="590" y="533" on="0"/>
        <pt x="590" y="518" on="1"/>
        <pt x="590" y="472" on="1"/>
        <pt x="590" y="456" on="0"/>
        <pt x="576" y="456" on="1"/>
        <pt x="357" y="456" on="1"/>
      </contour>
    </TTGlyph>
    <TTGlyph name="Euro" xMin="25" yMin="-27" xMax="1144" yMax="1379">
      <contour>
        <pt x="25" y="564" on="1"/>
        <pt x="25" y="589" on="0"/>
        <pt x="52" y="589" on="1"/>
        <pt x="171" y="589" on="1"/>
        <pt x="169" y="606" on="0"/>
        <pt x="169" y="624" on="1"/>
        <pt x="169" y="680" on="1"/>
        <pt x="169" y="718" on="0"/>
        <pt x="175" y="774" on="1"/>
        <pt x="52" y="774" on="1"/>
        <pt x="25" y="774" on="0"/>
        <pt x="25" y="799" on="1"/>
        <pt x="25" y="835" on="1"/>
        <pt x="25" y="860" on="0"/>
        <pt x="52" y="860" on="1"/>
        <pt x="189" y="860" on="1"/>
        <pt x="238" y="1094" on="0"/>
        <pt x="547" y="1379" on="0"/>
        <pt x="751" y="1379" on="1"/>
        <pt x="854" y="1379" on="0"/>
        <pt x="1020" y="1316" on="1"/>
        <pt x="1082" y="1292" on="0"/>
        <pt x="1090" y="1292" on="1"/>
        <pt x="1112" y="1299" on="1"/>
        <pt x="1135" y="1299" on="1"/>
        <pt x="1144" y="1299" on="0"/>
        <pt x="1144" y="1283" on="1"/>
        <pt x="1144" y="988" on="1"/>
        <pt x="1144" y="978" on="0"/>
        <pt x="1116" y="978" on="0"/>
        <pt x="1114" y="984" on="1"/>
        <pt x="1112" y="991" on="0"/>
        <pt x="1099" y="1021" on="0"/>
        <pt x="1097" y="1027" on="1"/>
        <pt x="983" y="1314" on="0"/>
        <pt x="763" y="1314" on="1"/>
        <pt x="584" y="1314" on="0"/>
        <pt x="356" y="1063" on="0"/>
        <pt x="338" y="860" on="1"/>
        <pt x="991" y="860" on="1"/>
        <pt x="1018" y="860" on="0"/>
        <pt x="1018" y="835" on="1"/>
        <pt x="1018" y="799" on="1"/>
        <pt x="1018" y="774" on="0"/>
        <pt x="991" y="774" on="1"/>
        <pt x="333" y="774" on="1"/>
        <pt x="332" y="759" on="0"/>
        <pt x="332" y="744" on="1"/>
        <pt x="332" y="712" on="1"/>
        <pt x="332" y="649" on="0"/>
        <pt x="336" y="589" on="1"/>
        <pt x="880" y="589" on="1"/>
        <pt x="907" y="589" on="0"/>
        <pt x="907" y="564" on="1"/>
        <pt x="907" y="528" on="1"/>
        <pt x="907" y="503" on="0"/>
        <pt x="880" y="503" on="1"/>
        <pt x="345" y="503" on="1"/>
        <pt x="391" y="179" on="0"/>
        <pt x="598" y="76" on="1"/>
        <pt x="669" y="40" on="0"/>
        <pt x="746" y="40" on="1"/>
        <pt x="879" y="40" on="0"/>
        <pt x="1047" y="204" on="0"/>
        <pt x="1116" y="351" on="1"/>
        <pt x="1118" y="357" on="0"/>
        <pt x="1125" y="357" on="1"/>
        <pt x="1135" y="357" on="1"/>
        <pt x="1142" y="357" on="0"/>
        <pt x="1142" y="332" on="0"/>
        <pt x="1138" y="324" on="1"/>
        <pt x="1034" y="35" on="1"/>
        <pt x="1032" y="28" on="0"/>
        <pt x="1025" y="28" on="1"/>
        <pt x="984" y="42" on="0"/>
        <pt x="907" y="16" on="0"/>
        <pt x="771" y="-27" on="0"/>
        <pt x="605" y="-27" on="0"/>
        <pt x="428" y="47" on="0"/>
        <pt x="360" y="116" on="1"/>
        <pt x="216" y="259" on="0"/>
        <pt x="180" y="503" on="1"/>
        <pt x="52" y="503" on="1"/>
        <pt x="25" y="503" on="0"/>
        <pt x="25" y="528" on="1"/>
      </contour>
    </TTGlyph>
    <TTGlyph name="F" xMin="86" yMin="0" xMax="1062" yMax="1410">
      <contour>
        <pt x="858" y="809" on="1"/>
        <pt x="992" y="809" on="0"/>
        <pt x="992" y="940" on="1"/>
        <pt x="992" y="948" on="0"/>
        <pt x="1000" y="948" on="1"/>
        <pt x="1024" y="948" on="1"/>
        <pt x="1032" y="948" on="0"/>
        <pt x="1032" y="940" on="1"/>
        <pt x="1032" y="568" on="1"/>
        <pt x="1032" y="560" on="0"/>
        <pt x="1024" y="560" on="1"/>
        <pt x="1000" y="560" on="1"/>
        <pt x="992" y="560" on="0"/>
        <pt x="992" y="568" on="1"/>
        <pt x="992" y="660" on="0"/>
        <pt x="940" y="695" on="1"/>
        <pt x="912" y="714" on="0"/>
        <pt x="860" y="714" on="1"/>
        <pt x="466" y="714" on="1"/>
        <pt x="442" y="714" on="0"/>
        <pt x="442" y="687" on="1"/>
        <pt x="442" y="173" on="1"/>
        <pt x="442" y="105" on="0"/>
        <pt x="605" y="40" on="0"/>
        <pt x="648" y="40" on="0"/>
        <pt x="648" y="32" on="1"/>
        <pt x="648" y="8" on="1"/>
        <pt x="648" y="0" on="0"/>
        <pt x="640" y="0" on="1"/>
        <pt x="94" y="0" on="1"/>
        <pt x="86" y="0" on="0"/>
        <pt x="86" y="8" on="1"/>
        <pt x="86" y="32" on="1"/>
        <pt x="86" y="40" on="0"/>
        <pt x="120" y="40" on="0"/>
        <pt x="192" y="72" on="0"/>
        <pt x="247" y="135" on="0"/>
        <pt x="247" y="180" on="1"/>
        <pt x="247" y="1260" on="1"/>
        <pt x="247" y="1325" on="0"/>
        <pt x="178" y="1353" on="1"/>
        <pt x="138" y="1370" on="0"/>
        <pt x="99" y="1370" on="1"/>
        <pt x="95" y="1370" on="1"/>
        <pt x="87" y="1370" on="0"/>
        <pt x="87" y="1378" on="1"/>
        <pt x="87" y="1402" on="1"/>
        <pt x="87" y="1410" on="0"/>
        <pt x="95" y="1410" on="1"/>
        <pt x="1038" y="1410" on="1"/>
        <pt x="1050" y="1408" on="0"/>
        <pt x="1062" y="1401" on="0"/>
        <pt x="1062" y="1387" on="1"/>
        <pt x="1062" y="1145" on="1"/>
        <pt x="1062" y="1133" on="0"/>
        <pt x="1055" y="1127" on="0"/>
        <pt x="1046" y="1127" on="1"/>
        <pt x="1034" y="1127" on="1"/>
        <pt x="1032" y="1128" on="0"/>
        <pt x="1009" y="1235" on="0"/>
        <pt x="985" y="1264" on="1"/>
        <pt x="944" y="1308" on="0"/>
        <pt x="892" y="1313" on="1"/>
        <pt x="871" y="1315" on="0"/>
        <pt x="841" y="1315" on="1"/>
        <pt x="462" y="1315" on="1"/>
        <pt x="442" y="1315" on="0"/>
        <pt x="442" y="1295" on="1"/>
        <pt x="442" y="832" on="1"/>
        <pt x="442" y="809" on="0"/>
        <pt x="466" y="809" on="1"/>
      </contour>
    </TTGlyph>
    <TTGlyph name="F.01" xMin="106" yMin="0" xMax="1083" yMax="1410">
      <component glyphName="F" x="1169" y="0" scalex="-1.0" scaley="1.0" flags="0x1004"/>
    </TTGlyph>
    <TTGlyph name="F.ins" xMin="50" yMin="-620" xMax="1106" yMax="1411">
      <contour>
        <pt x="62" y="-620" on="1"/>
        <pt x="50" y="-617" on="0"/>
        <pt x="50" y="-589" on="0"/>
        <pt x="73" y="-579" on="0"/>
        <pt x="108" y="-573" on="0"/>
        <pt x="180" y="-555" on="0"/>
        <pt x="244" y="-495" on="0"/>
        <pt x="244" y="-430" on="1"/>
        <pt x="244" y="1104" on="1"/>
        <pt x="244" y="1155" on="0"/>
        <pt x="186" y="1176" on="1"/>
        <pt x="162" y="1185" on="0"/>
        <pt x="103" y="1196" on="0"/>
        <pt x="69" y="1206" on="0"/>
        <pt x="61" y="1215" on="0"/>
        <pt x="61" y="1244" on="0"/>
        <pt x="80" y="1254" on="1"/>
        <pt x="399" y="1404" on="1"/>
        <pt x="404" y="1406" on="0"/>
        <pt x="415" y="1411" on="0"/>
        <pt x="417" y="1411" on="1"/>
        <pt x="439" y="1411" on="0"/>
        <pt x="439" y="1381" on="1"/>
        <pt x="439" y="1179" on="1"/>
        <pt x="439" y="1164" on="0"/>
        <pt x="452" y="1164" on="0"/>
        <pt x="464" y="1176" on="1"/>
        <pt x="606" y="1389" on="0"/>
        <pt x="694" y="1389" on="1"/>
        <pt x="774" y="1389" on="0"/>
        <pt x="1039" y="1265" on="1"/>
        <pt x="1106" y="1233" on="0"/>
        <pt x="1106" y="1221" on="1"/>
        <pt x="1106" y="1191" on="0"/>
        <pt x="1049" y="1074" on="0"/>
        <pt x="1020" y="1074" on="1"/>
        <pt x="1017" y="1074" on="1"/>
        <pt x="994" y="1082" on="0"/>
        <pt x="688" y="1212" on="0"/>
        <pt x="645" y="1212" on="1"/>
        <pt x="568" y="1212" on="0"/>
        <pt x="439" y="1067" on="0"/>
        <pt x="439" y="1007" on="1"/>
        <pt x="439" y="344" on="1"/>
        <pt x="440" y="337" on="0"/>
        <pt x="451" y="337" on="1"/>
        <pt x="960" y="337" on="1"/>
        <pt x="997" y="337" on="0"/>
        <pt x="1022" y="319" on="0"/>
        <pt x="1022" y="265" on="0"/>
        <pt x="977" y="227" on="0"/>
        <pt x="954" y="224" on="1"/>
        <pt x="455" y="224" on="1"/>
        <pt x="439" y="224" on="0"/>
        <pt x="439" y="211" on="1"/>
        <pt x="439" y="-405" on="1"/>
        <pt x="439" y="-584" on="0"/>
        <pt x="749" y="-584" on="1"/>
        <pt x="771" y="-585" on="0"/>
        <pt x="771" y="-600" on="1"/>
        <pt x="771" y="-620" on="0"/>
        <pt x="749" y="-620" on="1"/>
      </contour>
    </TTGlyph>
    <TTGlyph name="F.sc" xMin="83" yMin="0" xMax="792" yMax="945">
      <contour>
        <pt x="633" y="547" on="1"/>
        <pt x="723" y="547" on="0"/>
        <pt x="723" y="635" on="1"/>
        <pt x="723" y="640" on="0"/>
        <pt x="729" y="640" on="1"/>
        <pt x="765" y="640" on="1"/>
        <pt x="771" y="640" on="0"/>
        <pt x="771" y="635" on="1"/>
        <pt x="771" y="375" on="1"/>
        <pt x="771" y="370" on="0"/>
        <pt x="765" y="370" on="1"/>
        <pt x="729" y="370" on="1"/>
        <pt x="723" y="370" on="0"/>
        <pt x="723" y="375" on="1"/>
        <pt x="723" y="474" on="0"/>
        <pt x="635" y="474" on="1"/>
        <pt x="371" y="474" on="1"/>
        <pt x="355" y="474" on="0"/>
        <pt x="355" y="455" on="1"/>
        <pt x="355" y="126" on="1"/>
        <pt x="355" y="91" on="0"/>
        <pt x="438" y="48" on="0"/>
        <pt x="487" y="48" on="1"/>
        <pt x="492" y="48" on="0"/>
        <pt x="492" y="42" on="1"/>
        <pt x="492" y="5" on="1"/>
        <pt x="492" y="0" on="0"/>
        <pt x="487" y="0" on="1"/>
        <pt x="88" y="0" on="1"/>
        <pt x="83" y="0" on="0"/>
        <pt x="83" y="5" on="1"/>
        <pt x="83" y="42" on="1"/>
        <pt x="83" y="48" on="0"/>
        <pt x="130" y="48" on="0"/>
        <pt x="191" y="98" on="0"/>
        <pt x="191" y="131" on="1"/>
        <pt x="191" y="823" on="1"/>
        <pt x="191" y="866" on="0"/>
        <pt x="145" y="886" on="1"/>
        <pt x="117" y="897" on="0"/>
        <pt x="91" y="897" on="1"/>
        <pt x="89" y="897" on="1"/>
        <pt x="84" y="897" on="0"/>
        <pt x="84" y="902" on="1"/>
        <pt x="84" y="939" on="1"/>
        <pt x="84" y="945" on="0"/>
        <pt x="89" y="945" on="1"/>
        <pt x="775" y="945" on="1"/>
        <pt x="783" y="943" on="0"/>
        <pt x="792" y="939" on="0"/>
        <pt x="792" y="929" on="1"/>
        <pt x="792" y="757" on="1"/>
        <pt x="792" y="744" on="0"/>
        <pt x="775" y="744" on="1"/>
        <pt x="752" y="744" on="1"/>
        <pt x="751" y="744" on="0"/>
        <pt x="748" y="756" on="1"/>
        <pt x="735" y="819" on="0"/>
        <pt x="697" y="858" on="0"/>
        <pt x="662" y="870" on="0"/>
        <pt x="623" y="870" on="1"/>
        <pt x="369" y="870" on="1"/>
        <pt x="355" y="870" on="0"/>
        <pt x="355" y="857" on="1"/>
        <pt x="355" y="563" on="1"/>
        <pt x="355" y="547" on="0"/>
        <pt x="371" y="547" on="1"/>
      </contour>
    </TTGlyph>
    <TTGlyph name="Fraktur_ph" xMin="125" yMin="0" xMax="1799" yMax="1645">
      <contour>
        <pt x="125" y="1245" on="1"/>
        <pt x="125" y="1411" on="0"/>
        <pt x="359" y="1645" on="0"/>
        <pt x="525" y="1645" on="1"/>
        <pt x="1399" y="1645" on="1"/>
        <pt x="1565" y="1645" on="0"/>
        <pt x="1799" y="1411" on="0"/>
        <pt x="1799" y="1245" on="1"/>
        <pt x="1799" y="400" on="1"/>
        <pt x="1799" y="233" on="0"/>
        <pt x="1563" y="0" on="0"/>
        <pt x="1398" y="0" on="1"/>
        <pt x="526" y="0" on="1"/>
        <pt x="361" y="0" on="0"/>
        <pt x="125" y="233" on="0"/>
        <pt x="125" y="400" on="1"/>
      </contour>
      <contour>
        <pt x="526" y="1495" on="1"/>
        <pt x="422" y="1495" on="0"/>
        <pt x="275" y="1348" on="0"/>
        <pt x="275" y="1245" on="1"/>
        <pt x="275" y="400" on="1"/>
        <pt x="275" y="296" on="0"/>
        <pt x="424" y="150" on="0"/>
        <pt x="526" y="150" on="1"/>
        <pt x="1398" y="150" on="1"/>
        <pt x="1500" y="150" on="0"/>
        <pt x="1649" y="296" on="0"/>
        <pt x="1649" y="400" on="1"/>
        <pt x="1649" y="1245" on="1"/>
        <pt x="1649" y="1348" on="0"/>
        <pt x="1502" y="1495" on="0"/>
        <pt x="1398" y="1495" on="1"/>
      </contour>
      <contour>
        <pt x="1406" y="963" on="1"/>
        <pt x="1407" y="1024" on="1"/>
        <pt x="1407" y="1121" on="0"/>
        <pt x="1335" y="1189" on="0"/>
        <pt x="1246" y="1189" on="1"/>
        <pt x="1179" y="1169" on="0"/>
        <pt x="1148" y="1116" on="1"/>
        <pt x="1142" y="1104" on="0"/>
        <pt x="1135" y="1094" on="0"/>
        <pt x="1135" y="1081" on="0"/>
        <pt x="1145" y="1069" on="0"/>
        <pt x="1165" y="965" on="0"/>
        <pt x="1165" y="876" on="1"/>
        <pt x="1165" y="662" on="0"/>
        <pt x="957" y="360" on="0"/>
        <pt x="934" y="360" on="1"/>
        <pt x="926" y="360" on="0"/>
        <pt x="908" y="378" on="0"/>
        <pt x="864" y="418" on="0"/>
        <pt x="820" y="418" on="0"/>
        <pt x="799" y="391" on="0"/>
        <pt x="789" y="384" on="1"/>
        <pt x="772" y="384" on="0"/>
        <pt x="772" y="394" on="1"/>
        <pt x="772" y="418" on="0"/>
        <pt x="852" y="510" on="0"/>
        <pt x="893" y="510" on="0"/>
        <pt x="937" y="484" on="0"/>
        <pt x="977" y="459" on="1"/>
        <pt x="1017" y="479" on="0"/>
        <pt x="1070" y="688" on="0"/>
        <pt x="1070" y="752" on="1"/>
        <pt x="1070" y="1120" on="0"/>
        <pt x="938" y="1192" on="1"/>
        <pt x="922" y="1201" on="0"/>
        <pt x="869" y="1201" on="0"/>
        <pt x="832" y="1158" on="0"/>
        <pt x="832" y="1115" on="0"/>
        <pt x="877" y="970" on="0"/>
        <pt x="877" y="876" on="1"/>
        <pt x="877" y="546" on="0"/>
        <pt x="683" y="398" on="1"/>
        <pt x="671" y="378" on="0"/>
        <pt x="639" y="360" on="0"/>
        <pt x="630" y="360" on="0"/>
        <pt x="623" y="369" on="1"/>
        <pt x="585" y="418" on="0"/>
        <pt x="539" y="418" on="1"/>
        <pt x="530" y="418" on="0"/>
        <pt x="504" y="389" on="0"/>
        <pt x="479" y="389" on="0"/>
        <pt x="479" y="410" on="0"/>
        <pt x="562" y="513" on="0"/>
        <pt x="609" y="513" on="0"/>
        <pt x="682" y="464" on="0"/>
        <pt x="695" y="461" on="1"/>
        <pt x="789" y="527" on="0"/>
        <pt x="789" y="727" on="1"/>
        <pt x="789" y="787" on="0"/>
        <pt x="769" y="950" on="1"/>
        <pt x="745" y="1090" on="0"/>
        <pt x="651" y="1146" on="1"/>
        <pt x="611" y="1169" on="0"/>
        <pt x="499" y="1169" on="0"/>
        <pt x="425" y="1060" on="0"/>
        <pt x="425" y="1003" on="1"/>
        <pt x="425" y="887" on="0"/>
        <pt x="527" y="826" on="1"/>
        <pt x="533" y="822" on="0"/>
        <pt x="550" y="815" on="0"/>
        <pt x="575" y="800" on="0"/>
        <pt x="575" y="777" on="0"/>
        <pt x="566" y="777" on="1"/>
        <pt x="498" y="777" on="0"/>
        <pt x="387" y="935" on="0"/>
        <pt x="387" y="999" on="1"/>
        <pt x="387" y="1114" on="0"/>
        <pt x="523" y="1261" on="0"/>
        <pt x="728" y="1261" on="0"/>
        <pt x="783" y="1189" on="1"/>
        <pt x="784" y="1187" on="0"/>
        <pt x="791" y="1178" on="0"/>
        <pt x="797" y="1168" on="0"/>
        <pt x="802" y="1160" on="1"/>
        <pt x="804" y="1160" on="0"/>
        <pt x="821" y="1197" on="0"/>
        <pt x="839" y="1218" on="1"/>
        <pt x="888" y="1277" on="0"/>
        <pt x="958" y="1277" on="1"/>
        <pt x="958" y="1276" on="0"/>
        <pt x="959" y="1276" on="1"/>
        <pt x="960" y="1276" on="1"/>
        <pt x="1045" y="1271" on="0"/>
        <pt x="1097" y="1189" on="1"/>
        <pt x="1104" y="1167" on="0"/>
        <pt x="1123" y="1140" on="0"/>
        <pt x="1127" y="1140" on="1"/>
        <pt x="1165" y="1258" on="0"/>
        <pt x="1326" y="1258" on="1"/>
        <pt x="1403" y="1258" on="0"/>
        <pt x="1458" y="1194" on="1"/>
        <pt x="1493" y="1152" on="0"/>
        <pt x="1499" y="1062" on="0"/>
        <pt x="1499" y="1014" on="0"/>
        <pt x="1520" y="985" on="1"/>
        <pt x="1520" y="962" on="0"/>
        <pt x="1484" y="960" on="1"/>
        <pt x="1386" y="955" on="0"/>
        <pt x="1374" y="825" on="1"/>
        <pt x="1371" y="792" on="0"/>
        <pt x="1371" y="615" on="0"/>
        <pt x="1374" y="522" on="1"/>
        <pt x="1377" y="486" on="0"/>
        <pt x="1420" y="459" on="1"/>
        <pt x="1431" y="452" on="0"/>
        <pt x="1449" y="452" on="0"/>
        <pt x="1492" y="488" on="0"/>
        <pt x="1513" y="488" on="0"/>
        <pt x="1513" y="468" on="0"/>
        <pt x="1502" y="455" on="0"/>
        <pt x="1473" y="431" on="0"/>
        <pt x="1423" y="392" on="0"/>
        <pt x="1383" y="360" on="1"/>
        <pt x="1347" y="360" on="0"/>
        <pt x="1270" y="444" on="0"/>
        <pt x="1270" y="478" on="1"/>
        <pt x="1270" y="807" on="1"/>
        <pt x="1270" y="907" on="0"/>
      </contour>
    </TTGlyph>
    <TTGlyph name="G" xMin="115" yMin="8" xMax="1571" yMax="1448">
      <contour>
        <pt x="1560" y="620" on="1"/>
        <pt x="1571" y="620" on="0"/>
        <pt x="1571" y="589" on="0"/>
        <pt x="1560" y="583" on="1"/>
        <pt x="1533" y="572" on="0"/>
        <pt x="1476" y="556" on="0"/>
        <pt x="1452" y="543" on="1"/>
        <pt x="1397" y="513" on="0"/>
        <pt x="1397" y="446" on="1"/>
        <pt x="1397" y="121" on="1"/>
        <pt x="1397" y="99" on="0"/>
        <pt x="1186" y="25" on="0"/>
        <pt x="1120" y="8" on="1"/>
        <pt x="811" y="-68" on="0"/>
        <pt x="568" y="24" on="1"/>
        <pt x="289" y="131" on="0"/>
        <pt x="173" y="407" on="1"/>
        <pt x="115" y="545" on="0"/>
        <pt x="115" y="818" on="0"/>
        <pt x="142" y="911" on="1"/>
        <pt x="224" y="1195" on="0"/>
        <pt x="486" y="1348" on="1"/>
        <pt x="657" y="1448" on="0"/>
        <pt x="1034" y="1448" on="0"/>
        <pt x="1246" y="1372" on="1"/>
        <pt x="1285" y="1358" on="0"/>
        <pt x="1290" y="1358" on="1"/>
        <pt x="1302" y="1358" on="1"/>
        <pt x="1342" y="1368" on="1"/>
        <pt x="1367" y="1368" on="1"/>
        <pt x="1378" y="1368" on="0"/>
        <pt x="1378" y="1357" on="1"/>
        <pt x="1378" y="1024" on="1"/>
        <pt x="1378" y="1005" on="0"/>
        <pt x="1356" y="1005" on="1"/>
        <pt x="1352" y="1005" on="1"/>
        <pt x="1333" y="1007" on="0"/>
        <pt x="1326" y="1056" on="1"/>
        <pt x="1324" y="1066" on="0"/>
        <pt x="1323" y="1071" on="1"/>
        <pt x="1223" y="1384" on="0"/>
        <pt x="901" y="1384" on="1"/>
        <pt x="643" y="1384" on="0"/>
        <pt x="336" y="994" on="0"/>
        <pt x="336" y="456" on="0"/>
        <pt x="645" y="43" on="0"/>
        <pt x="915" y="43" on="1"/>
        <pt x="1054" y="43" on="0"/>
        <pt x="1144" y="86" on="1"/>
        <pt x="1179" y="103" on="0"/>
        <pt x="1198" y="129" on="1"/>
        <pt x="1198" y="403" on="1"/>
        <pt x="1198" y="496" on="0"/>
        <pt x="1092" y="583" on="0"/>
        <pt x="950" y="583" on="1"/>
        <pt x="939" y="583" on="0"/>
        <pt x="939" y="620" on="0"/>
        <pt x="950" y="620" on="1"/>
      </contour>
    </TTGlyph>
    <TTGlyph name="G.01_ins" xMin="7" yMin="0" xMax="1173" yMax="1410">
      <contour>
        <pt x="7" y="36" on="1"/>
        <pt x="7" y="44" on="0"/>
        <pt x="15" y="44" on="1"/>
        <pt x="37" y="44" on="1"/>
        <pt x="79" y="47" on="0"/>
        <pt x="167" y="48" on="0"/>
        <pt x="203" y="58" on="1"/>
        <pt x="285" y="82" on="0"/>
        <pt x="285" y="178" on="1"/>
        <pt x="285" y="1232" on="1"/>
        <pt x="285" y="1331" on="0"/>
        <pt x="168" y="1358" on="1"/>
        <pt x="135" y="1365" on="0"/>
        <pt x="101" y="1370" on="1"/>
        <pt x="80" y="1370" on="1"/>
        <pt x="72" y="1370" on="0"/>
        <pt x="72" y="1378" on="1"/>
        <pt x="72" y="1402" on="1"/>
        <pt x="72" y="1410" on="0"/>
        <pt x="80" y="1410" on="1"/>
        <pt x="1091" y="1410" on="1"/>
        <pt x="1109" y="1410" on="0"/>
        <pt x="1125" y="1397" on="0"/>
        <pt x="1127" y="1375" on="1"/>
        <pt x="1145" y="1085" on="1"/>
        <pt x="1145" y="1075" on="0"/>
        <pt x="1115" y="1075" on="0"/>
        <pt x="1108" y="1084" on="1"/>
        <pt x="1102" y="1094" on="0"/>
        <pt x="1083" y="1220" on="0"/>
        <pt x="1033" y="1304" on="0"/>
        <pt x="970" y="1315" on="1"/>
        <pt x="493" y="1315" on="1"/>
        <pt x="480" y="1315" on="0"/>
        <pt x="480" y="1302" on="1"/>
        <pt x="480" y="183" on="1"/>
        <pt x="480" y="108" on="0"/>
        <pt x="549" y="98" on="1"/>
        <pt x="569" y="95" on="0"/>
        <pt x="591" y="95" on="1"/>
        <pt x="902" y="95" on="1"/>
        <pt x="999" y="95" on="0"/>
        <pt x="1042" y="179" on="1"/>
        <pt x="1069" y="231" on="0"/>
        <pt x="1078" y="324" on="1"/>
        <pt x="1078" y="462" on="1"/>
        <pt x="1078" y="551" on="0"/>
        <pt x="977" y="566" on="1"/>
        <pt x="950" y="570" on="0"/>
        <pt x="857" y="575" on="0"/>
        <pt x="838" y="589" on="0"/>
        <pt x="838" y="619" on="0"/>
        <pt x="848" y="619" on="1"/>
        <pt x="1138" y="619" on="1"/>
        <pt x="1160" y="617" on="0"/>
        <pt x="1173" y="601" on="0"/>
        <pt x="1173" y="583" on="1"/>
        <pt x="1173" y="14" on="1"/>
        <pt x="1173" y="9" on="0"/>
        <pt x="1164" y="0" on="0"/>
        <pt x="1159" y="0" on="1"/>
        <pt x="15" y="0" on="1"/>
        <pt x="7" y="0" on="0"/>
        <pt x="7" y="8" on="1"/>
      </contour>
    </TTGlyph>
    <TTGlyph name="G.ins" xMin="109" yMin="-640" xMax="1342" yMax="1465">
      <contour>
        <pt x="151" y="1121" on="1"/>
        <pt x="120" y="1121" on="0"/>
        <pt x="120" y="1180" on="1"/>
        <pt x="120" y="1203" on="0"/>
        <pt x="136" y="1238" on="1"/>
        <pt x="155" y="1277" on="0"/>
        <pt x="227" y="1446" on="0"/>
        <pt x="240" y="1465" on="0"/>
        <pt x="265" y="1465" on="0"/>
        <pt x="292" y="1426" on="0"/>
        <pt x="292" y="1401" on="0"/>
        <pt x="261" y="1324" on="0"/>
        <pt x="261" y="1291" on="1"/>
        <pt x="1322" y="1291" on="1"/>
        <pt x="1342" y="1291" on="0"/>
        <pt x="1342" y="1271" on="1"/>
        <pt x="1287" y="1128" on="1"/>
        <pt x="1285" y="1121" on="0"/>
        <pt x="1272" y="1121" on="1"/>
        <pt x="832" y="1121" on="1"/>
        <pt x="809" y="1096" on="0"/>
        <pt x="602" y="905" on="0"/>
        <pt x="486" y="763" on="0"/>
        <pt x="486" y="642" on="0"/>
        <pt x="546" y="548" on="0"/>
        <pt x="644" y="470" on="0"/>
        <pt x="770" y="402" on="0"/>
        <pt x="836" y="365" on="1"/>
        <pt x="1001" y="272" on="0"/>
        <pt x="1076" y="184" on="1"/>
        <pt x="1185" y="56" on="0"/>
        <pt x="1185" y="-128" on="1"/>
        <pt x="1185" y="-350" on="0"/>
        <pt x="872" y="-640" on="0"/>
        <pt x="413" y="-640" on="0"/>
        <pt x="109" y="-343" on="0"/>
        <pt x="109" y="-133" on="1"/>
        <pt x="109" y="-2" on="0"/>
        <pt x="156" y="83" on="1"/>
        <pt x="285" y="313" on="0"/>
        <pt x="534" y="367" on="1"/>
        <pt x="406" y="415" on="0"/>
        <pt x="280" y="588" on="0"/>
        <pt x="280" y="673" on="1"/>
        <pt x="280" y="826" on="0"/>
        <pt x="554" y="1063" on="1"/>
        <pt x="591" y="1095" on="0"/>
        <pt x="621" y="1121" on="1"/>
      </contour>
      <contour>
        <pt x="302" y="-136" on="1"/>
        <pt x="302" y="-310" on="0"/>
        <pt x="382" y="-436" on="1"/>
        <pt x="477" y="-586" on="0"/>
        <pt x="815" y="-586" on="0"/>
        <pt x="981" y="-322" on="0"/>
        <pt x="981" y="9" on="0"/>
        <pt x="895" y="151" on="1"/>
        <pt x="797" y="313" on="0"/>
        <pt x="622" y="313" on="1"/>
        <pt x="500" y="313" on="0"/>
        <pt x="332" y="121" on="0"/>
        <pt x="302" y="-64" on="0"/>
      </contour>
    </TTGlyph>
    <TTGlyph name="G.sc" xMin="104" yMin="11" xMax="1121" yMax="970">
      <contour>
        <pt x="1114" y="416" on="1"/>
        <pt x="1121" y="416" on="0"/>
        <pt x="1121" y="393" on="1"/>
        <pt x="1121" y="373" on="0"/>
        <pt x="1096" y="362" on="0"/>
        <pt x="1077" y="357" on="1"/>
        <pt x="1005" y="338" on="0"/>
        <pt x="1005" y="278" on="1"/>
        <pt x="1005" y="91" on="1"/>
        <pt x="1005" y="79" on="0"/>
        <pt x="857" y="24" on="0"/>
        <pt x="808" y="11" on="1"/>
        <pt x="596" y="-46" on="0"/>
        <pt x="231" y="88" on="0"/>
        <pt x="146" y="272" on="1"/>
        <pt x="104" y="365" on="0"/>
        <pt x="104" y="474" on="1"/>
        <pt x="104" y="680" on="0"/>
        <pt x="418" y="970" on="0"/>
        <pt x="621" y="970" on="1"/>
        <pt x="742" y="970" on="0"/>
        <pt x="883" y="918" on="1"/>
        <pt x="909" y="909" on="0"/>
        <pt x="912" y="909" on="1"/>
        <pt x="921" y="909" on="1"/>
        <pt x="947" y="917" on="1"/>
        <pt x="985" y="917" on="1"/>
        <pt x="992" y="917" on="0"/>
        <pt x="992" y="909" on="1"/>
        <pt x="992" y="686" on="1"/>
        <pt x="992" y="673" on="0"/>
        <pt x="978" y="673" on="1"/>
        <pt x="954" y="673" on="1"/>
        <pt x="942" y="675" on="0"/>
        <pt x="936" y="714" on="0"/>
        <pt x="918" y="769" on="0"/>
        <pt x="866" y="838" on="0"/>
        <pt x="766" y="896" on="0"/>
        <pt x="664" y="896" on="1"/>
        <pt x="479" y="896" on="0"/>
        <pt x="294" y="665" on="0"/>
        <pt x="294" y="306" on="0"/>
        <pt x="481" y="60" on="0"/>
        <pt x="662" y="60" on="1"/>
        <pt x="804" y="60" on="0"/>
        <pt x="840" y="107" on="1"/>
        <pt x="840" y="249" on="1"/>
        <pt x="840" y="310" on="0"/>
        <pt x="814" y="332" on="1"/>
        <pt x="770" y="370" on="0"/>
        <pt x="674" y="370" on="1"/>
        <pt x="667" y="370" on="0"/>
        <pt x="667" y="416" on="0"/>
        <pt x="674" y="416" on="1"/>
      </contour>
    </TTGlyph>
    <TTGlyph name="Gamma" xMin="86" yMin="0" xMax="1062" yMax="1410">
      <contour>
        <pt x="87" y="1402" on="1"/>
        <pt x="87" y="1410" on="0"/>
        <pt x="95" y="1410" on="1"/>
        <pt x="1038" y="1410" on="1"/>
        <pt x="1050" y="1408" on="0"/>
        <pt x="1062" y="1401" on="0"/>
        <pt x="1062" y="1387" on="1"/>
        <pt x="1062" y="1145" on="1"/>
        <pt x="1062" y="1133" on="0"/>
        <pt x="1055" y="1127" on="0"/>
        <pt x="1046" y="1127" on="1"/>
        <pt x="1034" y="1127" on="1"/>
        <pt x="1032" y="1128" on="0"/>
        <pt x="1009" y="1235" on="0"/>
        <pt x="985" y="1264" on="1"/>
        <pt x="944" y="1308" on="0"/>
        <pt x="892" y="1313" on="1"/>
        <pt x="871" y="1315" on="0"/>
        <pt x="841" y="1315" on="1"/>
        <pt x="462" y="1315" on="1"/>
        <pt x="442" y="1315" on="0"/>
        <pt x="442" y="1295" on="1"/>
        <pt x="442" y="173" on="1"/>
        <pt x="442" y="105" on="0"/>
        <pt x="605" y="40" on="0"/>
        <pt x="648" y="40" on="0"/>
        <pt x="648" y="32" on="1"/>
        <pt x="648" y="8" on="1"/>
        <pt x="648" y="0" on="0"/>
        <pt x="640" y="0" on="1"/>
        <pt x="94" y="0" on="1"/>
        <pt x="86" y="0" on="0"/>
        <pt x="86" y="8" on="1"/>
        <pt x="86" y="32" on="1"/>
        <pt x="86" y="40" on="0"/>
        <pt x="120" y="40" on="0"/>
        <pt x="192" y="72" on="0"/>
        <pt x="247" y="135" on="0"/>
        <pt x="247" y="180" on="1"/>
        <pt x="247" y="1260" on="1"/>
        <pt x="247" y="1325" on="0"/>
        <pt x="178" y="1353" on="1"/>
        <pt x="138" y="1370" on="0"/>
        <pt x="99" y="1370" on="1"/>
        <pt x="95" y="1370" on="1"/>
        <pt x="87" y="1370" on="0"/>
        <pt x="87" y="1378" on="1"/>
      </contour>
    </TTGlyph>
    <TTGlyph name="Gamma.01" xMin="160" yMin="0" xMax="975" yMax="1410">
      <contour>
        <pt x="355" y="0" on="1"/>
        <pt x="160" y="0" on="1"/>
        <pt x="160" y="1410" on="1"/>
        <pt x="975" y="1410" on="1"/>
        <pt x="975" y="1235" on="1"/>
        <pt x="355" y="1235" on="1"/>
      </contour>
    </TTGlyph>
    <TTGlyph name="Gamma.01r" xMin="79" yMin="0" xMax="895" yMax="1410">
      <component glyphName="Gamma.01" x="1055" y="0" scalex="-1.0" scaley="1.0" flags="0x1004"/>
    </TTGlyph>
    <TTGlyph name="Gamma.02" xMin="100" yMin="0" xMax="1170" yMax="1398">
      <contour>
        <pt x="1170" y="0" on="1"/>
        <pt x="100" y="606" on="1"/>
        <pt x="100" y="778" on="1"/>
        <pt x="1170" y="1398" on="1"/>
        <pt x="1170" y="1215" on="1"/>
        <pt x="288" y="705" on="1"/>
        <pt x="1170" y="205" on="1"/>
      </contour>
    </TTGlyph>
    <TTGlyph name="Gamma.02r" xMin="99" yMin="0" xMax="1170" yMax="1398">
      <component glyphName="Gamma.02" x="1270" y="0" scalex="-1.0" scaley="1.0" flags="0x1004"/>
    </TTGlyph>
    <TTGlyph name="Gamma.03" xMin="160" yMin="0" xMax="975" yMax="1410">
      <contour>
        <pt x="844" y="774" on="1"/>
        <pt x="844" y="665" on="0"/>
        <pt x="758" y="626" on="1"/>
        <pt x="732" y="615" on="0"/>
        <pt x="643" y="615" on="0"/>
        <pt x="558" y="700" on="0"/>
        <pt x="558" y="818" on="0"/>
        <pt x="644" y="901" on="0"/>
        <pt x="764" y="901" on="0"/>
        <pt x="844" y="818" on="0"/>
      </contour>
      <contour>
        <pt x="355" y="0" on="1"/>
        <pt x="160" y="0" on="1"/>
        <pt x="160" y="1410" on="1"/>
        <pt x="975" y="1410" on="1"/>
        <pt x="975" y="1235" on="1"/>
        <pt x="355" y="1235" on="1"/>
      </contour>
    </TTGlyph>
    <TTGlyph name="Gamma.03r" xMin="79" yMin="0" xMax="895" yMax="1410">
      <component glyphName="Gamma.03" x="1055" y="0" scalex="-1.0" scaley="1.0" flags="0x1004"/>
    </TTGlyph>
    <TTGlyph name="Gamma.04" xMin="160" yMin="-1" xMax="975" yMax="1410">
      <component glyphName="Gamma.01" x="0" y="1410" scalex="1.0" scaley="-1.0" flags="0x1004"/>
    </TTGlyph>
    <TTGlyph name="Gamma.04r" xMin="79" yMin="-1" xMax="895" yMax="1410">
      <component glyphName="Gamma.01" x="1055" y="1410" scale="-1.0" flags="0x1004"/>
    </TTGlyph>
    <TTGlyph name="Gamma.05" xMin="160" yMin="0" xMax="975" yMax="1410">
      <contour>
        <pt x="355" y="0" on="1"/>
        <pt x="160" y="0" on="1"/>
        <pt x="160" y="1410" on="1"/>
        <pt x="975" y="890" on="1"/>
        <pt x="975" y="690" on="1"/>
        <pt x="355" y="1085" on="1"/>
      </contour>
    </TTGlyph>
    <TTGlyph name="Gamma.05r" xMin="79" yMin="0" xMax="895" yMax="1410">
      <component glyphName="Gamma.05" x="1055" y="0" scalex="-1.0" scaley="1.0" flags="0x1004"/>
    </TTGlyph>
    <TTGlyph name="Gamma.07" xMin="124" yMin="-26" xMax="864" yMax="1452">
      <component glyphName="u10140" x="914" y="0" scalex="-1.0" scaley="1.0" flags="0x1004"/>
    </TTGlyph>
    <TTGlyph name="Gamma.07r" xMin="50" yMin="-26" xMax="789" yMax="1452">
      <component glyphName="u10140" x="0" y="0" flags="0x1204"/>
    </TTGlyph>
    <TTGlyph name="Gbar" xMin="115" yMin="8" xMax="1598" yMax="1448">
      <contour>
        <pt x="1378" y="1024" on="1"/>
        <pt x="1378" y="1005" on="0"/>
        <pt x="1356" y="1005" on="1"/>
        <pt x="1352" y="1005" on="1"/>
        <pt x="1333" y="1007" on="0"/>
        <pt x="1326" y="1056" on="1"/>
        <pt x="1324" y="1066" on="0"/>
        <pt x="1323" y="1071" on="1"/>
        <pt x="1223" y="1384" on="0"/>
        <pt x="901" y="1384" on="1"/>
        <pt x="643" y="1384" on="0"/>
        <pt x="336" y="994" on="0"/>
        <pt x="336" y="456" on="0"/>
        <pt x="645" y="43" on="0"/>
        <pt x="915" y="43" on="1"/>
        <pt x="1054" y="43" on="0"/>
        <pt x="1144" y="86" on="1"/>
        <pt x="1179" y="103" on="0"/>
        <pt x="1198" y="129" on="1"/>
        <pt x="1198" y="294" on="1"/>
        <pt x="855" y="294" on="1"/>
        <pt x="834" y="294" on="0"/>
        <pt x="834" y="319" on="1"/>
        <pt x="834" y="355" on="1"/>
        <pt x="834" y="380" on="0"/>
        <pt x="855" y="380" on="1"/>
        <pt x="1198" y="380" on="1"/>
        <pt x="1198" y="403" on="1"/>
        <pt x="1198" y="496" on="0"/>
        <pt x="1092" y="583" on="0"/>
        <pt x="950" y="583" on="1"/>
        <pt x="939" y="583" on="0"/>
        <pt x="939" y="620" on="0"/>
        <pt x="950" y="620" on="1"/>
        <pt x="1560" y="620" on="1"/>
        <pt x="1571" y="620" on="0"/>
        <pt x="1571" y="589" on="0"/>
        <pt x="1560" y="583" on="1"/>
        <pt x="1533" y="572" on="0"/>
        <pt x="1476" y="556" on="0"/>
        <pt x="1452" y="543" on="1"/>
        <pt x="1397" y="513" on="0"/>
        <pt x="1397" y="446" on="1"/>
        <pt x="1397" y="380" on="1"/>
        <pt x="1577" y="380" on="1"/>
        <pt x="1598" y="380" on="0"/>
        <pt x="1598" y="355" on="1"/>
        <pt x="1598" y="319" on="1"/>
        <pt x="1598" y="294" on="0"/>
        <pt x="1577" y="294" on="1"/>
        <pt x="1397" y="294" on="1"/>
        <pt x="1397" y="121" on="1"/>
        <pt x="1397" y="99" on="0"/>
        <pt x="1186" y="25" on="0"/>
        <pt x="1120" y="8" on="1"/>
        <pt x="811" y="-68" on="0"/>
        <pt x="568" y="24" on="1"/>
        <pt x="289" y="131" on="0"/>
        <pt x="173" y="407" on="1"/>
        <pt x="115" y="545" on="0"/>
        <pt x="115" y="818" on="0"/>
        <pt x="142" y="911" on="1"/>
        <pt x="224" y="1195" on="0"/>
        <pt x="486" y="1348" on="1"/>
        <pt x="657" y="1448" on="0"/>
        <pt x="1034" y="1448" on="0"/>
        <pt x="1246" y="1372" on="1"/>
        <pt x="1285" y="1358" on="0"/>
        <pt x="1290" y="1358" on="1"/>
        <pt x="1302" y="1358" on="1"/>
        <pt x="1342" y="1368" on="1"/>
        <pt x="1367" y="1368" on="1"/>
        <pt x="1378" y="1368" on="0"/>
        <pt x="1378" y="1357" on="1"/>
      </contour>
    </TTGlyph>
    <TTGlyph name="Gbreve" xMin="115" yMin="8" xMax="1571" yMax="1951">
      <component glyphName="G" x="0" y="0" flags="0x1204"/>
      <component glyphName="breve" x="500" y="543" flags="0x1004"/>
    </TTGlyph>
    <TTGlyph name="Gcaron" xMin="115" yMin="8" xMax="1571" yMax="1950">
      <component glyphName="G" x="0" y="0" flags="0x1204"/>
      <component glyphName="caron" x="530" y="497" flags="0x1004"/>
    </TTGlyph>
    <TTGlyph name="Gcircumflex" xMin="115" yMin="8" xMax="1571" yMax="1950">
      <component glyphName="G" x="0" y="0" flags="0x1204"/>
      <component glyphName="circumflex" x="560" y="497" flags="0x1004"/>
    </TTGlyph>
    <TTGlyph name="Gcommaaccent" xMin="115" yMin="-640" xMax="1571" yMax="1448">
      <component glyphName="G" x="0" y="0" flags="0x1204"/>
      <component glyphName="commaaccent" x="610" y="0" flags="0x1004"/>
    </TTGlyph>
    <TTGlyph name="Gdotaccent" xMin="115" yMin="8" xMax="1571" yMax="1917">
      <component glyphName="G" x="0" y="0" flags="0x1204"/>
      <component glyphName="dotaccent" x="480" y="571" flags="0x1004"/>
    </TTGlyph>
    <TTGlyph name="Germandbls.sc" xMin="86" yMin="-18" xMax="1473" yMax="972">
      <component glyphName="S.sc" x="781" y="0" flags="0x1004"/>
      <component glyphName="S.sc" x="1" y="0" flags="0x1004"/>
    </TTGlyph>
    <TTGlyph name="Goth_ph" xMin="125" yMin="0" xMax="1799" yMax="1645">
      <contour>
        <pt x="901" y="624" on="1"/>
        <pt x="908" y="597" on="0"/>
        <pt x="963" y="597" on="1"/>
        <pt x="1044" y="597" on="1"/>
        <pt x="1055" y="603" on="0"/>
        <pt x="1079" y="618" on="0"/>
        <pt x="1085" y="638" on="1"/>
        <pt x="1080" y="681" on="0"/>
        <pt x="1027" y="811" on="0"/>
        <pt x="1016" y="827" on="0"/>
        <pt x="1010" y="848" on="1"/>
        <pt x="983" y="950" on="0"/>
        <pt x="946" y="950" on="1"/>
        <pt x="915" y="950" on="0"/>
        <pt x="906" y="911" on="1"/>
      </contour>
      <contour>
        <pt x="721" y="221" on="1"/>
        <pt x="695" y="221" on="0"/>
        <pt x="667" y="231" on="0"/>
        <pt x="667" y="271" on="0"/>
        <pt x="688" y="305" on="0"/>
        <pt x="690" y="319" on="1"/>
        <pt x="743" y="906" on="1"/>
        <pt x="784" y="947" on="1"/>
        <pt x="877" y="970" on="0"/>
        <pt x="911" y="1040" on="1"/>
        <pt x="922" y="1062" on="0"/>
        <pt x="922" y="1090" on="1"/>
        <pt x="922" y="1154" on="0"/>
        <pt x="799" y="1264" on="0"/>
        <pt x="681" y="1283" on="1"/>
        <pt x="673" y="1291" on="0"/>
        <pt x="673" y="1301" on="1"/>
        <pt x="673" y="1311" on="0"/>
        <pt x="693" y="1319" on="0"/>
        <pt x="704" y="1324" on="1"/>
        <pt x="1018" y="1311" on="1"/>
        <pt x="1039" y="1301" on="0"/>
        <pt x="1048" y="1279" on="1"/>
        <pt x="1303" y="679" on="0"/>
        <pt x="1328" y="605" on="0"/>
        <pt x="1328" y="583" on="1"/>
        <pt x="1321" y="563" on="0"/>
        <pt x="1297" y="549" on="0"/>
        <pt x="1287" y="544" on="1"/>
        <pt x="902" y="530" on="1"/>
        <pt x="889" y="524" on="0"/>
        <pt x="886" y="506" on="0"/>
        <pt x="884" y="500" on="1"/>
        <pt x="838" y="337" on="1"/>
        <pt x="834" y="323" on="0"/>
        <pt x="830" y="293" on="0"/>
        <pt x="820" y="274" on="1"/>
        <pt x="793" y="221" on="0"/>
        <pt x="749" y="221" on="1"/>
      </contour>
      <contour>
        <pt x="125" y="1245" on="1"/>
        <pt x="125" y="1411" on="0"/>
        <pt x="359" y="1645" on="0"/>
        <pt x="525" y="1645" on="1"/>
        <pt x="1399" y="1645" on="1"/>
        <pt x="1565" y="1645" on="0"/>
        <pt x="1799" y="1411" on="0"/>
        <pt x="1799" y="1245" on="1"/>
        <pt x="1799" y="400" on="1"/>
        <pt x="1799" y="233" on="0"/>
        <pt x="1563" y="0" on="0"/>
        <pt x="1398" y="0" on="1"/>
        <pt x="526" y="0" on="1"/>
        <pt x="361" y="0" on="0"/>
        <pt x="125" y="233" on="0"/>
        <pt x="125" y="400" on="1"/>
      </contour>
      <contour>
        <pt x="526" y="1495" on="1"/>
        <pt x="422" y="1495" on="0"/>
        <pt x="275" y="1348" on="0"/>
        <pt x="275" y="1245" on="1"/>
        <pt x="275" y="400" on="1"/>
        <pt x="275" y="296" on="0"/>
        <pt x="424" y="150" on="0"/>
        <pt x="526" y="150" on="1"/>
        <pt x="1398" y="150" on="1"/>
        <pt x="1500" y="150" on="0"/>
        <pt x="1649" y="296" on="0"/>
        <pt x="1649" y="400" on="1"/>
        <pt x="1649" y="1245" on="1"/>
        <pt x="1649" y="1348" on="0"/>
        <pt x="1502" y="1495" on="0"/>
        <pt x="1398" y="1495" on="1"/>
      </contour>
    </TTGlyph>
    <TTGlyph name="Grave" xMin="140" yMin="1561" xMax="504" yMax="1950">
      <contour>
        <pt x="478" y="1565" on="1"/>
        <pt x="474" y="1561" on="0"/>
        <pt x="468" y="1561" on="0"/>
        <pt x="464" y="1565" on="1"/>
        <pt x="195" y="1782" on="1"/>
        <pt x="140" y="1829" on="0"/>
        <pt x="140" y="1905" on="0"/>
        <pt x="181" y="1950" on="0"/>
        <pt x="251" y="1950" on="0"/>
        <pt x="287" y="1901" on="1"/>
        <pt x="500" y="1606" on="1"/>
        <pt x="504" y="1602" on="0"/>
        <pt x="504" y="1600" on="1"/>
        <pt x="504" y="1598" on="0"/>
        <pt x="500" y="1594" on="1"/>
      </contour>
    </TTGlyph>
    <TTGlyph name="Gravesmall" xMin="402" yMin="1067" xMax="647" yMax="1327">
      <contour>
        <pt x="629" y="1070" on="1"/>
        <pt x="627" y="1067" on="0"/>
        <pt x="622" y="1067" on="0"/>
        <pt x="619" y="1070" on="1"/>
        <pt x="439" y="1215" on="1"/>
        <pt x="402" y="1244" on="0"/>
        <pt x="402" y="1278" on="1"/>
        <pt x="402" y="1298" on="0"/>
        <pt x="430" y="1327" on="0"/>
        <pt x="477" y="1327" on="0"/>
        <pt x="501" y="1295" on="1"/>
        <pt x="644" y="1097" on="1"/>
        <pt x="647" y="1094" on="0"/>
        <pt x="647" y="1093" on="1"/>
        <pt x="647" y="1092" on="0"/>
        <pt x="645" y="1091" on="0"/>
        <pt x="644" y="1089" on="1"/>
      </contour>
    </TTGlyph>
    <TTGlyph name="H" xMin="60" yMin="0" xMax="1652" yMax="1410">
      <contour>
        <pt x="1457" y="181" on="1"/>
        <pt x="1457" y="46" on="0"/>
        <pt x="1644" y="40" on="1"/>
        <pt x="1652" y="40" on="0"/>
        <pt x="1652" y="32" on="1"/>
        <pt x="1652" y="8" on="1"/>
        <pt x="1652" y="0" on="0"/>
        <pt x="1644" y="0" on="1"/>
        <pt x="1008" y="0" on="1"/>
        <pt x="1000" y="0" on="0"/>
        <pt x="1000" y="8" on="1"/>
        <pt x="1000" y="32" on="1"/>
        <pt x="1000" y="40" on="0"/>
        <pt x="1100" y="40" on="0"/>
        <pt x="1164" y="62" on="1"/>
        <pt x="1262" y="94" on="0"/>
        <pt x="1262" y="170" on="1"/>
        <pt x="1262" y="647" on="1"/>
        <pt x="1262" y="657" on="0"/>
        <pt x="1256" y="663" on="0"/>
        <pt x="1246" y="663" on="1"/>
        <pt x="458" y="663" on="1"/>
        <pt x="448" y="663" on="0"/>
        <pt x="442" y="657" on="0"/>
        <pt x="442" y="647" on="1"/>
        <pt x="442" y="160" on="1"/>
        <pt x="442" y="40" on="0"/>
        <pt x="619" y="40" on="1"/>
        <pt x="627" y="40" on="0"/>
        <pt x="627" y="32" on="1"/>
        <pt x="627" y="8" on="1"/>
        <pt x="627" y="0" on="0"/>
        <pt x="620" y="0" on="1"/>
        <pt x="68" y="0" on="1"/>
        <pt x="60" y="0" on="0"/>
        <pt x="60" y="8" on="1"/>
        <pt x="60" y="32" on="1"/>
        <pt x="60" y="40" on="0"/>
        <pt x="80" y="40" on="1"/>
        <pt x="247" y="40" on="0"/>
        <pt x="247" y="183" on="1"/>
        <pt x="247" y="1250" on="1"/>
        <pt x="247" y="1367" on="0"/>
        <pt x="108" y="1374" on="1"/>
        <pt x="87" y="1375" on="0"/>
        <pt x="87" y="1383" on="1"/>
        <pt x="87" y="1402" on="1"/>
        <pt x="87" y="1410" on="0"/>
        <pt x="94" y="1410" on="1"/>
        <pt x="596" y="1410" on="1"/>
        <pt x="604" y="1410" on="0"/>
        <pt x="604" y="1402" on="1"/>
        <pt x="604" y="1383" on="1"/>
        <pt x="604" y="1377" on="0"/>
        <pt x="585" y="1377" on="1"/>
        <pt x="442" y="1377" on="0"/>
        <pt x="442" y="1236" on="1"/>
        <pt x="442" y="774" on="1"/>
        <pt x="442" y="764" on="0"/>
        <pt x="448" y="758" on="0"/>
        <pt x="458" y="758" on="1"/>
        <pt x="1246" y="758" on="1"/>
        <pt x="1256" y="758" on="0"/>
        <pt x="1262" y="764" on="0"/>
        <pt x="1262" y="774" on="1"/>
        <pt x="1262" y="1252" on="1"/>
        <pt x="1260" y="1261" on="0"/>
        <pt x="1259" y="1276" on="0"/>
        <pt x="1256" y="1292" on="1"/>
        <pt x="1249" y="1326" on="0"/>
        <pt x="1121" y="1369" on="0"/>
        <pt x="1040" y="1375" on="1"/>
        <pt x="1032" y="1375" on="0"/>
        <pt x="1032" y="1383" on="1"/>
        <pt x="1032" y="1402" on="1"/>
        <pt x="1032" y="1410" on="0"/>
        <pt x="1039" y="1410" on="1"/>
        <pt x="1616" y="1410" on="1"/>
        <pt x="1624" y="1410" on="0"/>
        <pt x="1624" y="1402" on="1"/>
        <pt x="1624" y="1383" on="1"/>
        <pt x="1624" y="1377" on="0"/>
        <pt x="1605" y="1377" on="1"/>
        <pt x="1457" y="1377" on="0"/>
        <pt x="1457" y="1236" on="1"/>
      </contour>
    </TTGlyph>
    <TTGlyph name="H.ins" xMin="60" yMin="-289" xMax="1352" yMax="1411">
      <contour>
        <pt x="585" y="1378" on="1"/>
        <pt x="442" y="1378" on="0"/>
        <pt x="442" y="1237" on="1"/>
        <pt x="442" y="915" on="1"/>
        <pt x="442" y="898" on="0"/>
        <pt x="492" y="898" on="0"/>
        <pt x="545" y="914" on="0"/>
        <pt x="595" y="939" on="0"/>
        <pt x="648" y="968" on="0"/>
        <pt x="760" y="1009" on="0"/>
        <pt x="864" y="1009" on="1"/>
        <pt x="1059" y="1009" on="0"/>
        <pt x="1273" y="836" on="0"/>
        <pt x="1352" y="579" on="0"/>
        <pt x="1352" y="449" on="1"/>
        <pt x="1352" y="208" on="0"/>
        <pt x="1174" y="-118" on="0"/>
        <pt x="874" y="-289" on="0"/>
        <pt x="694" y="-289" on="1"/>
        <pt x="618" y="-289" on="0"/>
        <pt x="589" y="-234" on="1"/>
        <pt x="581" y="-218" on="0"/>
        <pt x="581" y="-203" on="1"/>
        <pt x="581" y="-158" on="0"/>
        <pt x="615" y="-158" on="1"/>
        <pt x="630" y="-158" on="0"/>
        <pt x="639" y="-182" on="0"/>
        <pt x="644" y="-196" on="1"/>
        <pt x="655" y="-235" on="0"/>
        <pt x="695" y="-235" on="1"/>
        <pt x="1003" y="-235" on="0"/>
        <pt x="1106" y="120" on="1"/>
        <pt x="1147" y="262" on="0"/>
        <pt x="1147" y="534" on="0"/>
        <pt x="1104" y="701" on="0"/>
        <pt x="1063" y="767" on="1"/>
        <pt x="972" y="914" on="0"/>
        <pt x="705" y="914" on="0"/>
        <pt x="584" y="851" on="1"/>
        <pt x="442" y="778" on="0"/>
        <pt x="442" y="658" on="1"/>
        <pt x="442" y="161" on="1"/>
        <pt x="442" y="41" on="0"/>
        <pt x="619" y="41" on="1"/>
        <pt x="627" y="41" on="0"/>
        <pt x="627" y="33" on="1"/>
        <pt x="627" y="9" on="1"/>
        <pt x="627" y="1" on="0"/>
        <pt x="620" y="1" on="1"/>
        <pt x="68" y="1" on="1"/>
        <pt x="60" y="1" on="0"/>
        <pt x="60" y="9" on="1"/>
        <pt x="60" y="33" on="1"/>
        <pt x="60" y="41" on="0"/>
        <pt x="80" y="41" on="1"/>
        <pt x="247" y="41" on="0"/>
        <pt x="247" y="184" on="1"/>
        <pt x="247" y="1251" on="1"/>
        <pt x="247" y="1368" on="0"/>
        <pt x="108" y="1375" on="1"/>
        <pt x="87" y="1376" on="0"/>
        <pt x="87" y="1384" on="1"/>
        <pt x="87" y="1403" on="1"/>
        <pt x="87" y="1411" on="0"/>
        <pt x="94" y="1411" on="1"/>
        <pt x="596" y="1411" on="1"/>
        <pt x="604" y="1411" on="0"/>
        <pt x="604" y="1403" on="1"/>
        <pt x="604" y="1384" on="1"/>
        <pt x="604" y="1378" on="0"/>
      </contour>
    </TTGlyph>
    <TTGlyph name="H.sc" xMin="63" yMin="0" xMax="1195" yMax="945">
      <contour>
        <pt x="76" y="48" on="1"/>
        <pt x="189" y="48" on="0"/>
        <pt x="189" y="144" on="1"/>
        <pt x="189" y="816" on="1"/>
        <pt x="189" y="862" on="0"/>
        <pt x="132" y="898" on="0"/>
        <pt x="82" y="900" on="0"/>
        <pt x="82" y="905" on="1"/>
        <pt x="82" y="939" on="1"/>
        <pt x="82" y="945" on="0"/>
        <pt x="86" y="945" on="1"/>
        <pt x="456" y="945" on="1"/>
        <pt x="461" y="945" on="0"/>
        <pt x="461" y="939" on="1"/>
        <pt x="461" y="905" on="1"/>
        <pt x="461" y="902" on="0"/>
        <pt x="456" y="902" on="1"/>
        <pt x="353" y="902" on="0"/>
        <pt x="353" y="807" on="1"/>
        <pt x="353" y="529" on="1"/>
        <pt x="353" y="519" on="0"/>
        <pt x="363" y="519" on="1"/>
        <pt x="891" y="519" on="1"/>
        <pt x="902" y="519" on="0"/>
        <pt x="902" y="529" on="1"/>
        <pt x="902" y="818" on="1"/>
        <pt x="902" y="894" on="0"/>
        <pt x="754" y="900" on="1"/>
        <pt x="748" y="900" on="0"/>
        <pt x="748" y="905" on="1"/>
        <pt x="748" y="939" on="1"/>
        <pt x="748" y="945" on="0"/>
        <pt x="753" y="945" on="1"/>
        <pt x="1171" y="945" on="1"/>
        <pt x="1176" y="945" on="0"/>
        <pt x="1176" y="939" on="1"/>
        <pt x="1176" y="905" on="1"/>
        <pt x="1176" y="902" on="0"/>
        <pt x="1171" y="902" on="1"/>
        <pt x="1065" y="902" on="0"/>
        <pt x="1065" y="807" on="1"/>
        <pt x="1065" y="121" on="1"/>
        <pt x="1065" y="30" on="0"/>
        <pt x="1190" y="27" on="1"/>
        <pt x="1195" y="27" on="0"/>
        <pt x="1195" y="21" on="1"/>
        <pt x="1195" y="5" on="1"/>
        <pt x="1195" y="0" on="0"/>
        <pt x="1190" y="0" on="1"/>
        <pt x="732" y="0" on="1"/>
        <pt x="727" y="0" on="0"/>
        <pt x="727" y="5" on="1"/>
        <pt x="727" y="21" on="1"/>
        <pt x="727" y="27" on="0"/>
        <pt x="795" y="27" on="0"/>
        <pt x="837" y="41" on="1"/>
        <pt x="902" y="63" on="0"/>
        <pt x="902" y="113" on="1"/>
        <pt x="902" y="434" on="1"/>
        <pt x="902" y="444" on="0"/>
        <pt x="891" y="444" on="1"/>
        <pt x="363" y="444" on="1"/>
        <pt x="353" y="444" on="0"/>
        <pt x="353" y="434" on="1"/>
        <pt x="353" y="128" on="1"/>
        <pt x="353" y="48" on="0"/>
        <pt x="471" y="48" on="1"/>
        <pt x="477" y="48" on="0"/>
        <pt x="477" y="42" on="1"/>
        <pt x="477" y="5" on="1"/>
        <pt x="477" y="0" on="0"/>
        <pt x="473" y="0" on="1"/>
        <pt x="68" y="0" on="1"/>
        <pt x="63" y="0" on="0"/>
        <pt x="63" y="5" on="1"/>
        <pt x="63" y="42" on="1"/>
        <pt x="63" y="48" on="0"/>
      </contour>
    </TTGlyph>
    <TTGlyph name="Hbar" xMin="60" yMin="0" xMax="1652" yMax="1410">
      <contour>
        <pt x="1457" y="181" on="1"/>
        <pt x="1457" y="46" on="0"/>
        <pt x="1644" y="40" on="1"/>
        <pt x="1652" y="40" on="0"/>
        <pt x="1652" y="32" on="1"/>
        <pt x="1652" y="8" on="1"/>
        <pt x="1652" y="0" on="0"/>
        <pt x="1644" y="0" on="1"/>
        <pt x="1008" y="0" on="1"/>
        <pt x="1000" y="0" on="0"/>
        <pt x="1000" y="8" on="1"/>
        <pt x="1000" y="32" on="1"/>
        <pt x="1000" y="40" on="0"/>
        <pt x="1100" y="40" on="0"/>
        <pt x="1164" y="62" on="1"/>
        <pt x="1262" y="94" on="0"/>
        <pt x="1262" y="170" on="1"/>
        <pt x="1262" y="647" on="1"/>
        <pt x="1262" y="657" on="0"/>
        <pt x="1256" y="663" on="0"/>
        <pt x="1246" y="663" on="1"/>
        <pt x="458" y="663" on="1"/>
        <pt x="448" y="663" on="0"/>
        <pt x="442" y="657" on="0"/>
        <pt x="442" y="647" on="1"/>
        <pt x="442" y="160" on="1"/>
        <pt x="442" y="40" on="0"/>
        <pt x="619" y="40" on="1"/>
        <pt x="627" y="40" on="0"/>
        <pt x="627" y="32" on="1"/>
        <pt x="627" y="8" on="1"/>
        <pt x="627" y="0" on="0"/>
        <pt x="620" y="0" on="1"/>
        <pt x="68" y="0" on="1"/>
        <pt x="60" y="0" on="0"/>
        <pt x="60" y="8" on="1"/>
        <pt x="60" y="32" on="1"/>
        <pt x="60" y="40" on="0"/>
        <pt x="80" y="40" on="1"/>
        <pt x="247" y="40" on="0"/>
        <pt x="247" y="183" on="1"/>
        <pt x="247" y="1052" on="1"/>
        <pt x="119" y="1052" on="1"/>
        <pt x="77" y="1052" on="0"/>
        <pt x="77" y="1077" on="1"/>
        <pt x="77" y="1113" on="1"/>
        <pt x="77" y="1138" on="0"/>
        <pt x="119" y="1138" on="1"/>
        <pt x="247" y="1138" on="1"/>
        <pt x="247" y="1250" on="1"/>
        <pt x="247" y="1367" on="0"/>
        <pt x="108" y="1374" on="1"/>
        <pt x="87" y="1375" on="0"/>
        <pt x="87" y="1383" on="1"/>
        <pt x="87" y="1402" on="1"/>
        <pt x="87" y="1410" on="0"/>
        <pt x="94" y="1410" on="1"/>
        <pt x="596" y="1410" on="1"/>
        <pt x="604" y="1410" on="0"/>
        <pt x="604" y="1402" on="1"/>
        <pt x="604" y="1383" on="1"/>
        <pt x="604" y="1377" on="0"/>
        <pt x="585" y="1377" on="1"/>
        <pt x="442" y="1377" on="0"/>
        <pt x="442" y="1236" on="1"/>
        <pt x="442" y="1138" on="1"/>
        <pt x="1262" y="1138" on="1"/>
        <pt x="1262" y="1252" on="1"/>
        <pt x="1260" y="1261" on="0"/>
        <pt x="1259" y="1276" on="0"/>
        <pt x="1256" y="1292" on="1"/>
        <pt x="1249" y="1326" on="0"/>
        <pt x="1121" y="1369" on="0"/>
        <pt x="1040" y="1375" on="1"/>
        <pt x="1032" y="1375" on="0"/>
        <pt x="1032" y="1383" on="1"/>
        <pt x="1032" y="1402" on="1"/>
        <pt x="1032" y="1410" on="0"/>
        <pt x="1039" y="1410" on="1"/>
        <pt x="1616" y="1410" on="1"/>
        <pt x="1624" y="1410" on="0"/>
        <pt x="1624" y="1402" on="1"/>
        <pt x="1624" y="1383" on="1"/>
        <pt x="1624" y="1377" on="0"/>
        <pt x="1605" y="1377" on="1"/>
        <pt x="1457" y="1377" on="0"/>
        <pt x="1457" y="1236" on="1"/>
        <pt x="1457" y="1138" on="1"/>
        <pt x="1583" y="1138" on="1"/>
        <pt x="1624" y="1138" on="0"/>
        <pt x="1624" y="1113" on="1"/>
        <pt x="1624" y="1077" on="1"/>
        <pt x="1624" y="1052" on="0"/>
        <pt x="1583" y="1052" on="1"/>
        <pt x="1457" y="1052" on="1"/>
      </contour>
      <contour>
        <pt x="442" y="774" on="1"/>
        <pt x="442" y="764" on="0"/>
        <pt x="448" y="758" on="0"/>
        <pt x="458" y="758" on="1"/>
        <pt x="1246" y="758" on="1"/>
        <pt x="1256" y="758" on="0"/>
        <pt x="1262" y="764" on="0"/>
        <pt x="1262" y="774" on="1"/>
        <pt x="1262" y="1052" on="1"/>
        <pt x="442" y="1052" on="1"/>
      </contour>
    </TTGlyph>
    <TTGlyph name="Hcircumflex" xMin="60" yMin="0" xMax="1652" yMax="1950">
      <component glyphName="H" x="0" y="0" flags="0x1204"/>
      <component glyphName="circumflex" x="551" y="497" flags="0x1004"/>
    </TTGlyph>
    <TTGlyph name="Hebrew_ph" xMin="125" yMin="0" xMax="1799" yMax="1645">
      <contour>
        <pt x="125" y="1245" on="1"/>
        <pt x="125" y="1411" on="0"/>
        <pt x="359" y="1645" on="0"/>
        <pt x="525" y="1645" on="1"/>
        <pt x="1399" y="1645" on="1"/>
        <pt x="1565" y="1645" on="0"/>
        <pt x="1799" y="1411" on="0"/>
        <pt x="1799" y="1245" on="1"/>
        <pt x="1799" y="400" on="1"/>
        <pt x="1799" y="233" on="0"/>
        <pt x="1563" y="0" on="0"/>
        <pt x="1398" y="0" on="1"/>
        <pt x="526" y="0" on="1"/>
        <pt x="361" y="0" on="0"/>
        <pt x="125" y="233" on="0"/>
        <pt x="125" y="400" on="1"/>
      </contour>
      <contour>
        <pt x="526" y="1495" on="1"/>
        <pt x="422" y="1495" on="0"/>
        <pt x="275" y="1348" on="0"/>
        <pt x="275" y="1245" on="1"/>
        <pt x="275" y="400" on="1"/>
        <pt x="275" y="296" on="0"/>
        <pt x="424" y="150" on="0"/>
        <pt x="526" y="150" on="1"/>
        <pt x="1398" y="150" on="1"/>
        <pt x="1500" y="150" on="0"/>
        <pt x="1649" y="296" on="0"/>
        <pt x="1649" y="400" on="1"/>
        <pt x="1649" y="1245" on="1"/>
        <pt x="1649" y="1348" on="0"/>
        <pt x="1502" y="1495" on="0"/>
        <pt x="1398" y="1495" on="1"/>
      </contour>
      <contour>
        <pt x="1167" y="1237" on="1"/>
        <pt x="1164" y="1213" on="0"/>
        <pt x="1164" y="1179" on="0"/>
        <pt x="1208" y="1132" on="0"/>
        <pt x="1240" y="1101" on="1"/>
        <pt x="1324" y="1032" on="0"/>
        <pt x="1324" y="929" on="0"/>
        <pt x="1240" y="872" on="0"/>
        <pt x="1190" y="865" on="1"/>
        <pt x="1186" y="897" on="0"/>
        <pt x="1169" y="917" on="0"/>
        <pt x="1150" y="934" on="0"/>
        <pt x="1136" y="949" on="1"/>
        <pt x="1064" y="837" on="1"/>
        <pt x="1253" y="648" on="1"/>
        <pt x="1313" y="588" on="0"/>
        <pt x="1313" y="472" on="0"/>
        <pt x="1210" y="397" on="0"/>
        <pt x="1141" y="397" on="1"/>
        <pt x="1143" y="406" on="0"/>
        <pt x="1154" y="433" on="0"/>
        <pt x="1154" y="446" on="1"/>
        <pt x="1154" y="489" on="0"/>
        <pt x="1101" y="544" on="1"/>
        <pt x="772" y="874" on="1"/>
        <pt x="719" y="821" on="0"/>
        <pt x="719" y="760" on="0"/>
        <pt x="744" y="719" on="0"/>
        <pt x="781" y="680" on="0"/>
        <pt x="825" y="640" on="0"/>
        <pt x="887" y="573" on="0"/>
        <pt x="887" y="537" on="1"/>
        <pt x="887" y="479" on="0"/>
        <pt x="802" y="419" on="1"/>
        <pt x="592" y="419" on="1"/>
        <pt x="592" y="442" on="1"/>
        <pt x="707" y="469" on="0"/>
        <pt x="707" y="503" on="1"/>
        <pt x="697" y="529" on="0"/>
        <pt x="621" y="617" on="0"/>
        <pt x="592" y="665" on="0"/>
        <pt x="592" y="728" on="0"/>
        <pt x="623" y="785" on="0"/>
        <pt x="670" y="834" on="0"/>
        <pt x="723" y="878" on="0"/>
        <pt x="746" y="900" on="1"/>
        <pt x="655" y="992" on="1"/>
        <pt x="594" y="1053" on="0"/>
        <pt x="594" y="1161" on="0"/>
        <pt x="692" y="1237" on="0"/>
        <pt x="739" y="1237" on="1"/>
        <pt x="735" y="1227" on="0"/>
        <pt x="735" y="1212" on="1"/>
        <pt x="735" y="1167" on="0"/>
        <pt x="805" y="1098" on="1"/>
        <pt x="1015" y="888" on="1"/>
        <pt x="1090" y="993" on="1"/>
        <pt x="1019" y="1059" on="0"/>
        <pt x="1019" y="1160" on="0"/>
        <pt x="1120" y="1237" on="0"/>
      </contour>
    </TTGlyph>
    <TTGlyph name="Hungarumlaut" xMin="33" yMin="1562" xMax="667" yMax="1950">
      <component glyphName="hungarumlaut" x="0" y="498" flags="0x1204"/>
    </TTGlyph>
    <TTGlyph name="Hungarumlaut.sc" xMin="296" yMin="1221" xMax="753" yMax="1480">
      <contour>
        <pt x="299" y="1242" on="1"/>
        <pt x="296" y="1245" on="0"/>
        <pt x="296" y="1248" on="0"/>
        <pt x="299" y="1251" on="1"/>
        <pt x="441" y="1448" on="1"/>
        <pt x="465" y="1480" on="0"/>
        <pt x="513" y="1480" on="0"/>
        <pt x="540" y="1451" on="0"/>
        <pt x="540" y="1431" on="1"/>
        <pt x="540" y="1397" on="0"/>
        <pt x="503" y="1368" on="1"/>
        <pt x="323" y="1223" on="1"/>
        <pt x="321" y="1221" on="0"/>
        <pt x="318" y="1221" on="1"/>
        <pt x="315" y="1221" on="0"/>
        <pt x="314" y="1223" on="1"/>
      </contour>
      <contour>
        <pt x="511" y="1242" on="1"/>
        <pt x="510" y="1244" on="0"/>
        <pt x="508" y="1245" on="0"/>
        <pt x="508" y="1246" on="1"/>
        <pt x="508" y="1247" on="0"/>
        <pt x="510" y="1249" on="0"/>
        <pt x="511" y="1251" on="1"/>
        <pt x="654" y="1448" on="1"/>
        <pt x="678" y="1480" on="0"/>
        <pt x="725" y="1480" on="0"/>
        <pt x="753" y="1451" on="0"/>
        <pt x="753" y="1431" on="1"/>
        <pt x="753" y="1398" on="0"/>
        <pt x="715" y="1368" on="1"/>
        <pt x="535" y="1223" on="1"/>
        <pt x="533" y="1221" on="0"/>
        <pt x="530" y="1221" on="1"/>
        <pt x="527" y="1221" on="0"/>
        <pt x="526" y="1223" on="1"/>
      </contour>
    </TTGlyph>
    <TTGlyph name="I" xMin="90" yMin="0" xMax="609" yMax="1410">
      <contour>
        <pt x="252" y="1250" on="1"/>
        <pt x="252" y="1370" on="0"/>
        <pt x="114" y="1370" on="1"/>
        <pt x="92" y="1370" on="0"/>
        <pt x="92" y="1378" on="1"/>
        <pt x="92" y="1402" on="1"/>
        <pt x="92" y="1410" on="0"/>
        <pt x="100" y="1410" on="1"/>
        <pt x="601" y="1410" on="1"/>
        <pt x="609" y="1410" on="0"/>
        <pt x="609" y="1402" on="1"/>
        <pt x="609" y="1378" on="1"/>
        <pt x="609" y="1370" on="0"/>
        <pt x="521" y="1370" on="0"/>
        <pt x="447" y="1314" on="0"/>
        <pt x="447" y="1227" on="1"/>
        <pt x="447" y="160" on="1"/>
        <pt x="447" y="40" on="0"/>
        <pt x="586" y="40" on="1"/>
        <pt x="607" y="40" on="0"/>
        <pt x="607" y="32" on="1"/>
        <pt x="607" y="8" on="1"/>
        <pt x="607" y="0" on="0"/>
        <pt x="599" y="0" on="1"/>
        <pt x="98" y="0" on="1"/>
        <pt x="90" y="0" on="0"/>
        <pt x="90" y="8" on="1"/>
        <pt x="90" y="32" on="1"/>
        <pt x="90" y="40" on="0"/>
        <pt x="178" y="40" on="0"/>
        <pt x="252" y="96" on="0"/>
        <pt x="252" y="183" on="1"/>
      </contour>
    </TTGlyph>
    <TTGlyph name="I.sc" xMin="85" yMin="0" xMax="467" yMax="945">
      <contour>
        <pt x="461" y="945" on="1"/>
        <pt x="467" y="945" on="0"/>
        <pt x="467" y="939" on="1"/>
        <pt x="467" y="902" on="1"/>
        <pt x="467" y="897" on="0"/>
        <pt x="407" y="897" on="0"/>
        <pt x="358" y="861" on="0"/>
        <pt x="358" y="801" on="1"/>
        <pt x="358" y="128" on="1"/>
        <pt x="358" y="83" on="0"/>
        <pt x="412" y="48" on="0"/>
        <pt x="460" y="48" on="1"/>
        <pt x="465" y="48" on="0"/>
        <pt x="465" y="42" on="1"/>
        <pt x="465" y="5" on="1"/>
        <pt x="465" y="0" on="0"/>
        <pt x="460" y="0" on="1"/>
        <pt x="91" y="0" on="1"/>
        <pt x="85" y="0" on="0"/>
        <pt x="85" y="5" on="1"/>
        <pt x="85" y="42" on="1"/>
        <pt x="85" y="48" on="0"/>
        <pt x="144" y="48" on="0"/>
        <pt x="194" y="85" on="0"/>
        <pt x="194" y="144" on="1"/>
        <pt x="194" y="816" on="1"/>
        <pt x="194" y="862" on="0"/>
        <pt x="140" y="897" on="0"/>
        <pt x="87" y="897" on="0"/>
        <pt x="87" y="902" on="1"/>
        <pt x="87" y="939" on="1"/>
        <pt x="87" y="945" on="0"/>
        <pt x="92" y="945" on="1"/>
      </contour>
    </TTGlyph>
    <TTGlyph name="I.tall" xMin="90" yMin="0" xMax="609" yMax="1900">
      <contour>
        <pt x="447" y="160" on="1"/>
        <pt x="447" y="40" on="0"/>
        <pt x="586" y="40" on="1"/>
        <pt x="607" y="40" on="0"/>
        <pt x="607" y="32" on="1"/>
        <pt x="607" y="8" on="1"/>
        <pt x="607" y="0" on="0"/>
        <pt x="599" y="0" on="1"/>
        <pt x="98" y="0" on="1"/>
        <pt x="90" y="0" on="0"/>
        <pt x="90" y="8" on="1"/>
        <pt x="90" y="32" on="1"/>
        <pt x="90" y="40" on="0"/>
        <pt x="178" y="40" on="0"/>
        <pt x="252" y="96" on="0"/>
        <pt x="252" y="183" on="1"/>
        <pt x="252" y="1706" on="1"/>
        <pt x="252" y="1774" on="0"/>
        <pt x="171" y="1860" on="0"/>
        <pt x="100" y="1860" on="1"/>
        <pt x="92" y="1860" on="0"/>
        <pt x="92" y="1868" on="1"/>
        <pt x="92" y="1892" on="1"/>
        <pt x="92" y="1900" on="0"/>
        <pt x="100" y="1900" on="1"/>
        <pt x="601" y="1900" on="1"/>
        <pt x="609" y="1900" on="0"/>
        <pt x="609" y="1892" on="1"/>
        <pt x="609" y="1868" on="1"/>
        <pt x="609" y="1860" on="0"/>
        <pt x="601" y="1860" on="1"/>
        <pt x="447" y="1860" on="0"/>
        <pt x="447" y="1683" on="1"/>
      </contour>
    </TTGlyph>
    <TTGlyph name="IJ" xMin="90" yMin="-640" xMax="1302" yMax="1410">
      <component glyphName="I" x="0" y="0" flags="0x1004"/>
      <component glyphName="J" x="699" y="0" flags="0x1004"/>
    </TTGlyph>
    <TTGlyph name="Iacute" xMin="90" yMin="0" xMax="612" yMax="1950">
      <component glyphName="I" x="0" y="0" flags="0x1204"/>
      <component glyphName="acute" x="80" y="498" flags="0x1004"/>
    </TTGlyph>
    <TTGlyph name="Iacute.sc" xMin="85" yMin="0" xMax="508" yMax="1327">
      <component glyphName="I.sc" x="0" y="0" flags="0x1204"/>
      <component glyphName="Acute.sc" x="-159" y="0" flags="0x1004"/>
    </TTGlyph>
    <TTGlyph name="Ibreve" xMin="79" yMin="0" xMax="620" yMax="1951">
      <component glyphName="I" x="0" y="0" flags="0x1204"/>
      <component glyphName="breve" x="0" y="543" flags="0x1004"/>
    </TTGlyph>
    <TTGlyph name="Icircumflex" xMin="76" yMin="0" xMax="626" yMax="1950">
      <component glyphName="I" x="0" y="0" flags="0x1204"/>
      <component glyphName="circumflex" x="40" y="497" flags="0x1004"/>
    </TTGlyph>
    <TTGlyph name="Icircumflex.sc" xMin="85" yMin="0" xMax="467" yMax="1327">
      <component glyphName="I.sc" x="0" y="0" flags="0x1204"/>
      <component glyphName="Circumflex.sc" x="-244" y="0" flags="0x1004"/>
    </TTGlyph>
    <TTGlyph name="Idieresis" xMin="38" yMin="0" xMax="671" yMax="1917">
      <component glyphName="I" x="0" y="0" flags="0x1204"/>
      <component glyphName="dieresis" x="5" y="571" flags="0x1004"/>
    </TTGlyph>
    <TTGlyph name="Idieresis.sc" xMin="66" yMin="0" xMax="490" yMax="1277">
      <component glyphName="I.sc" x="0" y="0" flags="0x1204"/>
      <component glyphName="Dieresis.sc" x="-247" y="0" flags="0x1004"/>
    </TTGlyph>
    <TTGlyph name="Idotaccent" xMin="90" yMin="0" xMax="609" yMax="1917">
      <component glyphName="I" x="0" y="0" flags="0x1204"/>
      <component glyphName="dotaccent" x="0" y="571" flags="0x1004"/>
    </TTGlyph>
    <TTGlyph name="Igrave" xMin="90" yMin="0" xMax="609" yMax="1950">
      <component glyphName="I" x="0" y="0" flags="0x1204"/>
      <component glyphName="grave" x="20" y="498" flags="0x1004"/>
    </TTGlyph>
    <TTGlyph name="Igrave.sc" xMin="56" yMin="0" xMax="467" yMax="1327">
      <component glyphName="I.sc" x="0" y="0" flags="0x1204"/>
      <component glyphName="Gravesmall" x="-346" y="0" flags="0x1004"/>
    </TTGlyph>
    <TTGlyph name="Imacron" xMin="26" yMin="0" xMax="673" yMax="1864">
      <component glyphName="I" x="0" y="0" flags="0x1204"/>
      <component glyphName="macron" x="0" y="542" flags="0x1004"/>
    </TTGlyph>
    <TTGlyph name="Imacron.sc" xMin="66" yMin="0" xMax="498" yMax="1240">
      <component glyphName="I.sc" x="0" y="0" flags="0x1204"/>
      <component glyphName="Macron.sc" x="-243" y="0" flags="0x1004"/>
    </TTGlyph>
    <TTGlyph name="Iogonek" xMin="90" yMin="-532" xMax="609" yMax="1410">
      <component glyphName="I" x="0" y="0" flags="0x1204"/>
      <component glyphName="ogonek" x="30" y="0" flags="0x1004"/>
    </TTGlyph>
    <TTGlyph name="Iota" xMin="90" yMin="0" xMax="609" yMax="1410">
      <component glyphName="I" x="0" y="0" flags="0x1204"/>
    </TTGlyph>
    <TTGlyph name="Iota.01" xMin="160" yMin="0" xMax="354" yMax="1410">
      <contour>
        <pt x="354" y="1410" on="1"/>
        <pt x="354" y="0" on="1"/>
        <pt x="160" y="0" on="1"/>
        <pt x="160" y="1410" on="1"/>
      </contour>
    </TTGlyph>
    <TTGlyph name="Iota.03" xMin="160" yMin="0" xMax="1270" yMax="1410">
      <contour>
        <pt x="1075" y="623" on="1"/>
        <pt x="160" y="623" on="1"/>
        <pt x="160" y="1410" on="1"/>
        <pt x="355" y="1410" on="1"/>
        <pt x="355" y="798" on="1"/>
        <pt x="1270" y="798" on="1"/>
        <pt x="1270" y="0" on="1"/>
        <pt x="1075" y="0" on="1"/>
      </contour>
    </TTGlyph>
    <TTGlyph name="Iota.03r" xMin="159" yMin="0" xMax="1270" yMax="1410">
      <component glyphName="Iota.03" x="1430" y="0" scalex="-1.0" scaley="1.0" flags="0x1004"/>
    </TTGlyph>
    <TTGlyph name="Iota.04" xMin="100" yMin="0" xMax="1060" yMax="1452">
      <contour>
        <pt x="1060" y="750" on="1"/>
        <pt x="1060" y="0" on="1"/>
        <pt x="866" y="0" on="1"/>
        <pt x="866" y="604" on="1"/>
        <pt x="100" y="839" on="1"/>
        <pt x="100" y="1045" on="1"/>
        <pt x="1060" y="1452" on="1"/>
        <pt x="1060" y="1293" on="1"/>
        <pt x="275" y="960" on="1"/>
      </contour>
    </TTGlyph>
    <TTGlyph name="Iota.04r" xMin="159" yMin="0" xMax="1120" yMax="1452">
      <component glyphName="Iota.04" x="1220" y="0" scalex="-1.0" scaley="1.0" flags="0x1004"/>
    </TTGlyph>
    <TTGlyph name="Iota.05" xMin="160" yMin="-26" xMax="939" yMax="1450">
      <contour>
        <pt x="939" y="163" on="1"/>
        <pt x="812" y="-26" on="0"/>
        <pt x="568" y="-26" on="1"/>
        <pt x="497" y="-26" on="0"/>
        <pt x="342" y="41" on="0"/>
        <pt x="284" y="98" on="1"/>
        <pt x="160" y="223" on="0"/>
        <pt x="160" y="575" on="0"/>
        <pt x="285" y="700" on="1"/>
        <pt x="324" y="739" on="0"/>
        <pt x="371" y="767" on="1"/>
        <pt x="298" y="818" on="0"/>
        <pt x="210" y="978" on="0"/>
        <pt x="210" y="1066" on="1"/>
        <pt x="210" y="1230" on="0"/>
        <pt x="430" y="1450" on="0"/>
        <pt x="585" y="1450" on="1"/>
        <pt x="676" y="1450" on="0"/>
        <pt x="830" y="1370" on="0"/>
        <pt x="882" y="1303" on="1"/>
        <pt x="771" y="1202" on="1"/>
        <pt x="703" y="1300" on="0"/>
        <pt x="492" y="1300" on="0"/>
        <pt x="360" y="1168" on="0"/>
        <pt x="360" y="982" on="0"/>
        <pt x="492" y="850" on="0"/>
        <pt x="585" y="850" on="1"/>
        <pt x="776" y="850" on="1"/>
        <pt x="776" y="674" on="1"/>
        <pt x="585" y="674" on="1"/>
        <pt x="471" y="674" on="0"/>
        <pt x="310" y="513" on="0"/>
        <pt x="310" y="399" on="1"/>
        <pt x="310" y="285" on="0"/>
        <pt x="471" y="124" on="0"/>
        <pt x="700" y="124" on="0"/>
        <pt x="782" y="208" on="1"/>
        <pt x="807" y="233" on="0"/>
        <pt x="825" y="265" on="1"/>
      </contour>
    </TTGlyph>
    <TTGlyph name="Iota.05r" xMin="159" yMin="-26" xMax="939" yMax="1450">
      <component glyphName="Iota.05" x="1099" y="0" scalex="-1.0" scaley="1.0" flags="0x1004"/>
    </TTGlyph>
    <TTGlyph name="Iota.07" xMin="170" yMin="0" xMax="1194" yMax="1410">
      <contour>
        <pt x="779" y="616" on="1"/>
        <pt x="779" y="175" on="1"/>
        <pt x="1194" y="175" on="1"/>
        <pt x="1194" y="0" on="1"/>
        <pt x="170" y="0" on="1"/>
        <pt x="170" y="175" on="1"/>
        <pt x="584" y="175" on="1"/>
        <pt x="584" y="616" on="1"/>
        <pt x="320" y="616" on="1"/>
        <pt x="320" y="791" on="1"/>
        <pt x="584" y="791" on="1"/>
        <pt x="584" y="1235" on="1"/>
        <pt x="170" y="1235" on="1"/>
        <pt x="170" y="1410" on="1"/>
        <pt x="1194" y="1410" on="1"/>
        <pt x="1194" y="1235" on="1"/>
        <pt x="779" y="1235" on="1"/>
        <pt x="779" y="791" on="1"/>
        <pt x="1044" y="791" on="1"/>
        <pt x="1044" y="616" on="1"/>
      </contour>
    </TTGlyph>
    <TTGlyph name="Iotadieresis" xMin="32" yMin="0" xMax="665" yMax="1916">
      <component glyphName="I" x="0" y="0" flags="0x1000"/>
      <component glyphName="dieresis" x="-1" y="570" flags="0x1000"/>
    </TTGlyph>
    <TTGlyph name="Iotatonos" xMin="-49" yMin="0" xMax="837" yMax="1453">
      <component glyphName="I" x="228" y="0" flags="0x1004"/>
      <component glyphName="tonos" x="-291" y="-69" flags="0x1004"/>
    </TTGlyph>
    <TTGlyph name="Itilde" xMin="54" yMin="0" xMax="652" yMax="1928">
      <component glyphName="I" x="0" y="0" flags="0x1204"/>
      <component glyphName="tilde" x="0" y="560" flags="0x1004"/>
    </TTGlyph>
</ttFont>
